<?xml version="1.0" encoding="UTF-8" standalone="no"?>
<svg width="24px" height="124px" viewBox="0 0 24 124" version="1.1" xmlns="http://www.w3.org/2000/svg" xmlns:xlink="http://www.w3.org/1999/xlink" xmlns:sketch="http://www.bohemiancoding.com/sketch/ns">
    <!-- Generator: Sketch 3.5.1 (25234) - http://www.bohemiancoding.com/sketch -->
    <title>icon_list_dele_sprite</title>
    <desc>Created with Sketch.</desc>
    <defs></defs>
    <g id="Page-1" stroke="none" stroke-width="1" fill="none" fill-rule="evenodd" sketch:type="MSPage">
        <g id="icon_list_dele_sprite" sketch:type="MSLayerGroup">
            <g id="btn_list_dele-copy" sketch:type="MSShapeGroup">
                <g id="btn_list_dele.svg_btn_list_dele.png">
                    <g id="normal">
                        <ellipse id="c" opacity="0.8" fill="#FFFFFF" cx="12" cy="12" rx="12" ry="12"></ellipse>
                        <path d="M12,0 C18.627417,0 24,5.372583 24,12 C24,18.627417 18.627417,24 12,24 C5.372583,24 0,18.627417 0,12 C0,5.372583 5.372583,0 12,0 L12,0 Z M12,2 C17.5228475,2 22,6.4771525 22,12 C22,17.5228475 17.5228475,22 12,22 C6.4771525,22 2,17.5228475 2,12 C2,6.4771525 6.4771525,2 12,2 L12,2 Z" id="b" opacity="0.3" fill="#000000"></path>
                        <path d="M16.95,15.536 L15.54,16.95 L12,13.414 L8.46,16.95 L7.05,15.536 L10.59,12 L7.05,8.464 L8.46,7.05 L12,10.586 L15.54,7.05 L16.95,8.464 L13.41,12 L16.95,15.536 Z" id="a" fill="#999999"></path>
                    </g>
                </g>
            </g>
            <g id="btn_list_dele-copy-2" transform="translate(0.000000, 50.000000)" sketch:type="MSShapeGroup">
                <g id="btn_list_dele.svg_btn_list_dele.png">
                    <g id="normal">
                        <ellipse id="c" opacity="0.8" fill="#FFFFFF" cx="12" cy="12" rx="12" ry="12"></ellipse>
                        <path d="M12,0 C18.627417,0 24,5.372583 24,12 C24,18.627417 18.627417,24 12,24 C5.372583,24 0,18.627417 0,12 C0,5.372583 5.372583,0 12,0 L12,0 Z M12,2 C17.5228475,2 22,6.4771525 22,12 C22,17.5228475 17.5228475,22 12,22 C6.4771525,22 2,17.5228475 2,12 C2,6.4771525 6.4771525,2 12,2 L12,2 Z" id="b" opacity="0.6" fill="#000000"></path>
                        <path d="M16.95,15.536 L15.54,16.95 L12,13.414 L8.46,16.95 L7.05,15.536 L10.59,12 L7.05,8.464 L8.46,7.05 L12,10.586 L15.54,7.05 L16.95,8.464 L13.41,12 L16.95,15.536 Z" id="a" fill="#666666"></path>
                    </g>
                </g>
            </g>
            <g id="btn_list_dele-copy-3" transform="translate(0.000000, 100.000000)" sketch:type="MSShapeGroup">
                <g id="btn_list_dele.svg_btn_list_dele.png">
                    <g id="normal">
                        <ellipse id="c" opacity="0.8" fill="#FFFFFF" cx="12" cy="12" rx="12" ry="12"></ellipse>
                        <path d="M12,0 C18.627417,0 24,5.372583 24,12 C24,18.627417 18.627417,24 12,24 C5.372583,24 0,18.627417 0,12 C0,5.372583 5.372583,0 12,0 L12,0 Z M12,2 C17.5228475,2 22,6.4771525 22,12 C22,17.5228475 17.5228475,22 12,22 C6.4771525,22 2,17.5228475 2,12 C2,6.4771525 6.4771525,2 12,2 L12,2 Z" id="b" opacity="0.8" fill="#000000"></path>
                        <path d="M16.95,15.536 L15.54,16.95 L12,13.414 L8.46,16.95 L7.05,15.536 L10.59,12 L7.05,8.464 L8.46,7.05 L12,10.586 L15.54,7.05 L16.95,8.464 L13.41,12 L16.95,15.536 Z" id="a" fill="#666666"></path>
                    </g>
                </g>
            </g>
        </g>
    </g>
</svg>