<?xml version="1.0" encoding="UTF-8" standalone="no"?>
<svg width="410px" height="50px" viewBox="0 0 410 50" version="1.1" xmlns="http://www.w3.org/2000/svg" xmlns:xlink="http://www.w3.org/1999/xlink" xmlns:sketch="http://www.bohemiancoding.com/sketch/ns">
    <!-- Generator: Sketch 3.4 (15575) - http://www.bohemiancoding.com/sketch -->
    <title>img_category_heading_apparel</title>
    <desc>Created with Sketch.</desc>
    <defs></defs>
    <g id="spec" stroke="none" stroke-width="1" fill="none" fill-rule="evenodd" sketch:type="MSPage">
        <g id="heading_item" sketch:type="MSLayerGroup" transform="translate(92.000000, 6.000000)">
            <path d="M48,21 L0,21 L0,22 L48,22 L48,21 Z M174,21 L220,21 L220,22 L174,22 L174,21 Z" id="line" fill="#BBBBBB" sketch:type="MSShapeGroup"></path>
            <path d="M78,21.88 C78.08,20 78.12,18.2 78.12,16.52 L78.12,13.16 L86.44,13.16 L86.44,21.88 L78,21.88 Z M86.44,3.52 L86.44,12 L78.12,12 L78.12,3.52 L86.44,3.52 Z M87.6,2.36 L76.96,2.36 L76.96,16.52 C76.96,22.48 76.72,30.44 73.8,36.24 C74.08,36.32 74.56,36.64 74.8,36.88 C76.8,32.92 77.6,27.8 77.92,23.04 L86.44,23.04 L86.44,34.88 C86.44,35.52 86.2,35.68 85.6,35.72 C85.08,35.76 83.2,35.76 80.92,35.72 C81.12,36.08 81.28,36.56 81.36,36.84 C84.2,36.88 85.68,36.84 86.48,36.64 C87.24,36.4 87.6,35.96 87.6,34.88 L87.6,2.36 Z M107.64,17 C106.52,21.56 104.52,25.52 102.08,28.64 C99.68,25.32 97.8,21.32 96.52,17 L107.64,17 Z M108.32,15.76 L108.08,15.84 L93.56,15.84 L93.56,3.72 L106.76,3.72 L106.76,10.28 C106.76,10.76 106.64,10.92 106,10.96 C105.4,11 103.52,11 100.68,10.96 C100.88,11.32 101.12,11.68 101.2,12.08 C104.2,12.08 105.96,12.08 106.88,11.84 C107.72,11.6 107.92,11.2 107.92,10.28 L107.92,2.56 L92.4,2.56 L92.4,36.84 L93.56,36.84 L93.56,17 L95.36,17 C96.76,21.68 98.8,26 101.36,29.56 C99.16,32.2 96.76,34.24 94.28,35.52 C94.56,35.76 94.88,36.16 95.04,36.4 C97.48,35 99.88,33.04 102.04,30.48 C104.16,33.2 106.64,35.44 109.32,36.92 C109.56,36.6 109.92,36.24 110.24,36 C107.44,34.6 104.96,32.36 102.8,29.6 C105.56,26.08 107.8,21.52 109,16.08 L108.32,15.76 Z M137.56,16.32 L128.4,16.32 L128.4,17.48 L148.2,17.48 L148.2,16.32 L138.72,16.32 L138.72,8.32 L148.96,8.32 L148.96,7.16 L138.72,7.16 L138.72,0.76 L137.56,0.76 L137.56,7.16 L127.04,7.16 L127.04,8.32 L137.56,8.32 L137.56,16.32 Z M121.28,7.6 C120.36,6.28 118.24,4.56 116.44,3.4 L115.52,4.16 C117.36,5.36 119.4,7.12 120.4,8.4 L121.28,7.6 Z M123.84,19.08 L125,19.08 L125,0.76 L123.84,0.76 L123.84,10.64 C120.08,12.48 116.36,14.28 113.8,15.4 L114.32,16.56 C117,15.28 120.44,13.56 123.84,11.92 L123.84,19.08 Z M145.88,25.12 C143.96,26.44 140.72,28.32 138.16,29.56 C136.04,27.8 134.32,25.72 133,23.44 L149.64,23.44 L149.64,22.28 L133.72,22.28 C133.2,21.12 132.32,19.6 131.48,18.4 L130.36,18.72 C131.08,19.8 131.88,21.12 132.4,22.28 L114.36,22.28 L114.36,23.44 L129.96,23.44 C126.04,26.64 119.36,29.48 113.92,30.72 C114.2,31 114.56,31.44 114.76,31.76 C117.36,31.08 120.24,30.04 123.04,28.76 L123.04,33.48 C123.04,34.92 121.88,35.48 121.24,35.68 C121.48,36.04 121.8,36.56 121.92,36.92 C122.56,36.48 123.68,36.16 135.24,33.48 C135.2,33.24 135.16,32.72 135.16,32.4 L124.24,34.84 L124.24,28.2 C127.08,26.8 129.76,25.16 131.64,23.44 L131.72,23.44 C135.04,29.76 141.68,34.44 149.16,36.48 C149.32,36.16 149.64,35.72 149.92,35.48 C145.84,34.44 142.04,32.6 138.88,30.2 C141.52,29.04 144.68,27.36 146.92,25.84 L145.88,25.12 Z" id="服装" fill="#444444" sketch:type="MSShapeGroup"></path>
        </g>
    </g>
</svg>