<?xml version="1.0" encoding="UTF-8" standalone="no"?>
<svg width="410px" height="50px" viewBox="0 0 410 50" version="1.1" xmlns="http://www.w3.org/2000/svg" xmlns:xlink="http://www.w3.org/1999/xlink" xmlns:sketch="http://www.bohemiancoding.com/sketch/ns">
    <!-- Generator: Sketch 3.4 (15575) - http://www.bohemiancoding.com/sketch -->
    <title>img_category_heading_art</title>
    <desc>Created with Sketch.</desc>
    <defs></defs>
    <g id="spec" stroke="none" stroke-width="1" fill="none" fill-rule="evenodd" sketch:type="MSPage">
        <g id="heading_item" sketch:type="MSLayerGroup" transform="translate(57.000000, 6.000000)">
            <path d="M86.72,1 C86.64,6.48 86.36,27.68 69.28,35.76 C69.56,35.96 69.96,36.32 70.12,36.6 C81.96,30.88 85.88,19.04 87.2,10.24 C88.56,17.44 92.4,31.08 104.28,36.52 C104.44,36.2 104.84,35.76 105.12,35.6 C90.64,29.12 88.24,10.12 87.68,6.4 C87.84,4.08 87.88,2.2 87.92,1 L86.72,1 Z M129,6.92 C128.36,5.28 126.84,2.64 125.44,0.72 L124.36,1.08 C125.72,3.04 127.2,5.72 127.84,7.36 L129,6.92 Z M137,9.36 C134.6,15.8 131.28,21 127,25.2 C122.52,20.8 119.08,15.44 116.68,9.36 L137,9.36 Z M144.88,9.36 L144.88,8.2 L109.24,8.2 L109.24,9.36 L115.44,9.36 C117.88,15.8 121.48,21.48 126.08,26 C121.48,30.2 115.8,33.32 108.88,35.6 C109.16,35.84 109.56,36.4 109.72,36.72 C116.64,34.28 122.32,31.12 127,26.88 C131.76,31.36 137.56,34.68 144.28,36.6 C144.52,36.24 144.88,35.8 145.16,35.56 C138.44,33.76 132.64,30.44 127.88,26 C132.36,21.68 135.8,16.2 138.4,9.36 L144.88,9.36 Z M159.24,34.64 C156.84,34.64 155.2,34 155.2,32.68 C155.2,31.16 156.52,28.76 176.44,15.2 C176.6,15.12 176.76,15.04 176.84,14.96 L175.96,14.44 L175.68,14.52 L175.68,14.48 L153.44,14.48 L153.44,15.64 L173.76,15.64 C154.68,28.48 154,30.92 154,32.72 C154,34.68 155.68,35.8 159.48,35.8 L179.04,35.8 C182.2,35.8 182.92,34.88 183.24,28.96 C182.88,28.88 182.4,28.68 182.08,28.48 C181.88,33.72 181.4,34.64 179.08,34.64 L159.24,34.64 Z M174.24,5.52 L174.24,0.76 L173.08,0.76 L173.08,5.52 L160.72,5.52 L160.72,0.76 L159.56,0.76 L159.56,5.52 L149.56,5.52 L149.56,6.68 L159.56,6.68 L159.56,11 L160.72,11 L160.72,6.68 L173.08,6.68 L173.08,11 L174.24,11 L174.24,6.68 L183.6,6.68 L183.6,5.52 L174.24,5.52 Z M219.84,7.64 C218.16,6.04 214.84,3.56 212.12,1.84 L211.28,2.6 C214.04,4.4 217.32,6.92 219,8.56 L219.84,7.64 Z M223.76,12.4 L223.76,11.24 L207.6,11.24 L207.6,0.84 L206.4,0.84 L206.4,11.24 L189.84,11.24 L189.84,12.4 L206.08,12.4 C202.28,19.88 195.4,27.28 188.96,30.68 C189.28,30.92 189.64,31.28 189.84,31.6 C195.84,28.2 202.36,21.4 206.4,14.2 L206.4,36.84 L207.6,36.84 L207.6,13.8 C211.88,20.48 218.52,27.64 223.84,31.28 C224.08,31 224.44,30.6 224.76,30.36 C219.16,26.84 212.08,19.24 208.08,12.4 L223.76,12.4 Z" id="人文艺术" fill="#444444" sketch:type="MSShapeGroup"></path>
            <path d="M50,21 L0,21 L0,22 L50,22 L50,21 Z M246,21 L296,21 L296,22 L246,22 L246,21 Z" id="line" fill="#BBBBBB" sketch:type="MSShapeGroup"></path>
        </g>
    </g>
</svg>