<?xml version="1.0" encoding="UTF-8" standalone="no"?>
<svg width="410px" height="50px" viewBox="0 0 410 50" version="1.1" xmlns="http://www.w3.org/2000/svg" xmlns:xlink="http://www.w3.org/1999/xlink" xmlns:sketch="http://www.bohemiancoding.com/sketch/ns">
    <!-- Generator: Sketch 3.4 (15575) - http://www.bohemiancoding.com/sketch -->
    <title>img_category_heading_cars_motorcycles</title>
    <desc>Created with Sketch.</desc>
    <defs></defs>
    <g id="spec" stroke="none" stroke-width="1" fill="none" fill-rule="evenodd" sketch:type="MSPage">
        <g id="heading_item" sketch:type="MSLayerGroup" transform="translate(50.000000, 6.000000)">
            <path d="M50,21 L0,21 L0,22 L50,22 L50,21 Z M259,21 L310,21 L310,22 L259,22 L259,21 Z" id="line" fill="#BBBBBB" sketch:type="MSShapeGroup"></path>
            <path d="M75.72,16.64 C74.2,15.48 71.2,13.84 68.72,12.8 L68.04,13.72 C70.52,14.8 73.48,16.48 75.08,17.72 L75.72,16.64 Z M70.24,35.92 C72.24,32.56 74.76,27.56 76.52,23.64 L75.6,22.84 C73.68,27 71.04,32.16 69.2,35.08 L70.24,35.92 Z M70.48,2.64 C72.88,3.92 75.72,5.92 77.2,7.28 L77.92,6.32 C76.52,5 73.6,3.08 71.24,1.8 L70.48,2.64 Z M104.04,7.24 L104.04,6.08 L84.16,6.08 C84.96,4.52 85.64,2.88 86.2,1.16 L85.08,0.88 C83.52,5.6 80.96,10.08 77.84,13 C78.16,13.2 78.68,13.56 78.88,13.76 C80.6,12 82.2,9.76 83.56,7.24 L104.04,7.24 Z M100.72,12.76 L100.72,11.6 L82.56,11.6 L82.56,12.76 L100.72,12.76 Z M79.08,17.28 L79.08,18.44 L97.88,18.44 C98.12,29.48 98.44,36.88 102.16,36.92 C103.76,36.88 104.08,35.4 104.24,30.48 C103.96,30.4 103.52,30.2 103.24,30 C103.16,33.32 102.96,35.8 102.24,35.8 C99.56,35.8 99.12,27.36 99,17.28 L79.08,17.28 Z M143.28,27.32 L128.08,27.32 L128.08,19.56 L140.04,19.56 L140.04,18.4 L128.08,18.4 L128.08,11.44 L126.92,11.44 L126.92,18.4 L114.52,18.4 C116.52,15.4 118.48,11.76 120.32,7.92 L142.64,7.92 L142.64,6.76 L120.88,6.76 C121.72,4.92 122.52,3.04 123.28,1.2 L122.08,0.76 C121.4,2.76 120.48,4.84 119.64,6.76 L109.44,6.76 L109.44,7.92 L119.08,7.92 C117.36,11.48 115.72,14.44 115,15.52 C114,17.36 113.12,18.72 112.48,18.84 C112.64,19.16 112.84,19.76 112.92,20.08 C113.36,19.76 114.28,19.56 116.92,19.56 L126.92,19.56 L126.92,27.32 L109.04,27.32 L109.04,28.48 L126.92,28.48 L126.92,36.88 L128.08,36.88 L128.08,28.48 L143.28,28.48 L143.28,27.32 Z M146.44,41.04 L147.84,41.04 L161.8,2.72 L160.44,2.72 L146.44,41.04 Z M192.64,18.16 L192.64,11.36 C194.32,13.72 196.96,16.28 199.12,17.64 C199.36,17.32 199.68,16.92 200,16.68 C197.76,15.52 195.16,13.04 193.52,10.68 L199.16,10.68 L199.16,9.52 L192.64,9.52 L192.64,6.2 L191.48,6.2 L191.48,9.52 L185.36,9.52 L185.36,10.68 L190.72,10.68 C189.12,13.08 186.4,15.48 184.08,16.6 C184.4,16.84 184.72,17.24 184.96,17.52 C187.2,16.24 189.8,13.84 191.48,11.48 L191.48,18.16 L192.64,18.16 Z M184.36,10.68 L184.36,9.52 L177.96,9.52 L177.96,6.2 L176.8,6.2 L176.8,9.52 L170.2,9.52 L170.2,10.68 L176.16,10.68 C174.48,13.2 171.72,15.72 169.28,16.92 C169.56,17.16 169.96,17.56 170.16,17.84 C172.44,16.52 175.08,14.08 176.8,11.6 L176.8,18.52 L177.96,18.52 L177.96,12.12 C179.52,13.24 182,15.04 182.8,15.8 L183.68,14.88 C182.84,14.2 179.2,11.8 177.96,11.04 L177.96,10.68 L184.36,10.68 Z M199.68,5.4 L199.68,4.24 L184.6,4.24 C184.28,3.24 183.52,1.72 182.92,0.56 L181.84,0.92 C182.4,1.92 182.96,3.24 183.36,4.24 L166.84,4.24 L166.84,16.4 C166.84,22.24 166.56,30.24 163.6,36.16 C163.88,36.32 164.36,36.64 164.56,36.92 C167.6,30.8 168,22.36 168,16.4 L168,5.4 L199.68,5.4 Z M185.08,25.52 L197.76,25.52 L197.76,24.36 L185.08,24.36 L185.08,20.84 C189.04,20.48 192.68,19.96 195.32,19.36 L194.16,18.44 C189.48,19.6 179.8,20.32 172.16,20.6 C172.32,20.88 172.48,21.28 172.52,21.6 C176.12,21.48 180.12,21.28 183.92,20.96 L183.92,24.36 L171.48,24.36 L171.48,25.52 L183.92,25.52 L183.92,29.2 L169.2,29.2 L169.2,30.36 L183.92,30.36 L183.92,34.96 C183.92,35.52 183.72,35.72 183.04,35.76 C182.36,35.8 180.04,35.8 177,35.76 C177.2,36.12 177.36,36.52 177.44,36.84 C181,36.84 182.92,36.84 183.88,36.64 C184.8,36.4 185.08,36 185.08,34.92 L185.08,30.36 L199.72,30.36 L199.72,29.2 L185.08,29.2 L185.08,25.52 Z M216.84,18.64 C214.88,19.28 212.96,19.88 211.12,20.48 L211.12,10.52 L216.8,10.52 L216.8,9.36 L211.12,9.36 L211.12,0.8 L209.96,0.8 L209.96,9.36 L204.04,9.36 L204.04,10.52 L209.96,10.52 L209.96,20.88 C207.52,21.6 205.32,22.28 203.56,22.8 L204.08,24 C205.8,23.48 207.8,22.8 209.96,22.08 L209.96,34.6 C209.96,35.2 209.72,35.36 209.16,35.4 C208.68,35.4 206.88,35.44 204.68,35.36 C204.88,35.72 205.08,36.2 205.16,36.52 C207.84,36.52 209.24,36.52 210,36.28 C210.72,36.08 211.12,35.68 211.12,34.56 L211.12,21.72 L217,19.76 L216.84,18.64 Z M230.36,34.6 C228.64,34.6 228.28,34.24 228.28,32.76 L228.28,18.8 L239.6,17.08 L239.4,15.96 L228.28,17.64 L228.28,5.32 C231.48,4.44 234.48,3.52 236.68,2.48 L235.56,1.6 C231.84,3.48 224.4,5.24 218.2,6.4 C218.36,6.68 218.56,7.08 218.64,7.36 C221.4,6.84 224.32,6.28 227.12,5.6 L227.12,17.8 L217.8,19.24 L218,20.32 L227.12,18.96 L227.12,32.72 C227.12,35.2 227.84,35.76 230.4,35.76 L236.8,35.76 C239.44,35.76 239.76,34.12 239.96,28.64 C239.6,28.56 239.16,28.32 238.8,28.04 C238.64,33.36 238.4,34.6 236.84,34.6 L230.36,34.6 Z" id="汽车/摩托" fill="#444444" sketch:type="MSShapeGroup"></path>
        </g>
    </g>
</svg>