<?xml version="1.0" encoding="UTF-8" standalone="no"?>
<svg width="410px" height="50px" viewBox="0 0 410 50" version="1.1" xmlns="http://www.w3.org/2000/svg" xmlns:xlink="http://www.w3.org/1999/xlink" xmlns:sketch="http://www.bohemiancoding.com/sketch/ns">
    <!-- Generator: Sketch 3.4 (15575) - http://www.bohemiancoding.com/sketch -->
    <title>img_category_heading_diy_crafts</title>
    <desc>Created with Sketch.</desc>
    <defs></defs>
    <g id="spec" stroke="none" stroke-width="1" fill="none" fill-rule="evenodd" sketch:type="MSPage">
        <g id="heading_item" sketch:type="MSLayerGroup" transform="translate(50.000000, 6.000000)">
            <path d="M50,21 L0,21 L0,22 L50,22 L50,21 Z M259,21 L310,21 L310,22 L259,22 L259,21 Z" id="line" fill="#BBBBBB" sketch:type="MSShapeGroup"></path>
            <path d="M103.84,21.68 L86.68,21.68 L86.68,13.4 L101.68,13.4 L101.68,12.24 L86.68,12.24 L86.68,4.4 C91.72,3.8 96.4,3 99.52,1.88 L98.56,0.96 C92.96,3 80.64,4.08 71.24,4.6 C71.36,4.88 71.52,5.32 71.56,5.64 C75.96,5.44 80.84,5.08 85.52,4.56 L85.52,12.24 L70.96,12.24 L70.96,13.4 L85.52,13.4 L85.52,21.68 L68.4,21.68 L68.4,22.84 L85.52,22.84 L85.52,34.24 C85.52,35.08 85.2,35.36 84.32,35.4 C83.44,35.44 80.44,35.48 76.72,35.4 C76.92,35.76 77.12,36.24 77.24,36.56 C81.64,36.6 83.96,36.6 85.04,36.36 C86.12,36.12 86.68,35.64 86.68,34.2 L86.68,22.84 L103.84,22.84 L103.84,21.68 Z M126.64,32.28 L126.64,6.84 L142,6.84 L142,5.68 L110.44,5.68 L110.44,6.84 L125.48,6.84 L125.48,32.28 L108.48,32.28 L108.48,33.44 L143.76,33.44 L143.76,32.28 L126.64,32.28 Z M146.44,41.04 L147.84,41.04 L161.8,2.72 L160.44,2.72 L146.44,41.04 Z M199.24,8.56 L199.24,7.4 L177.68,7.4 C178.6,5.32 179.44,3.24 180.08,1.12 L178.88,0.8 C178.2,3 177.4,5.24 176.4,7.4 L164.64,7.4 L164.64,8.56 L175.84,8.56 C173.04,14.32 169,19.68 163.72,23.44 C164,23.64 164.32,24.04 164.52,24.28 C167,22.52 169.24,20.4 171.16,18.04 L171.16,32.96 L172.32,32.96 L172.32,18.32 L183.04,18.32 L183.04,36.92 L184.2,36.92 L184.2,18.32 L195.6,18.32 L195.6,30.52 C195.6,31.16 195.4,31.32 194.68,31.36 C193.96,31.4 191.48,31.44 188.2,31.36 C188.44,31.72 188.64,32.08 188.72,32.4 C192.56,32.44 194.64,32.44 195.56,32.2 C196.48,31.96 196.76,31.52 196.76,30.52 L196.76,17.16 L184.2,17.16 L184.2,10.96 L183.04,10.96 L183.04,17.16 L171.88,17.16 C173.92,14.48 175.68,11.6 177.16,8.56 L199.24,8.56 Z M214.16,34.64 C211.76,34.64 210.12,34 210.12,32.68 C210.12,31.16 211.44,28.76 231.36,15.2 C231.52,15.12 231.68,15.04 231.76,14.96 L230.88,14.44 L230.6,14.52 L230.6,14.48 L208.36,14.48 L208.36,15.64 L228.68,15.64 C209.6,28.48 208.92,30.92 208.92,32.72 C208.92,34.68 210.6,35.8 214.4,35.8 L233.96,35.8 C237.12,35.8 237.84,34.88 238.16,28.96 C237.8,28.88 237.32,28.68 237,28.48 C236.8,33.72 236.32,34.64 234,34.64 L214.16,34.64 Z M229.16,5.52 L229.16,0.76 L228,0.76 L228,5.52 L215.64,5.52 L215.64,0.76 L214.48,0.76 L214.48,5.52 L204.48,5.52 L204.48,6.68 L214.48,6.68 L214.48,11 L215.64,11 L215.64,6.68 L228,6.68 L228,11 L229.16,11 L229.16,6.68 L238.52,6.68 L238.52,5.52 L229.16,5.52 Z" id="手工/布艺" fill="#444444" sketch:type="MSShapeGroup"></path>
        </g>
    </g>
</svg>