<?xml version="1.0" encoding="UTF-8" standalone="no"?>
<svg width="410px" height="50px" viewBox="0 0 410 50" version="1.1" xmlns="http://www.w3.org/2000/svg" xmlns:xlink="http://www.w3.org/1999/xlink" xmlns:sketch="http://www.bohemiancoding.com/sketch/ns">
    <!-- Generator: Sketch 3.4 (15575) - http://www.bohemiancoding.com/sketch -->
    <title>img_category_heading_education</title>
    <desc>Created with Sketch.</desc>
    <defs></defs>
    <g id="spec" stroke="none" stroke-width="1" fill="none" fill-rule="evenodd" sketch:type="MSPage">
        <g id="heading_item" sketch:type="MSLayerGroup" transform="translate(92.000000, 6.000000)">
            <path d="M48,21 L0,21 L0,22 L48,22 L48,21 Z M174,21 L220,21 L220,22 L174,22 L174,21 Z" id="line" fill="#BBBBBB" sketch:type="MSShapeGroup"></path>
            <path d="M93.64,24.76 C90.4,25.2 87.12,25.64 84.08,26.04 L84.08,23 C86.48,21.68 89.24,19.56 91,17.48 L90.16,16.92 L89.92,17 L83.88,17 C85.04,15.8 86.16,14.48 87.16,13.12 L93.2,13.12 L93.2,11.96 L88.04,11.96 C90.12,8.96 91.88,5.68 93.32,2.04 L92.16,1.68 C90.68,5.44 88.8,8.92 86.56,11.96 L82.96,11.96 L82.96,6.72 L89,6.72 L89,5.56 L82.96,5.56 L82.96,0.76 L81.8,0.76 L81.8,5.56 L75.76,5.56 L75.76,6.72 L81.8,6.72 L81.8,11.96 L73.96,11.96 L73.96,13.12 L85.68,13.12 C84.6,14.48 83.44,15.8 82.24,17 L77.08,17 L77.08,18.16 L80.96,18.16 C78.84,20.08 76.52,21.84 73.96,23.24 C74.28,23.48 74.8,23.92 74.96,24.16 C77.76,22.44 80.36,20.44 82.68,18.16 L88.8,18.16 C87.2,19.72 84.96,21.44 82.88,22.52 L82.92,22.56 L82.92,26.16 C79.48,26.6 76.36,26.96 74.04,27.24 L74.24,28.44 L82.92,27.32 L82.92,35.08 C82.92,35.56 82.8,35.68 82.24,35.72 C81.68,35.76 80,35.8 77.6,35.72 C77.84,36.12 78,36.52 78.08,36.88 C80.68,36.88 82.28,36.88 83.08,36.64 C83.84,36.4 84.08,36.04 84.08,35.08 L84.08,27.16 C87.16,26.76 90.44,26.36 93.64,25.96 L93.64,24.76 Z M106.08,9.56 C105.04,15.92 103.56,21.12 101.16,25.4 C99.08,20.96 97.64,15.68 96.72,9.96 C96.76,9.84 96.8,9.68 96.8,9.56 L106.08,9.56 Z M110.08,9.56 L110.08,8.4 L97.2,8.4 C97.92,6.04 98.56,3.56 99.04,1 L97.84,0.8 C96.56,7.56 94.4,14.08 91.28,18.32 C91.6,18.48 92.16,18.84 92.4,19.04 C93.72,17.04 94.92,14.64 95.96,12 C96.96,17.44 98.44,22.36 100.48,26.6 C98,30.52 94.64,33.64 90.04,35.92 C90.32,36.16 90.72,36.64 90.88,36.92 C95.28,34.6 98.6,31.6 101.08,27.8 C103.24,31.76 105.96,34.88 109.36,36.88 C109.56,36.52 109.96,36.16 110.28,35.92 C106.72,34.04 103.96,30.8 101.8,26.64 C104.52,22.12 106.2,16.52 107.32,9.56 L110.08,9.56 Z M121.88,28.28 L121.88,23.92 L142.52,23.92 L142.52,28.28 L121.88,28.28 Z M142.52,18.4 L142.52,22.76 L121.88,22.76 L121.88,18.4 L142.52,18.4 Z M143.68,17.24 L120.72,17.24 L120.72,36.88 L121.88,36.88 L121.88,29.44 L142.52,29.44 L142.52,34.76 C142.52,35.44 142.32,35.64 141.52,35.68 C140.76,35.76 138.08,35.76 134.64,35.68 C134.84,36.04 135.08,36.48 135.16,36.8 C139.16,36.8 141.36,36.84 142.36,36.6 C143.36,36.36 143.68,35.88 143.68,34.76 L143.68,17.24 Z M149.48,6.52 L149.48,5.36 L133.8,5.36 C133.16,4.08 131.96,2.2 131,0.76 L129.88,1.12 C130.76,2.4 131.76,4.12 132.44,5.36 L114.72,5.36 L114.72,6.52 L127.36,6.52 C124.88,9.08 121.88,11.44 120.96,12.04 C119.96,12.76 119.12,13.24 118.44,13.28 C118.64,13.64 118.8,14.32 118.88,14.64 C119.84,14.28 121.48,14.16 142.84,12.88 C144.32,14.12 145.6,15.28 146.56,16.16 L147.4,15.36 C145.08,13.24 140.64,9.64 137.16,7.04 L136.28,7.64 C137.96,8.92 139.84,10.4 141.56,11.88 L121.4,12.96 C123.92,11.28 126.56,9.04 129.12,6.52 L149.48,6.52 Z" id="教育" fill="#444444" sketch:type="MSShapeGroup"></path>
        </g>
    </g>
</svg>