<?xml version="1.0" encoding="UTF-8" standalone="no"?>
<svg width="410px" height="50px" viewBox="0 0 410 50" version="1.1" xmlns="http://www.w3.org/2000/svg" xmlns:xlink="http://www.w3.org/1999/xlink" xmlns:sketch="http://www.bohemiancoding.com/sketch/ns">
    <!-- Generator: Sketch 3.4 (15575) - http://www.bohemiancoding.com/sketch -->
    <title>img_category_heading_film_music_books</title>
    <desc>Created with Sketch.</desc>
    <defs></defs>
    <g id="spec" stroke="none" stroke-width="1" fill="none" fill-rule="evenodd" sketch:type="MSPage">
        <g id="heading_item" sketch:type="MSLayerGroup" transform="translate(50.000000, 6.000000)">
            <path d="M73,24.4 L73,16.56 L85.08,16.56 L85.08,24.4 L73,24.4 Z M85.08,7.8 L85.08,15.4 L73,15.4 L73,7.8 L85.08,7.8 Z M99.04,7.8 L99.04,15.4 L86.24,15.4 L86.24,7.8 L99.04,7.8 Z M86.24,24.4 L86.24,16.56 L99.04,16.56 L99.04,24.4 L86.24,24.4 Z M89.44,34.72 C86.84,34.72 86.24,34.12 86.24,31.96 L86.24,25.56 L100.2,25.56 L100.2,6.64 L86.24,6.64 L86.24,0.68 L85.08,0.68 L85.08,6.64 L71.76,6.64 L71.76,28.16 L73,28.16 L73,25.56 L85.08,25.56 L85.08,31.88 C85.08,35.16 86.12,35.88 89.56,35.88 L99.64,35.88 C103.32,35.88 103.72,33.96 104.08,28.12 C103.68,28 103.24,27.8 102.88,27.52 C102.6,33.2 102.2,34.72 99.8,34.72 L89.44,34.72 Z M140.68,1.72 C138.24,4.92 133.92,8.48 130.28,10.56 C130.64,10.76 130.96,11.12 131.24,11.4 C134.84,9.24 139.16,5.6 141.8,2.2 L140.68,1.72 Z M142.36,12.44 C139.56,16 134.6,19.68 130.24,21.8 C130.56,22.04 130.88,22.36 131.12,22.64 C135.52,20.44 140.52,16.64 143.44,12.92 L142.36,12.44 Z M126.68,6.72 L112.28,6.72 L112.28,3.4 L126.68,3.4 L126.68,6.72 Z M126.68,11.32 L112.28,11.32 L112.28,7.88 L126.68,7.88 L126.68,11.32 Z M127.84,2.24 L111.12,2.24 L111.12,12.48 L127.84,12.48 L127.84,2.24 Z M129.24,15.8 L120.04,15.8 C119.6,14.88 118.96,13.72 118.4,12.92 L117.4,13.32 C117.84,14.04 118.4,14.96 118.8,15.8 L108.96,15.8 L108.96,16.96 L129.24,16.96 L129.24,15.8 Z M113,28.36 C112.04,30.56 110.52,32.64 108.76,34.2 C109.08,34.36 109.6,34.76 109.8,34.92 C111.48,33.36 113.16,30.96 114.16,28.64 L113,28.36 Z M112.32,20.88 L126.36,20.88 L126.36,25.52 L112.32,25.52 L112.32,20.88 Z M127.52,26.68 L127.52,19.72 L111.16,19.72 L111.16,26.68 L118.76,26.68 L118.76,34.8 C118.76,35.16 118.68,35.32 118.16,35.32 C117.68,35.36 116.24,35.36 114.12,35.32 C114.36,35.68 114.56,36.08 114.64,36.44 C116.96,36.44 118.32,36.44 119.04,36.2 C119.72,35.96 119.92,35.64 119.92,34.76 L119.92,26.68 L127.52,26.68 Z M123.36,28.8 C124.92,30.48 126.6,32.8 127.4,34.24 L128.36,33.6 C127.56,32.16 125.84,29.92 124.32,28.24 L123.36,28.8 Z M143.28,24.36 C140.24,28.96 134.48,33.4 128.68,35.84 C128.96,36 129.32,36.4 129.56,36.68 C135.4,34.2 141.16,29.64 144.32,24.84 L143.28,24.36 Z M146.44,41.04 L147.84,41.04 L161.8,2.72 L160.44,2.72 L146.44,41.04 Z M173.28,27.48 C178.76,28.16 185.72,29.8 189.44,31.04 L190,29.96 C186.32,28.68 179.28,27.12 173.92,26.44 L173.28,27.48 Z M177.6,22.4 C180.68,23.08 184.56,24.44 186.64,25.52 L187.24,24.44 C185.16,23.44 181.24,22.08 178.2,21.48 L177.6,22.4 Z M189.04,10 C187.36,12.24 185,14.2 182.24,15.84 C179.84,14.36 177.76,12.68 176.32,10.8 C176.56,10.52 176.76,10.28 177,10 L189.04,10 Z M190.12,8.76 L189.88,8.84 L178,8.84 C178.72,7.92 179.36,7 179.92,6.04 L178.76,5.68 C176.68,9.28 173.2,12.56 169.68,14.76 C170,14.96 170.48,15.36 170.68,15.52 C172.32,14.44 174,13.12 175.56,11.52 C177,13.32 178.96,15 181.24,16.4 C177.32,18.56 172.84,20.08 168.84,20.92 C169.08,21.16 169.36,21.64 169.52,21.92 C173.64,21 178.28,19.4 182.28,17.04 C185.84,19.12 190.04,20.68 194.16,21.56 C194.32,21.2 194.64,20.76 194.92,20.52 C190.84,19.76 186.76,18.36 183.28,16.44 C186.44,14.48 189.16,12.08 190.88,9.28 L190.12,8.76 Z M166.92,33.76 L166.92,3.92 L196.92,3.92 L196.92,33.76 L166.92,33.76 Z M165.76,2.76 L165.76,36.84 L166.92,36.84 L166.92,34.92 L196.92,34.92 L196.92,36.84 L198.08,36.84 L198.08,2.76 L165.76,2.76 Z M239.48,8 C238,6.56 235.04,4.2 232.64,2.56 L231.84,3.28 C234.28,5 237.2,7.36 238.68,8.88 L239.48,8 Z M221.12,9.28 L232.24,9.28 L232.24,18.92 L221.12,18.92 L221.12,9.28 Z M233.4,18.92 L233.4,8.12 L221.12,8.12 L221.12,0.96 L219.96,0.96 L219.96,8.12 L207.56,8.12 L207.56,9.28 L219.96,9.28 L219.96,18.92 L204.48,18.92 L204.48,20.08 L219.96,20.08 L219.96,36.92 L221.12,36.92 L221.12,20.08 L237.92,20.08 C237.36,27.32 236.8,30.16 235.96,30.92 C235.6,31.24 235.2,31.28 234.36,31.28 C233.56,31.28 231,31.28 228.36,31 C228.6,31.36 228.72,31.84 228.76,32.2 C231.16,32.36 233.52,32.44 234.6,32.4 C235.72,32.36 236.32,32.2 236.88,31.64 C237.96,30.6 238.52,27.68 239.12,19.68 C239.16,19.44 239.2,18.92 239.2,18.92 L233.4,18.92 Z" id="电影/图书" fill="#444444" sketch:type="MSShapeGroup"></path>
            <path d="M50,21 L0,21 L0,22 L50,22 L50,21 Z M259,21 L310,21 L310,22 L259,22 L259,21 Z" id="line" fill="#BBBBBB" sketch:type="MSShapeGroup"></path>
        </g>
    </g>
</svg>