<?xml version="1.0" encoding="UTF-8" standalone="no"?>
<svg width="410px" height="50px" viewBox="0 0 410 50" version="1.1" xmlns="http://www.w3.org/2000/svg" xmlns:xlink="http://www.w3.org/1999/xlink" xmlns:sketch="http://www.bohemiancoding.com/sketch/ns">
    <!-- Generator: Sketch 3.4 (15575) - http://www.bohemiancoding.com/sketch -->
    <title>img_category_heading_funny</title>
    <desc>Created with Sketch.</desc>
    <defs></defs>
    <g id="spec" stroke="none" stroke-width="1" fill="none" fill-rule="evenodd" sketch:type="MSPage">
        <g id="heading_item" sketch:type="MSLayerGroup" transform="translate(92.000000, 6.000000)">
            <path d="M48,21 L0,21 L0,22 L48,22 L48,21 Z M174,21 L220,21 L220,22 L174,22 L174,21 Z" id="line" fill="#BBBBBB" sketch:type="MSShapeGroup"></path>
            <path d="M80.84,0.8 L79.68,0.8 L79.68,9.36 L73.88,9.36 L73.88,10.52 L79.68,10.52 L79.68,20.84 C77.28,21.72 75.04,22.48 73.36,23.04 L73.88,24.24 C75.56,23.64 77.56,22.92 79.68,22.12 L79.68,34.96 C79.68,35.56 79.44,35.72 78.92,35.72 C78.48,35.76 76.76,35.76 74.76,35.72 C74.92,36.08 75.12,36.56 75.2,36.84 C77.72,36.88 79.04,36.84 79.76,36.64 C80.48,36.4 80.84,36.04 80.84,34.96 L80.84,21.72 L85.4,20.08 L85.2,18.88 L80.84,20.44 L80.84,10.52 L85.6,10.52 L85.6,9.36 L80.84,9.36 L80.84,0.8 Z M108.24,19.96 L87.52,19.96 L87.52,36.84 L88.68,36.84 L88.68,21.12 L107.08,21.12 L107.08,35.28 C107.08,35.72 106.92,35.84 106.48,35.84 C106.04,35.88 104.48,35.88 102.6,35.84 C102.76,36.16 102.96,36.56 103.04,36.84 C105.4,36.88 106.72,36.88 107.4,36.64 C108.04,36.44 108.24,36.08 108.24,35.28 L108.24,19.96 Z M102.08,30.68 L93.44,30.68 L93.44,25.44 L102.08,25.44 L102.08,30.68 Z M103.24,24.28 L92.28,24.28 L92.28,31.84 L103.24,31.84 L103.24,24.28 Z M104.32,15.64 L91.08,15.64 L91.08,10.52 L104.32,10.52 L104.32,15.64 Z M89.92,9.36 L89.92,16.8 L105.48,16.8 L105.48,9.36 L89.92,9.36 Z M98.28,5.12 C97.88,3.8 97.04,2.04 96.24,0.64 L95.32,0.88 C96.12,2.16 96.8,3.84 97.28,5.12 L86.64,5.12 L86.64,6.28 L109.24,6.28 L109.24,5.12 L98.28,5.12 Z M138.2,6.48 C139.56,8.36 140.92,10.76 141.52,12.32 L142.6,11.84 C142.08,10.4 140.8,8.24 139.56,6.48 L149.52,6.48 L149.52,5.32 L135,5.32 C135.6,3.96 136.08,2.48 136.44,1 L135.28,0.76 C134.16,5.16 132.16,9.24 129.52,11.96 C129.84,12.16 130.36,12.52 130.56,12.72 C132.04,11.04 133.4,8.92 134.48,6.48 L138.2,6.48 Z M121.96,6.32 C123.08,8.32 124.16,10.92 124.56,12.52 L125.68,12.08 C125.28,10.6 124.28,8.24 123.28,6.32 L131.92,6.32 L131.92,5.16 L119.92,5.16 C120.52,3.8 121.04,2.32 121.4,0.84 L120.24,0.6 C119.04,5.16 116.92,9.32 114.08,12.16 C114.4,12.28 114.92,12.68 115.16,12.88 C116.76,11.12 118.24,8.88 119.4,6.32 L121.96,6.32 Z M149.76,22.4 L131.88,22.4 C132.6,20.2 133,17.84 133.32,15.44 C138.4,14.84 143.08,14.08 146.32,13.08 L145.44,12.08 C139.4,13.92 126.88,15.12 117.12,15.76 C117.28,16.04 117.44,16.48 117.44,16.8 C122.04,16.52 127.24,16.16 132.12,15.6 C131.8,17.92 131.36,20.24 130.64,22.4 L114.44,22.4 L114.44,23.56 L130.24,23.56 C128.08,28.96 123.8,33.48 114.4,35.72 C114.6,35.96 114.96,36.44 115.08,36.72 C124.88,34.32 129.28,29.48 131.48,23.56 L132.28,23.56 C135.28,30.04 141.52,34.8 148.64,36.92 C148.84,36.56 149.2,36.16 149.52,35.88 C142.52,34 136.6,29.56 133.64,23.56 L149.76,23.56 L149.76,22.4 Z" id="搞笑" fill="#444444" sketch:type="MSShapeGroup"></path>
        </g>
    </g>
</svg>