<?xml version="1.0" encoding="UTF-8" standalone="no"?>
<svg width="410px" height="50px" viewBox="0 0 410 50" version="1.1" xmlns="http://www.w3.org/2000/svg" xmlns:xlink="http://www.w3.org/1999/xlink" xmlns:sketch="http://www.bohemiancoding.com/sketch/ns">
    <!-- Generator: Sketch 3.4 (15575) - http://www.bohemiancoding.com/sketch -->
    <title>img_category_heading_games</title>
    <desc>Created with Sketch.</desc>
    <defs></defs>
    <g id="spec" stroke="none" stroke-width="1" fill="none" fill-rule="evenodd" sketch:type="MSPage">
        <g id="heading_item" sketch:type="MSLayerGroup" transform="translate(92.000000, 6.000000)">
            <path d="M48,21 L0,21 L0,22 L48,22 L48,21 Z M174,21 L220,21 L220,22 L174,22 L174,21 Z" id="line" fill="#BBBBBB" sketch:type="MSShapeGroup"></path>
            <path d="M90.96,6.56 C90.2,5 88.56,2.76 87,1.08 L85.96,1.6 C87.44,3.28 89.12,5.64 89.8,7.16 L90.96,6.56 Z M82.72,5.8 C81.36,4.6 78.64,2.68 76.44,1.36 L75.72,2.12 C77.92,3.48 80.6,5.44 81.96,6.76 L82.72,5.8 Z M81.52,16.08 C79.96,14.92 77,13.28 74.6,12.16 L73.96,13 C76.32,14.16 79.32,15.92 80.88,17.08 L81.52,16.08 Z M80.08,22.8 C78.6,27.12 76.4,32.4 74.88,35.52 L76,36.24 C77.6,32.76 79.68,27.56 81.04,23.52 L80.08,22.8 Z M94.2,16.16 L87.68,16.16 C87.84,13.84 87.88,11.48 87.96,9.12 L96.16,9.12 L96.16,7.96 L82.2,7.96 L82.2,9.12 L86.8,9.12 C86.6,19.6 85.88,30.72 80.2,36.2 C80.52,36.28 81.04,36.64 81.28,36.84 C85.6,32.52 87.08,25.28 87.6,17.32 L93.04,17.32 C92.8,29.68 92.48,34 91.8,34.84 C91.48,35.28 91.16,35.32 90.52,35.32 C89.96,35.32 88.08,35.28 86.12,35.12 C86.32,35.48 86.4,35.92 86.44,36.28 C88.12,36.4 89.88,36.44 90.76,36.4 C91.76,36.4 92.32,36.16 92.8,35.56 C93.68,34.32 93.92,30.28 94.2,16.96 L94.2,16.16 Z M103.56,19.28 C105.6,18 107.96,16.04 109.52,14.08 L108.64,13.52 L108.44,13.6 L97.48,13.6 L97.48,14.76 L107.36,14.76 C106.04,16.24 104.12,17.76 102.4,18.76 L102.4,23 L95.24,23 L95.24,24.16 L102.4,24.16 L102.4,35 C102.4,35.52 102.28,35.68 101.68,35.68 C101.12,35.76 99.32,35.76 96.88,35.68 C97.08,36.08 97.32,36.52 97.4,36.88 C100.04,36.88 101.68,36.88 102.52,36.64 C103.32,36.4 103.56,36 103.56,35 L103.56,24.16 L110.12,24.16 L110.12,23 L103.56,23 L103.56,19.28 Z M99.4,6.72 C100,4.92 100.56,2.96 101,0.96 L99.8,0.76 C98.88,5.44 97.28,9.88 94.96,12.92 C95.28,13.08 95.76,13.4 96,13.56 C97.12,12 98.08,10.04 98.96,7.88 L110.12,7.88 L110.12,6.72 L99.4,6.72 Z M147.4,6.56 C146.24,4.96 143.76,2.8 141.48,1.36 L140.64,2.08 C142.88,3.56 145.4,5.8 146.56,7.4 L147.4,6.56 Z M128.12,5.64 L127.88,5.72 L114.52,5.72 L114.52,6.88 L127.52,6.88 C126.72,12.04 125.32,16.64 123.48,20.48 C121.2,16.96 118.64,13.24 116.36,10 L115.32,10.68 C117.76,14.08 120.48,18.12 122.8,21.88 C120.24,26.84 116.92,30.52 113.48,32.6 C113.8,32.8 114.2,33.28 114.4,33.6 C117.8,31.4 121,27.88 123.6,23.08 C125.36,25.96 126.92,28.56 128,30.56 L129.12,29.72 C127.96,27.64 126.28,24.76 124.32,21.72 C126.4,17.4 128.04,12.08 128.88,5.92 L128.12,5.64 Z M146.08,15.28 C144.72,19.16 142.6,23.08 139.96,26.52 C138.84,22.8 137.92,18.2 137.32,13 L149.44,11.68 L149.28,10.52 L137.16,11.88 C136.8,8.44 136.48,4.84 136.32,1.08 L135.16,1.08 C135.36,4.84 135.68,8.52 136.04,12.04 L129.24,12.76 L129.4,13.92 L136.16,13.16 C136.84,18.68 137.76,23.72 139.04,27.68 C136.4,30.88 133.36,33.6 130.2,35.28 C130.52,35.52 130.88,35.88 131.12,36.2 C134.12,34.52 136.96,31.96 139.52,28.96 C141.28,33.88 143.64,36.92 146.76,37.04 C148.44,37.12 149.44,35 150.08,29.36 C149.76,29.28 149.32,29.08 149.08,28.88 C148.6,33.32 147.88,35.8 146.72,35.72 C144.16,35.56 142.04,32.64 140.4,27.84 C143.24,24.24 145.6,20.04 147.08,15.84 L146.08,15.28 Z" id="游戏" fill="#444444" sketch:type="MSShapeGroup"></path>
        </g>
    </g>
</svg>