<?xml version="1.0" encoding="UTF-8" standalone="no"?>
<svg width="410px" height="50px" viewBox="0 0 410 50" version="1.1" xmlns="http://www.w3.org/2000/svg" xmlns:xlink="http://www.w3.org/1999/xlink" xmlns:sketch="http://www.bohemiancoding.com/sketch/ns">
    <!-- Generator: Sketch 3.4 (15575) - http://www.bohemiancoding.com/sketch -->
    <title>img_category_heading_industrial_design</title>
    <desc>Created with Sketch.</desc>
    <defs></defs>
    <g id="spec" stroke="none" stroke-width="1" fill="none" fill-rule="evenodd" sketch:type="MSPage">
        <g id="heading_item" sketch:type="MSLayerGroup" transform="translate(126.000000, 6.000000)" fill="#444444">
            <path d="M18.56,32.28 L18.56,6.84 L33.92,6.84 L33.92,5.68 L2.36,5.68 L2.36,6.84 L17.4,6.84 L17.4,32.28 L0.4,32.28 L0.4,33.44 L35.68,33.44 L35.68,32.28 L18.56,32.28 Z M72.96,10.88 C71.2,14.84 68.08,20.48 65.72,24 L66.68,24.56 C69.12,20.96 72.04,15.6 74.08,11.4 L72.96,10.88 Z M49.36,23.64 C48.16,20.44 45.56,14.88 43.16,10.76 L42.04,11.08 C44.4,15.24 47.04,20.88 48.12,24.16 L49.36,23.64 Z M63.32,33.4 L63.32,1.36 L62.16,1.36 L62.16,33.4 L53.96,33.4 L53.96,1.24 L52.8,1.24 L52.8,33.4 L40.76,33.4 L40.76,34.56 L75.36,34.56 L75.36,33.4 L63.32,33.4 Z M99.68,3.6 L108.48,3.6 L108.48,12.2 C108.48,14.2 108.88,14.8 110.44,14.8 L113.92,14.8 C114.56,14.8 115.28,14.76 115.68,14.68 C115.6,14.4 115.52,13.84 115.48,13.52 C115.04,13.6 114.36,13.64 113.88,13.64 L110.4,13.64 C109.76,13.64 109.64,13.36 109.64,12.24 L109.64,2.44 L98.52,2.44 L98.52,6.92 C98.52,10.12 97.4,13.84 91.84,16.52 C92.08,16.72 92.44,17.2 92.6,17.48 C98.4,14.56 99.68,10.44 99.68,6.92 L99.68,3.6 Z M90.4,7.64 C89.2,6.08 86.72,3.56 84.56,1.8 L83.72,2.56 C85.84,4.4 88.36,6.92 89.56,8.6 L90.4,7.64 Z M87.72,32.64 L87.72,13.6 L80.08,13.6 L80.08,14.76 L86.56,14.76 L86.56,31.4 C86.56,33.16 85.16,34.36 84.56,34.72 C84.84,35 85.24,35.48 85.44,35.76 C85.92,35.16 86.76,34.6 93.56,30.36 C93.44,30.12 93.28,29.68 93.16,29.36 L87.72,32.64 Z M111.84,19.92 C110.2,24.04 107.4,27.44 104.04,30.12 C100.76,27.36 98.2,23.92 96.56,19.92 L111.84,19.92 Z M112.64,18.68 L112.44,18.76 L93.48,18.76 L93.48,19.92 L95.36,19.92 C97.08,24.24 99.68,27.92 103.04,30.84 C99.88,33.16 96.28,34.84 92.8,35.84 C93.08,36.12 93.4,36.56 93.52,36.92 C97.12,35.84 100.8,34.08 104.04,31.64 C107.24,34.12 110.96,35.96 115.24,37 C115.4,36.64 115.76,36.2 116.08,35.92 C111.84,34.96 108.12,33.2 105,30.84 C108.68,27.88 111.72,24 113.44,19.12 L112.64,18.68 Z M131.24,7.88 C130,6.2 127.44,3.64 125.2,1.8 L124.36,2.52 C126.56,4.4 129.16,7.12 130.44,8.8 L131.24,7.88 Z M128.2,32.24 L128.2,13.6 L120.16,13.6 L120.16,14.76 L127.04,14.76 L127.04,31.4 C127.04,33.08 125.88,34.04 125.32,34.4 C125.6,34.68 126,35.16 126.12,35.44 C126.64,34.8 127.48,34.2 134.44,29.4 C134.32,29.2 134.08,28.72 133.96,28.44 L128.2,32.24 Z M156,14.72 L144.92,14.72 L144.92,0.84 L143.76,0.84 L143.76,14.72 L133.04,14.72 L133.04,15.88 L143.76,15.88 L143.76,36.8 L144.92,36.8 L144.92,15.88 L156,15.88 L156,14.72 Z" id="工业设计" sketch:type="MSShapeGroup"></path>
        </g>
        <path d="M107,27 L67,27 L67,28 L107,28 L107,27 Z M303,27 L343,27 L343,28 L303,28 L303,27 Z" id="heading_item" fill="#BBBBBB" sketch:type="MSShapeGroup"></path>
    </g>
</svg>