<?xml version="1.0" encoding="UTF-8" standalone="no"?>
<svg width="410px" height="50px" viewBox="0 0 410 50" version="1.1" xmlns="http://www.w3.org/2000/svg" xmlns:xlink="http://www.w3.org/1999/xlink" xmlns:sketch="http://www.bohemiancoding.com/sketch/ns">
    <!-- Generator: Sketch 3.4 (15575) - http://www.bohemiancoding.com/sketch -->
    <title>img_category_heading_kids</title>
    <desc>Created with Sketch.</desc>
    <defs></defs>
    <g id="spec" stroke="none" stroke-width="1" fill="none" fill-rule="evenodd" sketch:type="MSPage">
        <g id="heading_item" sketch:type="MSLayerGroup" transform="translate(92.000000, 6.000000)">
            <path d="M48,21 L0,21 L0,22 L48,22 L48,21 Z M174,21 L220,21 L220,22 L174,22 L174,21 Z" id="line" fill="#BBBBBB" sketch:type="MSShapeGroup"></path>
            <path d="M98.32,2.36 L98.32,33.24 C98.32,35.92 98.96,36.52 101.4,36.52 L106.76,36.52 C109.64,36.52 109.92,34.28 110.12,27 C109.76,26.92 109.32,26.72 108.92,26.4 C108.76,33.48 108.56,35.32 106.8,35.32 L101.36,35.32 C99.84,35.32 99.48,34.96 99.48,33.28 L99.48,2.36 L98.32,2.36 Z M83,2.44 L83,15.56 C83,23.16 82.08,30.56 73.76,36.12 C74.08,36.32 74.44,36.68 74.64,36.92 C83.16,31.16 84.16,23.56 84.16,15.56 L84.16,2.44 L83,2.44 Z M147.28,4.32 L133.88,4.32 C133.36,3.28 132.36,1.72 131.48,0.52 L130.48,1.04 C131.2,2 131.96,3.28 132.52,4.32 L116.76,4.32 L116.76,5.48 L147.28,5.48 L147.28,4.32 Z M126.6,10.28 C126.12,9.04 124.92,7.12 123.76,5.72 L122.8,6.16 C123.88,7.56 125,9.52 125.52,10.8 L126.6,10.28 Z M119.92,25.08 L119.92,21.16 L131.4,21.16 L131.4,25.08 L119.92,25.08 Z M119.92,16.12 L131.4,16.12 L131.4,20 L119.92,20 L119.92,16.12 Z M144.04,20 L132.56,20 L132.56,16.12 L144.04,16.12 L144.04,20 Z M144.04,25.08 L132.56,25.08 L132.56,21.16 L144.04,21.16 L144.04,25.08 Z M132.56,30.92 L147.2,30.92 L147.2,29.76 L132.56,29.76 L132.56,26.24 L145.2,26.24 L145.2,14.96 L118.76,14.96 L118.76,26.24 L131.4,26.24 L131.4,29.76 L116.84,29.76 L116.84,30.92 L131.4,30.92 L131.4,34.64 L114,34.64 L114,35.8 L150.04,35.8 L150.04,34.64 L132.56,34.64 L132.56,30.92 Z M137.76,10.96 C138.76,9.6 139.96,7.84 140.88,6.28 L139.76,5.76 C139,7.24 137.6,9.48 136.44,10.96 L114,10.96 L114,12.12 L150.04,12.12 L150.04,10.96 L137.76,10.96 Z" id="儿童" fill="#444444" sketch:type="MSShapeGroup"></path>
        </g>
    </g>
</svg>