<?xml version="1.0" encoding="UTF-8" standalone="no"?>
<svg width="24px" height="144px" viewBox="0 0 24 144" version="1.1" xmlns="http://www.w3.org/2000/svg" xmlns:xlink="http://www.w3.org/1999/xlink" xmlns:sketch="http://www.bohemiancoding.com/sketch/ns">
    <!-- Generator: Sketch 3.0.4 (8053) - http://www.bohemiancoding.com/sketch -->
    <title>notice_icons_24</title>
    <desc>Created with Sketch.</desc>
    <defs></defs>
    <g id="UI-Kit" stroke="none" stroke-width="1" fill="none" fill-rule="evenodd" sketch:type="MSPage">
        <g id="Landscape" sketch:type="MSArtboardGroup" transform="translate(-20.000000, -20.000000)">
            <g id="icon/check-2" sketch:type="MSLayerGroup" transform="translate(20.000000, 20.000000)">
                <circle id="Oval-3" fill="#6BC00E" sketch:type="MSShapeGroup" cx="12" cy="12" r="12"></circle>
                <path d="M6.5,10.5156115 L5,9.01561146 L14.0156115,-2.66453526e-14 L19.8492424,5.83363094 L18.3492424,7.33363094 L14.0156115,3 L6.5,10.5156115 Z" id="Rectangle-12" fill="#FFFFFF" sketch:type="MSShapeGroup" transform="translate(12.500000, 9.000000) scale(-1, -1) translate(-12.500000, -9.000000) "></path>
            </g>
            <g id="icon/error-2" sketch:type="MSLayerGroup" transform="translate(20.000000, 140.000000)">
                <circle id="Oval-3" fill="#EC0000" sketch:type="MSShapeGroup" cx="12" cy="12" r="12"></circle>
                <path d="M12,10.5857864 L16.9497475,5.63603897 L18.363961,7.05025253 L13.4142136,12 L18.363961,16.9497475 L16.9497475,18.363961 L12,13.4142136 L7.05025253,18.363961 L5.63603897,16.9497475 L10.5857864,12 L5.63603897,7.05025253 L7.05025253,5.63603897 L12,10.5857864 L12,10.5857864 Z" id="Rectangle-45" fill="#FFFFFF" sketch:type="MSShapeGroup"></path>
            </g>
            <g id="icon/notice-2" sketch:type="MSLayerGroup" transform="translate(20.000000, 100.000000)">
                <circle id="Oval-3" fill="#F6A623" sketch:type="MSShapeGroup" cx="12" cy="12" r="12"></circle>
                <rect id="Rectangle-58" fill="#FFFFFF" sketch:type="MSShapeGroup" x="11" y="5" width="2" height="10"></rect>
                <rect id="Rectangle-59" fill="#FFFFFF" sketch:type="MSShapeGroup" x="11" y="17" width="2" height="2"></rect>
            </g>
            <g id="icon18/info-2" sketch:type="MSLayerGroup" transform="translate(20.000000, 60.000000)">
                <circle id="Oval-4" fill="#6EA7EA" sketch:type="MSShapeGroup" cx="12" cy="12" r="12"></circle>
                <rect id="Rectangle-59" fill="#FFFFFF" sketch:type="MSShapeGroup" x="11" y="10" width="2" height="10"></rect>
                <rect id="Rectangle-60" fill="#FFFFFF" sketch:type="MSShapeGroup" x="11" y="6" width="2" height="2"></rect>
            </g>
        </g>
    </g>
</svg>