<?xml version="1.0" encoding="UTF-8" standalone="no"?>
<svg width="410px" height="50px" viewBox="0 0 410 50" version="1.1" xmlns="http://www.w3.org/2000/svg" xmlns:xlink="http://www.w3.org/1999/xlink" xmlns:sketch="http://www.bohemiancoding.com/sketch/ns">
    <!-- Generator: Sketch 3.4 (15575) - http://www.bohemiancoding.com/sketch -->
    <title>img_category_heading_people</title>
    <desc>Created with Sketch.</desc>
    <defs></defs>
    <g id="spec" stroke="none" stroke-width="1" fill="none" fill-rule="evenodd" sketch:type="MSPage">
        <g id="heading_item" sketch:type="MSLayerGroup" transform="translate(92.000000, 8.000000)">
            <path d="M48,19 L0,19 L0,20 L48,20 L48,19 Z M174,19 L220,19 L220,20 L174,20 L174,19 Z" id="line" fill="#BBBBBB" sketch:type="MSShapeGroup"></path>
            <path d="M85.44,2.68 L85.44,12.28 L76.88,12.28 L76.88,2.68 L85.44,2.68 Z M76.88,23.52 L76.88,13.44 L85.44,13.44 L85.44,23.52 L76.88,23.52 Z M86.6,24.68 L86.6,1.52 L75.72,1.52 L75.72,28.68 L76.88,28.68 L76.88,24.68 L86.6,24.68 Z M93.32,20.64 C93.6,18.56 93.68,16.52 93.68,14.64 L93.68,11.64 L107.08,11.64 L107.08,20.64 L93.32,20.64 Z M107.08,1.76 L107.08,10.48 L93.68,10.48 L93.68,1.76 L107.08,1.76 Z M108.24,0.6 L92.52,0.6 L92.52,14.64 C92.52,21.04 91.76,28.72 84.96,34.16 C85.24,34.36 85.64,34.8 85.76,35.08 C90.36,31.36 92.36,26.56 93.12,21.8 L107.08,21.8 L107.08,32.44 C107.08,33.2 106.8,33.44 106.08,33.48 C105.36,33.52 102.76,33.56 99.76,33.48 C99.96,33.88 100.2,34.36 100.28,34.72 C103.8,34.72 105.88,34.72 106.88,34.48 C107.84,34.24 108.24,33.72 108.24,32.4 L108.24,0.6 Z M143.96,6.76 L120.4,6.76 L120.4,1.8 L143.96,1.8 L143.96,6.76 Z M143.96,12.96 L120.4,12.96 L120.4,7.92 L143.96,7.92 L143.96,12.96 Z M145.12,0.64 L119.24,0.64 L119.24,14.12 L145.12,14.12 L145.12,0.64 Z M132.52,32.64 L132.52,26.64 L145.2,26.64 L145.2,25.48 L132.52,25.48 L132.52,20.36 L146.76,20.36 L146.76,19.2 L132.52,19.2 L132.52,15.16 L131.36,15.16 L131.36,19.2 L121,19.2 C121.96,17.84 122.84,16.36 123.56,14.92 L122.36,14.6 C120.56,18.4 117.68,22.04 114.52,24.48 C114.88,24.68 115.4,25.08 115.6,25.28 C117.16,23.96 118.72,22.24 120.16,20.36 L131.36,20.36 L131.36,25.48 L119.28,25.48 L119.28,26.64 L131.36,26.64 L131.36,32.64 L114.8,32.64 L114.8,33.8 L149.2,33.8 L149.2,32.64 L132.52,32.64 Z" id="明星" fill="#444444" sketch:type="MSShapeGroup"></path>
        </g>
    </g>
</svg>