<?xml version="1.0" encoding="UTF-8" standalone="no"?>
<svg width="410px" height="50px" viewBox="0 0 410 50" version="1.1" xmlns="http://www.w3.org/2000/svg" xmlns:xlink="http://www.w3.org/1999/xlink" xmlns:sketch="http://www.bohemiancoding.com/sketch/ns">
    <!-- Generator: Sketch 3.4 (15575) - http://www.bohemiancoding.com/sketch -->
    <title>img_category_heading_pets</title>
    <desc>Created with Sketch.</desc>
    <defs></defs>
    <g id="spec" stroke="none" stroke-width="1" fill="none" fill-rule="evenodd" sketch:type="MSPage">
        <g id="heading_item" sketch:type="MSLayerGroup" transform="translate(92.000000, 6.000000)">
            <path d="M48,21 L0,21 L0,22 L48,22 L48,21 Z M174,21 L220,21 L220,22 L174,22 L174,21 Z" id="line" fill="#BBBBBB" sketch:type="MSShapeGroup"></path>
            <path d="M77.6,6.88 L107.24,6.88 L107.24,12.6 L108.4,12.6 L108.4,5.72 L93.88,5.72 C93.24,4.28 92.08,2.24 91,0.72 L89.92,1.04 C90.84,2.48 91.88,4.32 92.56,5.72 L76.44,5.72 L76.44,12.6 L77.6,12.6 L77.6,6.88 Z M102.56,12.96 C100.84,11.88 97.6,10.32 95,9.36 L94.36,10.2 C96.96,11.24 100.2,12.84 101.92,13.92 L102.56,12.96 Z M97.76,34.88 C95.6,34.88 95.2,34.56 95.2,33.4 L95.2,28.52 C98.92,26.12 102.32,23.4 104.8,20.64 L103.8,20.08 C101.6,22.56 98.56,25.04 95.2,27.2 L95.2,16.96 L108.72,16.96 L108.72,15.84 L88.32,15.84 C88.72,13.64 89.04,11.28 89.28,8.68 L88.08,8.56 C87.84,11.2 87.52,13.6 87.12,15.84 L76.44,15.84 L76.44,16.96 L86.92,16.96 C85.08,25.6 81.52,31.32 74.2,34.88 C74.48,35.12 74.92,35.56 75.12,35.8 C82.56,31.84 86.24,26 88.12,16.96 L94.04,16.96 L94.04,27.92 C90.92,29.84 87.6,31.48 84.44,32.64 C84.72,32.88 85.04,33.36 85.24,33.64 C88.16,32.48 91.16,31 94.04,29.24 L94.04,33.36 C94.04,35.6 94.88,36.04 97.84,36.04 L106.2,36.04 C108.84,36.04 109.28,34.96 109.48,30.8 C109.08,30.68 108.64,30.48 108.32,30.24 C108.16,34.16 107.88,34.88 106.16,34.88 L97.76,34.88 Z M128.32,18.84 L122.72,20.64 L122.72,10.64 L127.64,10.64 L127.64,9.48 L122.72,9.48 L122.72,0.88 L121.56,0.88 L121.56,9.48 L117.12,9.48 C117.52,7.52 117.84,5.4 118.12,3.32 L116.88,3.12 C116.32,8.24 115.36,13.4 113.68,16.92 C114,17.04 114.6,17.32 114.8,17.48 C115.64,15.6 116.36,13.24 116.88,10.64 L121.56,10.64 L121.56,21 C118.6,21.92 115.88,22.76 113.8,23.4 L114.24,24.56 C116.36,23.92 118.84,23.08 121.56,22.16 L121.56,36.84 L122.72,36.84 L122.72,21.84 C124.6,21.2 126.56,20.52 128.48,19.88 L128.32,18.84 Z M133.08,8 C133.92,5.8 134.68,3.48 135.28,1.04 L134.08,0.8 C132.6,7 130.08,12.76 126.56,16.48 C126.88,16.68 127.4,17.08 127.6,17.28 C129.52,15.08 131.2,12.32 132.56,9.16 L137.4,9.16 C135.52,16.2 131.52,23.76 127,27.32 C127.4,27.52 127.76,27.84 128.04,28.12 C132.72,24.24 136.72,16.4 138.64,9.16 L143.32,9.16 C141.28,19.96 136.52,30.68 129.76,35.6 C130.16,35.76 130.64,36.12 130.92,36.4 C137.72,31.2 142.4,20.2 144.52,9.16 L148.2,9.16 C147.2,26.64 146.08,33.08 144.6,34.64 C144.16,35.16 143.72,35.24 143.04,35.24 C142.24,35.24 140.36,35.2 138.24,35.04 C138.48,35.36 138.56,35.84 138.6,36.24 C140.36,36.4 142.16,36.44 143.2,36.4 C144.28,36.36 145,36.16 145.64,35.36 C147.36,33.44 148.36,27.44 149.4,8.88 C149.44,8.64 149.44,8 149.44,8 L133.08,8 Z" id="宠物" fill="#444444" sketch:type="MSShapeGroup"></path>
        </g>
    </g>
</svg>