<?xml version="1.0" encoding="UTF-8" standalone="no"?>
<svg width="410px" height="50px" viewBox="0 0 410 50" version="1.1" xmlns="http://www.w3.org/2000/svg" xmlns:xlink="http://www.w3.org/1999/xlink" xmlns:sketch="http://www.bohemiancoding.com/sketch/ns">
    <!-- Generator: Sketch 3.4 (15575) - http://www.bohemiancoding.com/sketch -->
    <title>img_category_heading_photography</title>
    <desc>Created with Sketch.</desc>
    <defs></defs>
    <g id="spec" stroke="none" stroke-width="1" fill="none" fill-rule="evenodd" sketch:type="MSPage">
        <g id="heading_item" sketch:type="MSLayerGroup" transform="translate(92.000000, 6.000000)">
            <path d="M48,21 L0,21 L0,22 L48,22 L48,21 Z M174,21 L220,21 L220,22 L174,22 L174,21 Z" id="line" fill="#BBBBBB" sketch:type="MSShapeGroup"></path>
            <path d="M104.4,7.32 L89.56,7.32 L89.56,3.84 L104.4,3.84 L104.4,7.32 Z M89.56,13.36 L104.4,13.36 L104.4,16.68 C99.08,16.92 93.84,17.12 89.56,17.24 L89.56,13.36 Z M104.4,12.2 L89.56,12.2 L89.56,8.48 L104.4,8.48 L104.4,12.2 Z M88.4,17.32 L85.52,17.4 L85.72,18.64 C90.68,18.44 97.48,18.12 104.4,17.76 L104.4,19.96 L105.52,19.96 L105.52,17.72 L109.96,17.48 L110,16.44 L105.52,16.64 L105.52,3.84 L109.52,3.84 L109.52,2.68 L84.8,2.68 L84.8,3.84 L88.4,3.84 L88.4,17.32 Z M84.48,19.04 L84.32,17.8 L80.44,19.08 L80.44,9.2 L84.52,9.2 L84.52,8.04 L80.44,8.04 L80.44,0.8 L79.28,0.8 L79.28,8.04 L74.28,8.04 L74.28,9.2 L79.28,9.2 L79.28,19.44 C77.12,20.08 75.16,20.68 73.64,21.12 L74.12,22.32 C75.64,21.88 77.4,21.32 79.28,20.72 L79.28,34.88 C79.28,35.4 79.08,35.52 78.64,35.56 C78.24,35.56 76.76,35.6 75.04,35.56 C75.24,35.88 75.44,36.36 75.52,36.68 C77.64,36.68 78.8,36.68 79.48,36.44 C80.12,36.24 80.44,35.84 80.44,34.88 L80.44,20.32 L84.48,19.04 Z M95.2,32.84 C94.36,31.88 93.12,30.72 91.76,29.52 C93.44,27.24 94.88,24.6 95.72,21.64 L94.96,21.28 L94.72,21.36 L84.24,21.36 L84.24,22.52 L94.2,22.52 C93.4,24.8 92.24,26.88 90.84,28.72 C89.12,27.28 87.28,25.8 85.52,24.6 L84.64,25.28 C86.44,26.52 88.4,28.08 90.16,29.64 C87.88,32.36 85.12,34.48 82.44,35.72 C82.72,35.96 83.08,36.36 83.24,36.68 C85.92,35.36 88.72,33.24 91.04,30.4 C92.36,31.6 93.48,32.68 94.32,33.64 L95.2,32.84 Z M107.16,22.48 C106.2,25.56 104.6,28.08 102.64,30.16 C100.92,27.96 99.56,25.4 98.68,22.48 L107.16,22.48 Z M107.96,21.24 L107.68,21.32 L96.28,21.32 L96.28,22.48 L97.52,22.48 C98.48,25.72 99.92,28.6 101.8,30.96 C99.36,33.24 96.56,34.88 93.68,35.84 C93.96,36.08 94.28,36.48 94.44,36.76 C97.28,35.76 100.12,34.16 102.56,31.88 C104.4,34 106.64,35.68 109.2,36.76 C109.4,36.4 109.76,36.04 110.08,35.8 C107.44,34.76 105.2,33.16 103.36,31.04 C105.68,28.6 107.6,25.48 108.64,21.6 L107.96,21.24 Z M146.6,1.72 C144.16,4.92 139.84,8.48 136.2,10.56 C136.56,10.76 136.88,11.12 137.16,11.4 C140.76,9.24 145.08,5.6 147.72,2.2 L146.6,1.72 Z M148.28,12.44 C145.48,16 140.52,19.68 136.16,21.8 C136.48,22.04 136.8,22.36 137.04,22.64 C141.44,20.44 146.44,16.64 149.36,12.92 L148.28,12.44 Z M132.6,6.72 L118.2,6.72 L118.2,3.4 L132.6,3.4 L132.6,6.72 Z M132.6,11.32 L118.2,11.32 L118.2,7.88 L132.6,7.88 L132.6,11.32 Z M133.76,2.24 L117.04,2.24 L117.04,12.48 L133.76,12.48 L133.76,2.24 Z M135.16,15.8 L125.96,15.8 C125.52,14.88 124.88,13.72 124.32,12.92 L123.32,13.32 C123.76,14.04 124.32,14.96 124.72,15.8 L114.88,15.8 L114.88,16.96 L135.16,16.96 L135.16,15.8 Z M118.92,28.36 C117.96,30.56 116.44,32.64 114.68,34.2 C115,34.36 115.52,34.76 115.72,34.92 C117.4,33.36 119.08,30.96 120.08,28.64 L118.92,28.36 Z M118.24,20.88 L132.28,20.88 L132.28,25.52 L118.24,25.52 L118.24,20.88 Z M133.44,26.68 L133.44,19.72 L117.08,19.72 L117.08,26.68 L124.68,26.68 L124.68,34.8 C124.68,35.16 124.6,35.32 124.08,35.32 C123.6,35.36 122.16,35.36 120.04,35.32 C120.28,35.68 120.48,36.08 120.56,36.44 C122.88,36.44 124.24,36.44 124.96,36.2 C125.64,35.96 125.84,35.64 125.84,34.76 L125.84,26.68 L133.44,26.68 Z M129.28,28.8 C130.84,30.48 132.52,32.8 133.32,34.24 L134.28,33.6 C133.48,32.16 131.76,29.92 130.24,28.24 L129.28,28.8 Z M149.2,24.36 C146.16,28.96 140.4,33.4 134.6,35.84 C134.88,36 135.24,36.4 135.48,36.68 C141.32,34.2 147.08,29.64 150.24,24.84 L149.2,24.36 Z" id="摄影" fill="#444444" sketch:type="MSShapeGroup"></path>
        </g>
    </g>
</svg>