<?xml version="1.0" encoding="UTF-8" standalone="no"?>
<svg width="410px" height="50px" viewBox="0 0 410 50" version="1.1" xmlns="http://www.w3.org/2000/svg" xmlns:xlink="http://www.w3.org/1999/xlink" xmlns:sketch="http://www.bohemiancoding.com/sketch/ns">
    <!-- Generator: Sketch 3.4 (15575) - http://www.bohemiancoding.com/sketch -->
    <title>img_category_heading_sports</title>
    <desc>Created with Sketch.</desc>
    <defs></defs>
    <g id="spec" stroke="none" stroke-width="1" fill="none" fill-rule="evenodd" sketch:type="MSPage">
        <g id="heading_item" sketch:type="MSLayerGroup" transform="translate(92.000000, 7.000000)">
            <path d="M48,20 L0,20 L0,21 L48,21 L48,20 Z M174,20 L220,20 L220,21 L174,21 L174,20 Z" id="line" fill="#BBBBBB" sketch:type="MSShapeGroup"></path>
            <path d="M106.96,2.8 L87.16,2.8 L87.16,3.96 L106.96,3.96 L106.96,2.8 Z M108.4,28.72 C106.8,25.68 103.52,20.28 100.76,16.2 L99.8,16.64 C101.52,19.2 103.44,22.32 105,25.04 L88.36,26.36 C90.8,22.8 93.16,18.08 95.08,13.4 L109.96,13.4 L109.96,12.24 L84.52,12.24 L84.52,13.4 L93.76,13.4 C92,18.08 89.28,22.92 88.4,24.2 C87.6,25.56 86.92,26.6 86.32,26.72 C86.48,27 86.68,27.68 86.76,28 C87.6,27.64 89,27.48 105.64,26.12 C106.32,27.32 106.92,28.44 107.4,29.32 L108.4,28.72 Z M83.28,7.6 C81.64,6.28 78.52,4.16 76.08,2.64 L75.24,3.4 C77.72,5 80.8,7.2 82.44,8.56 L83.28,7.6 Z M81.24,14.12 L73.96,14.12 L73.96,15.28 L80.08,15.28 L80.08,29.6 C78.32,30 76.28,32.16 74,34.84 L74.88,35.72 C77.16,32.76 79.2,30.56 80.64,30.56 C81.64,30.56 83.08,32.04 84.6,33.04 C87.48,34.88 90.84,35.36 95.72,35.36 C99.96,35.36 107.28,35.16 109.68,35 C109.72,34.6 109.88,34.04 110.08,33.72 C106.04,34 100.68,34.28 95.72,34.28 C91.16,34.28 88,33.92 85.28,32.2 C83.24,30.88 82.28,29.88 81.24,29.6 L81.24,14.12 Z M131.12,3.28 L115.92,3.28 L115.92,4.44 L131.12,4.44 L131.12,3.28 Z M131.88,30.24 C131,27.4 129.12,22.36 127.48,18.56 L126.44,18.84 C127.36,21.12 128.44,23.84 129.28,26.28 L117,28.6 C118.84,24.56 120.6,19.2 121.76,14.2 L131.88,14.2 L131.88,13.04 L114.4,13.04 L114.4,14.2 L120.56,14.2 C119.44,19.28 117.4,24.68 116.8,26.12 C116.16,27.68 115.6,28.92 115.08,29.04 C115.24,29.32 115.44,30 115.52,30.32 L115.52,30.36 C116.24,29.96 117.36,29.68 129.64,27.36 C130.08,28.64 130.48,29.76 130.72,30.72 L131.88,30.24 Z M149.52,9.56 L140.48,9.56 C140.6,6.48 140.64,3.4 140.68,0.48 L139.52,0.48 C139.52,3.36 139.48,6.44 139.32,9.56 L132.44,9.56 L132.44,10.72 L139.28,10.72 C138.72,20.2 136.92,29.92 130.92,35.12 C131.28,35.24 131.8,35.56 132.04,35.8 C138.16,30.24 139.84,20.44 140.4,10.72 L148.32,10.72 C147.72,26.72 147.04,32.36 145.84,33.64 C145.44,34.12 144.96,34.2 144.2,34.16 C143.36,34.16 140.88,34.16 138.28,33.92 C138.48,34.28 138.6,34.76 138.64,35.08 C140.88,35.28 143.2,35.32 144.36,35.32 C145.56,35.28 146.24,35.04 146.92,34.32 C148.32,32.68 148.92,27.2 149.52,10.44 L149.52,9.56 Z" id="运动" fill="#444444" sketch:type="MSShapeGroup"></path>
        </g>
    </g>
</svg>