<?xml version="1.0" encoding="UTF-8" standalone="no"?>
<svg width="410px" height="50px" viewBox="0 0 410 50" version="1.1" xmlns="http://www.w3.org/2000/svg" xmlns:xlink="http://www.w3.org/1999/xlink" xmlns:sketch="http://www.bohemiancoding.com/sketch/ns">
    <!-- Generator: Sketch 3.4 (15575) - http://www.bohemiancoding.com/sketch -->
    <title>img_category_heading_tips</title>
    <desc>Created with Sketch.</desc>
    <defs></defs>
    <g id="spec" stroke="none" stroke-width="1" fill="none" fill-rule="evenodd" sketch:type="MSPage">
        <g id="heading_item" sketch:type="MSLayerGroup" transform="translate(126.000000, 6.000000)" fill="#444444">
            <path d="M18.64,34.24 L18.64,21.92 L32.56,21.92 L32.56,20.76 L18.64,20.76 L18.64,10.24 L33.92,10.24 L33.92,9.08 L18.64,9.08 L18.64,0.8 L17.48,0.8 L17.48,9.08 L7.36,9.08 C8.36,6.8 9.2,4.36 9.92,1.88 L8.72,1.64 C7.12,7.56 4.52,13.16 1.08,16.88 C1.4,17.04 1.96,17.4 2.2,17.6 C3.92,15.56 5.48,13.08 6.8,10.24 L17.48,10.24 L17.48,20.76 L4.52,20.76 L4.52,21.92 L17.48,21.92 L17.48,34.24 L0.4,34.24 L0.4,35.4 L35.68,35.4 L35.68,34.24 L18.64,34.24 Z M47.92,16.44 C46.28,15.28 43.08,13.44 40.68,12.2 L39.96,13.04 C42.44,14.36 45.6,16.28 47.24,17.44 L47.92,16.44 Z M42.24,36.24 C44.56,32.72 47.6,27.28 49.72,23.04 L48.84,22.28 C46.64,26.72 43.4,32.32 41.2,35.44 L42.24,36.24 Z M41.92,2.08 C44.56,3.44 47.84,5.4 49.6,6.6 L50.28,5.6 C48.56,4.4 45.2,2.52 42.6,1.28 L41.92,2.08 Z M71.44,33.88 L54.84,33.88 L54.84,23.12 L71.44,23.12 L71.44,33.88 Z M75.8,13.76 L75.8,12.6 L63.96,12.6 L63.96,4.08 C67.76,3.52 71.28,2.8 73.88,2 L72.84,1.08 C68.4,2.48 59.68,3.72 52.6,4.48 C52.72,4.76 52.88,5.2 52.96,5.52 C56.12,5.2 59.52,4.76 62.8,4.28 L62.8,12.6 L50.4,12.6 L50.4,13.76 L62.8,13.76 L62.8,21.96 L53.68,21.96 L53.68,36.84 L54.84,36.84 L54.84,35.04 L71.44,35.04 L71.44,36.56 L72.6,36.56 L72.6,21.96 L63.96,21.96 L63.96,13.76 L75.8,13.76 Z M109.72,22.2 L86.96,22.2 L86.96,12.88 L109.72,12.88 L109.72,22.2 Z M86.96,33 L86.96,23.36 L109.72,23.36 L109.72,33 L86.96,33 Z M115.32,4.28 L115.32,3.12 L80.72,3.12 L80.72,4.28 L97.08,4.28 C96.68,6.6 96,9.64 95.4,11.72 L85.8,11.72 L85.8,36.96 L86.96,36.96 L86.96,34.16 L109.72,34.16 L109.72,36.96 L110.88,36.96 L110.88,11.72 L96.52,11.72 C97.16,9.6 97.8,6.68 98.32,4.28 L115.32,4.28 Z M146.64,9.16 C145.2,7.56 142.28,5.36 139.68,3.96 L138.96,4.76 C141.48,6.24 144.44,8.48 145.84,10.08 L146.64,9.16 Z M145.76,19.84 C144.16,18.16 140.84,15.8 137.96,14.28 L137.24,15.04 C140.12,16.56 143.4,18.96 145.04,20.68 L145.76,19.84 Z M128.8,13.28 L135.36,13.28 L135.36,12.12 L128.8,12.12 L128.8,4.2 C130.88,3.68 132.8,3.12 134.24,2.48 L133.28,1.56 C130.52,2.88 125.04,4 120.64,4.76 C120.76,5.04 120.96,5.44 121.04,5.72 C123.12,5.4 125.44,5 127.64,4.48 L127.64,12.12 L120.2,12.12 L120.2,13.28 L127.44,13.28 C125.72,18.6 122.36,24.72 119.52,27.8 C119.8,27.96 120.2,28.4 120.36,28.68 C122.88,25.84 125.76,20.56 127.64,15.68 L127.64,36.72 L128.8,36.72 L128.8,15.92 C130.4,18.08 133.04,21.92 133.84,23.36 L134.76,22.4 C133.84,21.12 130.16,16.04 128.8,14.36 L128.8,13.28 Z M156.2,25 L156,23.96 L150.6,24.76 L150.6,0.8 L149.44,0.8 L149.44,24.92 L135.08,27.08 L135.28,28.16 L149.44,26 L149.44,36.76 L150.6,36.76 L150.6,25.88 L156.2,25 Z" id="生活百科" sketch:type="MSShapeGroup"></path>
        </g>
        <path d="M104,27 L54,27 L54,28 L104,28 L104,27 Z M300,27 L350,27 L350,28 L300,28 L300,27 Z" id="heading_item" fill="#BBBBBB" sketch:type="MSShapeGroup"></path>
    </g>
</svg>