<?xml version="1.0" encoding="UTF-8" standalone="no"?>
<svg width="410px" height="50px" viewBox="0 0 410 50" version="1.1" xmlns="http://www.w3.org/2000/svg" xmlns:xlink="http://www.w3.org/1999/xlink" xmlns:sketch="http://www.bohemiancoding.com/sketch/ns">
    <!-- Generator: Sketch 3.4 (15575) - http://www.bohemiancoding.com/sketch -->
    <title>img_category_heading_wedding_events</title>
    <desc>Created with Sketch.</desc>
    <defs></defs>
    <g id="spec" stroke="none" stroke-width="1" fill="none" fill-rule="evenodd" sketch:type="MSPage">
        <g id="heading_item" sketch:type="MSLayerGroup" transform="translate(92.000000, 6.000000)">
            <path d="M48,21 L0,21 L0,22 L48,22 L48,21 Z M174,21 L220,21 L220,22 L174,22 L174,21 Z" id="line" fill="#BBBBBB" sketch:type="MSShapeGroup"></path>
            <path d="M85.48,10.44 C84.96,16.76 83.72,21.84 82.04,25.84 C80.36,24.6 78.56,23.4 76.8,22.32 C77.68,19.28 78.8,14.92 79.72,10.44 L85.48,10.44 Z M86.04,9.2 L85.8,9.28 L80,9.28 C80.6,6.32 81.08,3.32 81.44,0.8 L80.24,0.72 C79.92,3.28 79.4,6.24 78.8,9.28 L74.68,9.28 L74.68,10.44 L78.56,10.44 C77.56,15.08 76.4,19.64 75.32,22.8 C77.4,23.96 79.56,25.48 81.48,27 C79.52,31.16 76.92,34 73.84,35.76 C74.16,36 74.56,36.4 74.76,36.72 C77.84,34.8 80.48,31.92 82.52,27.8 C84.32,29.28 85.88,30.76 86.84,32 L87.76,31.12 C86.72,29.76 85.04,28.2 83.08,26.6 C84.96,22.24 86.24,16.6 86.76,9.4 L86.04,9.2 Z M105.76,22.6 L105.76,27.6 L91.4,27.6 L91.4,22.6 L105.76,22.6 Z M91.4,33.88 L91.4,28.76 L105.76,28.76 L105.76,33.88 L91.4,33.88 Z M90.24,36.8 L91.4,36.8 L91.4,35.04 L105.76,35.04 L105.76,36.8 L106.92,36.8 L106.92,21.44 L90.24,21.44 L90.24,36.8 Z M90.84,9.24 L90.84,3.8 C93.32,3.64 96,3.4 98.56,3.16 C98.8,5.24 99.16,7.32 99.6,9.24 L90.84,9.24 Z M109.6,10.4 L109.6,9.24 L100.76,9.24 C100.32,7.32 99.92,5.2 99.72,3 C102.76,2.64 105.64,2.16 107.76,1.68 L106.76,0.68 C102.96,1.68 95.6,2.44 89.68,2.84 L89.68,16.36 C89.68,17.76 88.68,18.08 88.12,18.24 C88.36,18.6 88.6,19.16 88.68,19.52 C89.24,19.16 90.24,18.88 98.2,17.08 C98.2,16.8 98.16,16.28 98.2,15.92 L90.84,17.48 L90.84,10.4 L99.92,10.4 C101.44,16 104.04,20.04 107.92,20.12 C109.16,20.16 109.8,18.76 110.2,15.28 C109.88,15.2 109.52,15 109.2,14.76 C108.96,17.68 108.48,18.96 107.8,18.92 C104.92,18.84 102.56,15.44 101.08,10.4 L109.6,10.4 Z M125.36,6.44 C124.52,4.92 122.72,2.64 121,0.96 L120.16,1.56 C121.8,3.24 123.6,5.6 124.44,7.16 L125.36,6.44 Z M128.56,7.8 L128.32,7.88 L115.36,7.88 L115.36,9.04 L127.6,9.04 C124.72,15.04 118.92,20.84 113.76,24.04 C114.04,24.24 114.44,24.64 114.64,24.92 C117.12,23.28 119.72,21.08 122.16,18.56 L122.16,36.8 L123.28,36.8 L123.28,18.04 C125.2,19.96 128.64,23.72 129.76,25.12 L130.6,24.08 C129.48,22.92 125.32,18.48 123.64,16.92 C125.96,14.24 127.92,11.32 129.28,8.28 L128.56,7.8 Z M138.6,34.64 C136.56,34.64 136.12,34.2 136.12,32.28 L136.12,1.08 L134.96,1.08 L134.96,32.2 C134.96,35.12 135.76,35.76 138.72,35.76 L146.12,35.76 C149.2,35.76 149.56,33.84 149.8,27.76 C149.44,27.72 149,27.48 148.68,27.2 C148.44,33.16 148.16,34.64 146.16,34.64 L138.6,34.64 Z" id="婚礼" fill="#444444" sketch:type="MSShapeGroup"></path>
        </g>
    </g>
</svg>