<?xml version="1.0" encoding="UTF-8" standalone="no"?>
<svg width="410px" height="50px" viewBox="0 0 410 50" version="1.1" xmlns="http://www.w3.org/2000/svg" xmlns:xlink="http://www.w3.org/1999/xlink" xmlns:sketch="http://www.bohemiancoding.com/sketch/ns">
    <!-- Generator: Sketch 3.4 (15575) - http://www.bohemiancoding.com/sketch -->
    <title>img_category_heading_anime</title>
    <desc>Created with Sketch.</desc>
    <defs></defs>
    <g id="spec" stroke="none" stroke-width="1" fill="none" fill-rule="evenodd" sketch:type="MSPage">
        <g id="heading_item" sketch:type="MSLayerGroup" transform="translate(92.000000, 7.000000)">
            <path d="M48,20 L0,20 L0,21 L48,21 L48,20 Z M174,20 L220,20 L220,21 L174,21 L174,20 Z" id="line" fill="#BBBBBB" sketch:type="MSShapeGroup"></path>
            <path d="M91.12,3.28 L75.92,3.28 L75.92,4.44 L91.12,4.44 L91.12,3.28 Z M91.88,30.24 C91,27.4 89.12,22.36 87.48,18.56 L86.44,18.84 C87.36,21.12 88.44,23.84 89.28,26.28 L77,28.6 C78.84,24.56 80.6,19.2 81.76,14.2 L91.88,14.2 L91.88,13.04 L74.4,13.04 L74.4,14.2 L80.56,14.2 C79.44,19.28 77.4,24.68 76.8,26.12 C76.16,27.68 75.6,28.92 75.08,29.04 C75.24,29.32 75.44,30 75.52,30.32 L75.52,30.36 C76.24,29.96 77.36,29.68 89.64,27.36 C90.08,28.64 90.48,29.76 90.72,30.72 L91.88,30.24 Z M109.52,9.56 L100.48,9.56 C100.6,6.48 100.64,3.4 100.68,0.48 L99.52,0.48 C99.52,3.36 99.48,6.44 99.32,9.56 L92.44,9.56 L92.44,10.72 L99.28,10.72 C98.72,20.2 96.92,29.92 90.92,35.12 C91.28,35.24 91.8,35.56 92.04,35.8 C98.16,30.24 99.84,20.44 100.4,10.72 L108.32,10.72 C107.72,26.72 107.04,32.36 105.84,33.64 C105.44,34.12 104.96,34.2 104.2,34.16 C103.36,34.16 100.88,34.16 98.28,33.92 C98.48,34.28 98.6,34.76 98.64,35.08 C100.88,35.28 103.2,35.32 104.36,35.32 C105.56,35.28 106.24,35.04 106.92,34.32 C108.32,32.68 108.92,27.2 109.52,10.44 L109.52,9.56 Z M145.52,5.52 L128.84,5.52 L128.84,2.4 L145.52,2.4 L145.52,5.52 Z M145.52,9.92 L128.84,9.92 L128.84,6.68 L145.52,6.68 L145.52,9.92 Z M146.68,1.24 L127.68,1.24 L127.68,11.08 L146.68,11.08 L146.68,1.24 Z M147.48,19.56 L141.2,19.56 L141.2,14.68 L147.48,14.68 L147.48,19.56 Z M140.04,19.56 L133.88,19.56 L133.88,14.68 L140.04,14.68 L140.04,19.56 Z M132.72,19.56 L126.76,19.56 L126.76,14.68 L132.72,14.68 L132.72,19.56 Z M148.64,13.52 L125.6,13.52 L125.6,20.72 L148.64,20.72 L148.64,13.52 Z M124,5 C122.44,3.68 119.4,1.84 116.84,0.64 L116.16,1.48 C118.68,2.76 121.72,4.68 123.24,6.04 L124,5 Z M122,16.32 C120.48,15 117.48,13.08 115,11.88 L114.28,12.68 C116.76,14 119.72,15.96 121.24,17.36 L122,16.32 Z M122.04,21.84 C119.96,26 117.04,31.12 115.04,34.04 L116.12,34.92 C118.24,31.52 120.96,26.56 122.92,22.6 L122.04,21.84 Z M144.96,24.48 C143.12,27 140.32,29 137,30.6 C133.8,28.96 131.12,26.88 129.24,24.48 L144.96,24.48 Z M146.12,23.24 L145.84,23.32 L124.4,23.32 L124.4,24.48 L127.88,24.48 C129.72,27.12 132.52,29.36 135.76,31.16 C131.6,32.96 126.84,34.12 122.44,34.72 C122.64,35 122.96,35.48 123.04,35.84 C127.72,35.16 132.72,33.84 137,31.8 C140.68,33.64 144.88,34.96 149.16,35.68 C149.32,35.32 149.64,34.92 149.88,34.64 C145.8,34 141.8,32.84 138.28,31.24 C141.92,29.36 145,26.88 146.88,23.8 L146.12,23.24 Z" id="动漫" fill="#444444" sketch:type="MSShapeGroup"></path>
        </g>
    </g>
</svg>