<?xml version="1.0" encoding="UTF-8" standalone="no"?>
<svg width="410px" height="50px" viewBox="0 0 410 50" version="1.1" xmlns="http://www.w3.org/2000/svg" xmlns:xlink="http://www.w3.org/1999/xlink" xmlns:sketch="http://www.bohemiancoding.com/sketch/ns">
    <!-- Generator: Sketch 3.4 (15575) - http://www.bohemiancoding.com/sketch -->
    <title>img_category_heading_architecture</title>
    <desc>Created with Sketch.</desc>
    <defs></defs>
    <g id="spec" stroke="none" stroke-width="1" fill="none" fill-rule="evenodd" sketch:type="MSPage">
        <g id="heading_item" sketch:type="MSLayerGroup" transform="translate(57.000000, 6.000000)">
            <path d="M50,21 L0,21 L0,22 L50,22 L50,21 Z M246,21 L296,21 L296,22 L246,22 L246,21 Z" id="line" fill="#BBBBBB" sketch:type="MSShapeGroup"></path>
            <path d="M100.2,5.8 L100.2,9.92 L92.76,9.92 L92.76,5.8 L100.2,5.8 Z M100.2,15.36 L92.76,15.36 L92.76,11.08 L100.2,11.08 L100.2,15.36 Z M91.6,9.92 L80,9.92 L80,11.08 L91.6,11.08 L91.6,15.36 L82.68,15.36 L82.68,16.52 L91.6,16.52 L91.6,20.72 L82.36,20.72 L82.36,21.88 L91.6,21.88 L91.6,26.4 L80.56,26.4 L80.56,27.56 L91.6,27.56 L91.6,32.84 L92.76,32.84 L92.76,27.56 L104.2,27.56 L104.2,26.4 L92.76,26.4 L92.76,21.88 L102.44,21.88 L102.44,20.72 L92.76,20.72 L92.76,16.52 L101.36,16.52 L101.36,11.08 L104.68,11.08 L104.68,9.92 L101.36,9.92 L101.36,4.64 L92.76,4.64 L92.76,1.08 L91.6,1.08 L91.6,4.64 L83,4.64 L83,5.8 L91.6,5.8 L91.6,9.92 Z M93.92,34.48 C86.24,34.48 80.12,33.32 76,28.52 C77.76,24.92 79.08,20.36 79.8,14.88 L79.08,14.6 L78.84,14.64 L73.88,14.64 C75.76,11.56 78.24,7.08 80.12,3.6 L69.84,3.6 L69.84,4.76 L78.16,4.76 C76.24,8.44 73.72,12.96 71.84,15.8 L78.44,15.8 C77.8,20.4 76.72,24.24 75.16,27.44 C73.88,25.6 72.84,23.28 72,20.44 L71,20.96 C71.92,24.12 73.12,26.64 74.64,28.64 C73.04,31.56 71.12,33.88 69,35.52 C69.28,35.72 69.72,36.16 69.92,36.44 C72,34.8 73.88,32.56 75.44,29.64 C79.68,34.48 85.88,35.64 93.92,35.64 L104.52,35.64 C104.6,35.32 104.88,34.8 105.12,34.48 L93.92,34.48 Z M134.08,6.76 C135.56,8.68 137,11.16 137.64,12.76 L138.72,12.28 C138.16,10.8 136.8,8.56 135.48,6.76 L144.24,6.76 L144.24,5.6 L130.6,5.6 C131.16,4.16 131.64,2.6 132,1 L130.8,0.76 C129.8,5.2 128,9.32 125.52,12.12 C125.84,12.32 126.36,12.68 126.56,12.88 C127.92,11.24 129.12,9.12 130.12,6.76 L134.08,6.76 Z M118.2,6.76 C119.12,8.8 120,11.4 120.32,13 L121.52,12.72 C121.2,11.2 120.4,8.76 119.48,6.76 L126.36,6.76 L126.36,5.6 L115.48,5.6 C116.16,4.12 116.76,2.56 117.2,0.92 L116.04,0.68 C114.64,5.56 112.16,9.96 109,12.84 C109.32,13.04 109.84,13.44 110.04,13.64 C111.88,11.8 113.52,9.44 114.92,6.76 L118.2,6.76 Z M124.12,26.8 L117.36,28.24 L117.36,15.48 L123.56,15.48 L123.56,14.32 L109.76,14.32 L109.76,15.48 L116.2,15.48 L116.2,28.52 C113.44,29.12 111,29.6 109,30 L109.32,31.2 C113.28,30.32 118.84,29.12 124.2,27.88 L124.12,26.8 Z M129.2,20.96 C131.64,23.12 134.36,26.2 135.64,28.16 L136.56,27.4 C135.32,25.44 132.52,22.48 130.08,20.36 L129.2,20.96 Z M140.64,34.8 C140.28,34.8 140,34.76 139.76,34.64 C139.52,34.48 139.44,33.72 139.44,32.68 L139.44,13.8 L126.24,13.8 L126.24,22.48 C126.24,27.04 125.12,32.16 118.24,35.8 C118.48,36 118.8,36.48 118.92,36.76 C126.16,32.96 127.4,27.32 127.4,22.52 L127.4,14.96 L138.28,14.96 L138.28,32.12 C138.28,34.68 138.4,35.16 138.88,35.44 C139.36,35.8 140.04,35.88 140.64,35.88 L142.52,35.88 C143.08,35.88 143.72,35.8 144.16,35.64 C144.56,35.44 144.84,35.16 145.04,34.6 C145.2,34.08 145.28,32.52 145.32,31.16 C144.92,31.08 144.56,30.88 144.24,30.64 C144.2,32.16 144.16,33.32 144.04,33.8 C143.96,34.28 143.68,34.52 143.48,34.64 C143.24,34.76 142.76,34.8 142.32,34.8 L140.64,34.8 Z M168.68,3.6 L177.48,3.6 L177.48,12.2 C177.48,14.2 177.88,14.8 179.44,14.8 L182.92,14.8 C183.56,14.8 184.28,14.76 184.68,14.68 C184.6,14.4 184.52,13.84 184.48,13.52 C184.04,13.6 183.36,13.64 182.88,13.64 L179.4,13.64 C178.76,13.64 178.64,13.36 178.64,12.24 L178.64,2.44 L167.52,2.44 L167.52,6.92 C167.52,10.12 166.4,13.84 160.84,16.52 C161.08,16.72 161.44,17.2 161.6,17.48 C167.4,14.56 168.68,10.44 168.68,6.92 L168.68,3.6 Z M159.4,7.64 C158.2,6.08 155.72,3.56 153.56,1.8 L152.72,2.56 C154.84,4.4 157.36,6.92 158.56,8.6 L159.4,7.64 Z M156.72,32.64 L156.72,13.6 L149.08,13.6 L149.08,14.76 L155.56,14.76 L155.56,31.4 C155.56,33.16 154.16,34.36 153.56,34.72 C153.84,35 154.24,35.48 154.44,35.76 C154.92,35.16 155.76,34.6 162.56,30.36 C162.44,30.12 162.28,29.68 162.16,29.36 L156.72,32.64 Z M180.84,19.92 C179.2,24.04 176.4,27.44 173.04,30.12 C169.76,27.36 167.2,23.92 165.56,19.92 L180.84,19.92 Z M181.64,18.68 L181.44,18.76 L162.48,18.76 L162.48,19.92 L164.36,19.92 C166.08,24.24 168.68,27.92 172.04,30.84 C168.88,33.16 165.28,34.84 161.8,35.84 C162.08,36.12 162.4,36.56 162.52,36.92 C166.12,35.84 169.8,34.08 173.04,31.64 C176.24,34.12 179.96,35.96 184.24,37 C184.4,36.64 184.76,36.2 185.08,35.92 C180.84,34.96 177.12,33.2 174,30.84 C177.68,27.88 180.72,24 182.44,19.12 L181.64,18.68 Z M200.24,7.88 C199,6.2 196.44,3.64 194.2,1.8 L193.36,2.52 C195.56,4.4 198.16,7.12 199.44,8.8 L200.24,7.88 Z M197.2,32.24 L197.2,13.6 L189.16,13.6 L189.16,14.76 L196.04,14.76 L196.04,31.4 C196.04,33.08 194.88,34.04 194.32,34.4 C194.6,34.68 195,35.16 195.12,35.44 C195.64,34.8 196.48,34.2 203.44,29.4 C203.32,29.2 203.08,28.72 202.96,28.44 L197.2,32.24 Z M225,14.72 L213.92,14.72 L213.92,0.84 L212.76,0.84 L212.76,14.72 L202.04,14.72 L202.04,15.88 L212.76,15.88 L212.76,36.8 L213.92,36.8 L213.92,15.88 L225,15.88 L225,14.72 Z" id="建筑设计" fill="#444444" sketch:type="MSShapeGroup"></path>
        </g>
    </g>
</svg>