<?xml version="1.0" encoding="UTF-8" standalone="no"?>
<svg width="410px" height="50px" viewBox="0 0 410 50" version="1.1" xmlns="http://www.w3.org/2000/svg" xmlns:xlink="http://www.w3.org/1999/xlink" xmlns:sketch="http://www.bohemiancoding.com/sketch/ns">
    <!-- Generator: Sketch 3.4 (15575) - http://www.bohemiancoding.com/sketch -->
    <title>img_category_heading_beauty</title>
    <desc>Created with Sketch.</desc>
    <defs></defs>
    <g id="spec" stroke="none" stroke-width="1" fill="none" fill-rule="evenodd" sketch:type="MSPage">
        <g id="heading_item" sketch:type="MSLayerGroup" transform="translate(92.000000, 6.000000)">
            <path d="M48,21 L0,21 L0,22 L48,22 L48,21 Z M174,21 L220,21 L220,22 L174,22 L174,21 Z" id="line" fill="#BBBBBB" sketch:type="MSShapeGroup"></path>
            <path d="M86.48,6.24 C85.76,4.72 84.12,2.44 82.52,0.76 L81.52,1.28 C83.04,2.96 84.68,5.28 85.4,6.84 L86.48,6.24 Z M109.44,25.04 L109.44,23.88 L91.84,23.88 C92.12,22.6 92.36,21.24 92.56,19.72 L109.64,19.72 L109.64,18.56 L92.52,18.56 L92.52,13.88 L105.96,13.88 L105.96,12.72 L92.52,12.72 L92.52,8.2 L107.92,8.2 L107.92,7.04 L98.44,7.04 C99.72,5.4 101.16,3.24 102.24,1.44 L101.2,0.76 C100.2,2.6 98.48,5.24 97.12,7.04 L76.16,7.04 L76.16,8.2 L91.36,8.2 L91.36,12.72 L78.28,12.72 L78.28,13.88 L91.36,13.88 L91.36,18.56 L74.56,18.56 L74.56,19.72 L91.36,19.72 C91.16,21.24 90.92,22.6 90.56,23.88 L75.4,23.88 L75.4,25.04 L90.24,25.04 C88.36,30.6 84.2,34 74.16,35.64 C74.36,35.88 74.68,36.4 74.76,36.68 C85.2,34.92 89.52,31.24 91.48,25.04 L91.92,25.04 C94.76,31.28 100.96,35.04 108.92,36.6 C109.08,36.24 109.4,35.8 109.68,35.52 C101.96,34.2 96.04,30.72 93.24,25.04 L109.44,25.04 Z M139.84,12.24 C138.44,18.24 136.24,23.12 132.48,26.88 C129.04,25.24 125.44,23.76 121.84,22.44 C123.32,19.68 125.08,16.04 126.76,12.24 L139.84,12.24 Z M149.56,12.24 L149.56,11.04 L127.28,11.04 C128.84,7.4 130.24,3.68 131.2,0.4 L129.96,0.24 C128.96,3.48 127.56,7.28 125.96,11.04 L114.6,11.04 L114.6,12.24 L125.4,12.24 C123.64,16.32 121.72,20.16 120.08,22.96 C124.08,24.44 127.96,26.04 131.56,27.72 C127.6,31.28 122.04,33.72 114.16,35.04 C114.44,35.36 114.76,35.84 114.92,36.24 C123,34.76 128.76,32.16 132.84,28.32 C138.48,31.04 143.4,33.92 146.88,36.72 L148.04,35.92 C144.44,33.08 139.36,30.16 133.72,27.44 C137.48,23.52 139.72,18.48 141.08,12.24 L149.56,12.24 Z" id="美女" fill="#444444" sketch:type="MSShapeGroup"></path>
        </g>
    </g>
</svg>