<?xml version="1.0" encoding="UTF-8" standalone="no"?>
<svg width="410px" height="50px" viewBox="0 0 410 50" version="1.1" xmlns="http://www.w3.org/2000/svg" xmlns:xlink="http://www.w3.org/1999/xlink" xmlns:sketch="http://www.bohemiancoding.com/sketch/ns">
    <!-- Generator: Sketch 3.4 (15575) - http://www.bohemiancoding.com/sketch -->
    <title>img_category_heading_data_presentation</title>
    <desc>Created with Sketch.</desc>
    <defs></defs>
    <g id="spec" stroke="none" stroke-width="1" fill="none" fill-rule="evenodd" sketch:type="MSPage">
        <g id="heading_item" sketch:type="MSLayerGroup" transform="translate(76.000000, 6.000000)">
            <path d="M50,21 L0,21 L0,22 L50,22 L50,21 Z M206,21 L256,21 L256,22 L206,22 L206,21 Z" id="line" fill="#BBBBBB" sketch:type="MSShapeGroup"></path>
            <path d="M86.48,1.84 C85.68,3.48 84.2,5.96 83.12,7.44 L83.96,7.92 C85.12,6.48 86.48,4.32 87.52,2.44 L86.48,1.84 Z M76.08,7.48 C75.68,6 74.48,3.76 73.28,2.12 L72.36,2.48 C73.52,4.16 74.68,6.44 75.12,7.88 L76.08,7.48 Z M79.24,17.72 L80.4,17.72 L80.4,11.12 C82.48,12.52 86.08,15.2 87.24,16.16 L88,15.16 C86.88,14.28 82.08,11.04 80.4,10 L80.4,9.76 L89.2,9.76 L89.2,8.6 L80.4,8.6 L80.4,0.76 L79.24,0.76 L79.24,8.6 L70.32,8.6 L70.32,9.76 L78.84,9.76 C76.92,13 73.48,16.2 70.28,17.68 C70.52,17.96 70.88,18.36 71.04,18.72 C74.08,17.12 77.2,14.2 79.24,11.16 L79.24,17.72 Z M85.68,22.76 C84.72,25.56 83.12,27.84 81.12,29.68 C79.24,28.76 77.16,27.8 75.28,27.12 C76.04,25.88 76.88,24.32 77.68,22.76 L85.68,22.76 Z M86.16,32.56 C85.16,31.84 83.72,31.04 82.12,30.2 C84.36,28.04 86.16,25.32 87.2,21.88 L86.52,21.52 L86.24,21.6 L78.24,21.6 C78.64,20.68 79.04,19.8 79.36,18.96 L78.24,18.76 C77.92,19.68 77.48,20.6 77.04,21.6 L71.2,21.6 L71.2,22.76 L76.44,22.76 C75.56,24.56 74.52,26.32 73.64,27.64 C75.76,28.4 78.08,29.48 80.16,30.52 C77.32,32.88 73.8,34.4 70.28,35.28 C70.52,35.48 70.8,35.92 70.92,36.24 C74.6,35.28 78.24,33.6 81.24,31.08 C82.8,31.88 84.2,32.76 85.24,33.48 L86.16,32.56 Z M93.08,10.08 L101.36,10.08 C100.52,15.84 99.16,20.72 97.12,24.72 C95.2,20.56 93.88,15.64 93,10.4 L93.08,10.08 Z M105.48,10.08 L105.48,8.92 L93.4,8.92 C94.04,6.6 94.56,4.12 95,1.6 L93.8,1.4 C92.72,8.24 90.88,14.8 87.88,19.04 C88.2,19.2 88.76,19.56 88.96,19.72 C90.28,17.68 91.36,15.2 92.32,12.48 C93.28,17.44 94.68,22 96.52,25.92 C94.12,30.2 90.8,33.48 86.16,35.88 C86.44,36.16 86.84,36.6 87,36.84 C91.4,34.36 94.68,31.16 97.12,27.08 C99.28,31.2 102.08,34.48 105.56,36.48 C105.76,36.16 106.12,35.76 106.44,35.52 C102.8,33.6 99.96,30.28 97.76,25.96 C100.08,21.68 101.56,16.48 102.6,10.08 L105.48,10.08 Z M121.92,19.92 L121.72,18.72 L116.84,20.44 L116.84,10.52 L121.92,10.52 L121.92,9.36 L116.84,9.36 L116.84,0.8 L115.68,0.8 L115.68,9.36 L109.88,9.36 L109.88,10.52 L115.68,10.52 L115.68,20.88 C113.32,21.68 111.16,22.48 109.48,23.04 L110,24.24 L115.68,22.2 L115.68,34.96 C115.68,35.56 115.44,35.72 114.92,35.72 C114.48,35.76 112.76,35.76 110.76,35.72 C110.92,36.08 111.12,36.56 111.2,36.84 C113.72,36.88 115.04,36.84 115.76,36.64 C116.48,36.4 116.84,36.04 116.84,34.96 L116.84,21.76 L121.92,19.92 Z M125.48,17.08 C125.52,16.2 125.52,15.4 125.52,14.6 L125.52,11.76 L135.24,11.76 L135.24,17.08 L125.48,17.08 Z M143.32,3.84 L143.32,10.6 L125.52,10.6 L125.52,3.84 L143.32,3.84 Z M143.4,33.64 L128.48,33.64 L128.48,25.48 L143.4,25.48 L143.4,33.64 Z M146.12,18.24 L146.12,17.08 L136.4,17.08 L136.4,11.76 L144.48,11.76 L144.48,2.68 L124.36,2.68 L124.36,14.6 C124.36,21.08 123.92,29.72 119.6,36.08 C119.92,36.2 120.4,36.48 120.6,36.72 C124.24,31.44 125.2,24.28 125.44,18.24 L135.24,18.24 L135.24,24.32 L127.32,24.32 L127.32,36.92 L128.48,36.92 L128.48,34.8 L143.4,34.8 L143.4,36.68 L144.56,36.68 L144.56,24.32 L136.4,24.32 L136.4,18.24 L146.12,18.24 Z M159.36,27.48 C164.84,28.16 171.8,29.8 175.52,31.04 L176.08,29.96 C172.4,28.68 165.36,27.12 160,26.44 L159.36,27.48 Z M163.68,22.4 C166.76,23.08 170.64,24.44 172.72,25.52 L173.32,24.44 C171.24,23.44 167.32,22.08 164.28,21.48 L163.68,22.4 Z M175.12,10 C173.44,12.24 171.08,14.2 168.32,15.84 C165.92,14.36 163.84,12.68 162.4,10.8 C162.64,10.52 162.84,10.28 163.08,10 L175.12,10 Z M176.2,8.76 L175.96,8.84 L164.08,8.84 C164.8,7.92 165.44,7 166,6.04 L164.84,5.68 C162.76,9.28 159.28,12.56 155.76,14.76 C156.08,14.96 156.56,15.36 156.76,15.52 C158.4,14.44 160.08,13.12 161.64,11.52 C163.08,13.32 165.04,15 167.32,16.4 C163.4,18.56 158.92,20.08 154.92,20.92 C155.16,21.16 155.44,21.64 155.6,21.92 C159.72,21 164.36,19.4 168.36,17.04 C171.92,19.12 176.12,20.68 180.24,21.56 C180.4,21.2 180.72,20.76 181,20.52 C176.92,19.76 172.84,18.36 169.36,16.44 C172.52,14.48 175.24,12.08 176.96,9.28 L176.2,8.76 Z M153,33.76 L153,3.92 L183,3.92 L183,33.76 L153,33.76 Z M151.84,2.76 L151.84,36.84 L153,36.84 L153,34.92 L183,34.92 L183,36.84 L184.16,36.84 L184.16,2.76 L151.84,2.76 Z" id="数据图" fill="#444444" sketch:type="MSShapeGroup"></path>
        </g>
    </g>
</svg>