<?xml version="1.0" encoding="UTF-8" standalone="no"?>
<svg width="410px" height="50px" viewBox="0 0 410 50" version="1.1" xmlns="http://www.w3.org/2000/svg" xmlns:xlink="http://www.w3.org/1999/xlink" xmlns:sketch="http://www.bohemiancoding.com/sketch/ns">
    <!-- Generator: Sketch 3.4 (15575) - http://www.bohemiancoding.com/sketch -->
    <title>img_category_heading_desire</title>
    <desc>Created with Sketch.</desc>
    <defs></defs>
    <g id="spec" stroke="none" stroke-width="1" fill="none" fill-rule="evenodd" sketch:type="MSPage">
        <g id="heading_item" sketch:type="MSLayerGroup" transform="translate(92.000000, 6.000000)">
            <path d="M48,21 L0,21 L0,22 L48,22 L48,21 Z M174,21 L220,21 L220,22 L174,22 L174,21 Z" id="line" fill="#BBBBBB" sketch:type="MSShapeGroup"></path>
            <path d="M85.36,6.44 C84.52,4.92 82.72,2.64 81,0.96 L80.16,1.56 C81.8,3.24 83.6,5.6 84.44,7.16 L85.36,6.44 Z M88.56,7.8 L88.32,7.88 L75.36,7.88 L75.36,9.04 L87.6,9.04 C84.72,15.04 78.92,20.84 73.76,24.04 C74.04,24.24 74.44,24.64 74.64,24.92 C77.12,23.28 79.72,21.08 82.16,18.56 L82.16,36.8 L83.28,36.8 L83.28,18.04 C85.2,19.96 88.64,23.72 89.76,25.12 L90.6,24.08 C89.48,22.92 85.32,18.48 83.64,16.92 C85.96,14.24 87.92,11.32 89.28,8.28 L88.56,7.8 Z M98.6,34.64 C96.56,34.64 96.12,34.2 96.12,32.28 L96.12,1.08 L94.96,1.08 L94.96,32.2 C94.96,35.12 95.76,35.76 98.72,35.76 L106.12,35.76 C109.2,35.76 109.56,33.84 109.8,27.76 C109.44,27.72 109,27.48 108.68,27.2 C108.44,33.16 108.16,34.64 106.16,34.64 L98.6,34.64 Z M128.32,18.84 L122.72,20.64 L122.72,10.64 L127.64,10.64 L127.64,9.48 L122.72,9.48 L122.72,0.88 L121.56,0.88 L121.56,9.48 L117.12,9.48 C117.52,7.52 117.84,5.4 118.12,3.32 L116.88,3.12 C116.32,8.24 115.36,13.4 113.68,16.92 C114,17.04 114.6,17.32 114.8,17.48 C115.64,15.6 116.36,13.24 116.88,10.64 L121.56,10.64 L121.56,21 C118.6,21.92 115.88,22.76 113.8,23.4 L114.24,24.56 C116.36,23.92 118.84,23.08 121.56,22.16 L121.56,36.84 L122.72,36.84 L122.72,21.84 C124.6,21.2 126.56,20.52 128.48,19.88 L128.32,18.84 Z M133.08,8 C133.92,5.8 134.68,3.48 135.28,1.04 L134.08,0.8 C132.6,7 130.08,12.76 126.56,16.48 C126.88,16.68 127.4,17.08 127.6,17.28 C129.52,15.08 131.2,12.32 132.56,9.16 L137.4,9.16 C135.52,16.2 131.52,23.76 127,27.32 C127.4,27.52 127.76,27.84 128.04,28.12 C132.72,24.24 136.72,16.4 138.64,9.16 L143.32,9.16 C141.28,19.96 136.52,30.68 129.76,35.6 C130.16,35.76 130.64,36.12 130.92,36.4 C137.72,31.2 142.4,20.2 144.52,9.16 L148.2,9.16 C147.2,26.64 146.08,33.08 144.6,34.64 C144.16,35.16 143.72,35.24 143.04,35.24 C142.24,35.24 140.36,35.2 138.24,35.04 C138.48,35.36 138.56,35.84 138.6,36.24 C140.36,36.4 142.16,36.44 143.2,36.4 C144.28,36.36 145,36.16 145.64,35.36 C147.36,33.44 148.36,27.44 149.4,8.88 C149.44,8.64 149.44,8 149.44,8 L133.08,8 Z" id="礼物" fill="#444444" sketch:type="MSShapeGroup"></path>
        </g>
    </g>
</svg>