<?xml version="1.0" encoding="UTF-8" standalone="no"?>
<svg width="410px" height="50px" viewBox="0 0 410 50" version="1.1" xmlns="http://www.w3.org/2000/svg" xmlns:xlink="http://www.w3.org/1999/xlink" xmlns:sketch="http://www.bohemiancoding.com/sketch/ns">
    <!-- Generator: Sketch 3.4 (15575) - http://www.bohemiancoding.com/sketch -->
    <title>img_category_heading_fitness</title>
    <desc>Created with Sketch.</desc>
    <defs></defs>
    <g id="spec" stroke="none" stroke-width="1" fill="none" fill-rule="evenodd" sketch:type="MSPage">
        <g id="heading_item" sketch:type="MSLayerGroup" transform="translate(50.000000, 6.000000)">
            <path d="M94.4,5.64 L99.68,5.64 L99.68,10 L94.4,10 L94.4,5.64 Z M99.68,15.52 L94.4,15.52 L94.4,11.16 L99.68,11.16 L99.68,15.52 Z M93.24,15.52 L87.04,15.52 L87.04,16.68 L93.24,16.68 L93.24,20.8 L86.08,20.8 L86.08,21.96 L93.24,21.96 L93.24,26.4 L84.8,26.4 L84.8,27.56 L93.24,27.56 L93.24,33.6 L94.4,33.6 L94.4,27.56 L103.56,27.56 L103.56,26.4 L94.4,26.4 L94.4,21.96 L101.96,21.96 L101.96,20.8 L94.4,20.8 L94.4,16.68 L100.84,16.68 L100.84,11.16 L104.16,11.16 L104.16,10 L100.84,10 L100.84,4.48 L94.4,4.48 L94.4,0.8 L93.24,0.8 L93.24,4.48 L87.04,4.48 L87.04,5.64 L93.24,5.64 L93.24,10 L85.08,10 L85.08,11.16 L93.24,11.16 L93.24,15.52 Z M75.88,0.84 C74.16,7.08 71.36,13.2 68,17.2 C68.24,17.44 68.68,17.88 68.84,18.12 C70.28,16.28 71.68,14.12 72.92,11.68 L72.92,36.72 L74.08,36.72 L74.08,9.2 C75.2,6.64 76.2,3.92 77,1.12 L75.88,0.84 Z M98.76,35.32 C92.4,35.32 86.2,34.4 81.88,29.28 C83.36,25.88 84.4,21.52 84.96,16.08 L84.24,15.84 L84.2,15.84 L79.2,15.84 C80.84,12.52 83,7.76 84.6,4.08 L77.48,4.08 L77.48,5.24 L82.84,5.24 C81.24,9.08 79.04,13.96 77.4,17 L83.64,17 C83.12,21.48 82.28,25.24 81,28.2 C79.72,26.4 78.64,24.08 77.8,21.28 L76.8,21.8 C77.76,24.96 79,27.44 80.48,29.4 C79.08,32.28 77.32,34.44 75.2,35.92 C75.48,36.12 75.92,36.56 76.12,36.88 C78.16,35.4 79.92,33.28 81.32,30.44 C85.8,35.56 92.08,36.48 98.72,36.48 L103.68,36.48 C103.72,36.16 103.96,35.64 104.2,35.32 L98.76,35.32 Z M116.2,23.28 L116.2,18.04 L135.36,18.04 L135.36,23 L135,23.28 L116.2,23.28 Z M135.36,6 L135.36,10.76 L116.2,10.76 L116.2,6 L135.36,6 Z M116.2,11.92 L135.36,11.92 L135.36,16.88 L116.2,16.88 L116.2,11.92 Z M141.92,16.16 C140.36,18.24 138.52,20.16 136.52,21.96 L136.52,4.84 L124.48,4.84 C125.12,3.72 125.84,2.36 126.48,1.16 L125.16,0.68 C124.72,1.88 123.84,3.56 123.08,4.84 L115.04,4.84 L115.04,23.28 L109.52,23.28 L109.52,24.4 L133.56,24.4 C126.44,29.8 117.32,33.64 107.76,36.08 C108.04,36.36 108.36,36.92 108.48,37.2 C118.52,34.4 127.96,30.32 135.36,24.44 L135.36,34.12 C135.36,35 135.08,35.28 134.16,35.36 C133.24,35.4 130.04,35.44 126.2,35.32 C126.4,35.76 126.64,36.24 126.72,36.6 C131.04,36.6 133.68,36.6 134.88,36.36 C136.08,36.12 136.52,35.56 136.52,34.12 L136.52,23.52 C138.92,21.48 141.08,19.24 142.96,16.8 L141.92,16.16 Z M146.44,41.04 L147.84,41.04 L161.8,2.72 L160.44,2.72 L146.44,41.04 Z M178.6,22.64 L171.44,22.64 C172.2,21.64 172.84,20.52 173.36,19.4 L172.24,19.12 C170.56,22.72 167.52,25.76 164.16,27.84 C164.52,28.04 165,28.44 165.2,28.64 C167.08,27.36 168.96,25.72 170.52,23.8 L178,23.8 C177.16,26.24 175.84,28.32 174.28,30 C173.04,28.88 171.16,27.44 169.52,26.48 L168.8,27.12 C170.44,28.2 172.32,29.64 173.48,30.76 C171.04,33.16 168.04,34.8 164.76,35.92 C165.08,36.16 165.44,36.56 165.64,36.84 C171.92,34.68 177.28,30.52 179.6,22.96 L178.88,22.56 L178.6,22.64 Z M191.72,23.88 L198.36,23.88 L198.36,22.72 L191.72,22.72 L191.72,19.36 L190.56,19.36 L190.56,22.72 L181.4,22.72 L181.4,23.88 L190.56,23.88 L190.56,30.12 L182.6,30.12 C183,28.76 183.4,27.04 183.68,25.52 L182.52,25.36 C182.12,27.28 181.52,29.64 181,31.28 L190.56,31.28 L190.56,36.8 L191.72,36.8 L191.72,31.28 L199.64,31.28 L199.64,30.12 L191.72,30.12 L191.72,23.88 Z M171.28,12.2 L177.24,12.2 L177.24,17.52 L171.28,17.52 L171.28,12.2 Z M171.28,5.72 L177.24,5.72 L177.24,11.04 L171.28,11.04 L171.28,5.72 Z M192.16,11.04 L185.92,11.04 L185.92,5.72 L192.16,5.72 L192.16,11.04 Z M178.4,11.04 L178.4,5.72 L184.76,5.72 L184.76,11.04 L178.4,11.04 Z M184.76,12.2 L184.76,17.52 L178.4,17.52 L178.4,12.2 L184.76,12.2 Z M192.16,17.52 L185.92,17.52 L185.92,12.2 L192.16,12.2 L192.16,17.52 Z M193.32,17.52 L193.32,12.2 L198.48,12.2 L198.48,11.04 L193.32,11.04 L193.32,5.72 L197.64,5.72 L197.64,4.56 L171.08,4.56 C172.04,3.4 172.8,2.2 173.44,1.12 L172.2,0.92 C170.84,3.4 168.36,6.48 164.96,8.84 C165.24,8.96 165.64,9.28 165.88,9.52 C167.48,8.36 168.92,7.04 170.08,5.72 L170.12,5.72 L170.12,11.04 L166.36,11.04 L166.36,12.2 L170.12,12.2 L170.12,17.52 L164.28,17.52 L164.28,18.68 L199.76,18.68 L199.76,17.52 L193.32,17.52 Z M206.84,3.96 L214.8,3.96 L214.8,12.84 L206.84,12.84 L206.84,3.96 Z M211.48,31.24 L211.48,22 L216.64,22 L216.64,20.84 L211.48,20.84 L211.48,14 L215.96,14 L215.96,2.8 L205.68,2.8 L205.68,14 L210.32,14 L210.32,31.56 L207.04,32.48 L207.04,18.64 L205.88,18.64 L205.88,32.76 L203.88,33.28 L204.24,34.44 C207.6,33.52 212.28,32.28 216.76,31.04 L216.64,29.92 L211.48,31.24 Z M237.32,1.6 C233.36,3.08 225.12,4.16 218.6,4.8 C218.76,5.08 218.88,5.52 218.96,5.8 C225.68,5.2 233.84,4.12 238.4,2.48 L237.32,1.6 Z M234.84,14.44 C236.12,12.32 237.64,9.04 238.8,6.36 L237.64,6 C236.8,8.32 235.16,11.96 233.88,14.04 L234.84,14.44 Z M230.44,12.92 C230.04,11.36 229.04,8.68 228.04,6.68 L226.96,7 C227.96,9.04 228.92,11.8 229.36,13.4 L230.44,12.92 Z M223.84,14.32 C223.32,12.68 222.04,9.96 220.8,7.92 L219.8,8.24 C221,10.32 222.24,13.12 222.76,14.8 L223.84,14.32 Z M229.52,18.04 L237,18.04 L237,25.16 L229.96,25.16 L229.96,26.32 L237,26.32 L237,33.76 L221.04,33.76 L221.04,26.32 L227.84,26.32 L227.84,25.16 L221.04,25.16 L221.04,19.24 C223.24,18.32 225.68,17.16 227.52,16.08 L226.36,15.2 C224.84,16.24 222.16,17.6 219.84,18.64 L219.84,36.84 L221.04,36.84 L221.04,34.92 L237,34.92 L237,36.64 L238.16,36.64 L238.16,16.88 L229.52,16.88 L229.52,18.04 Z" id="健身/舞蹈" fill="#444444" sketch:type="MSShapeGroup"></path>
            <path d="M50,21 L0,21 L0,22 L50,22 L50,21 Z M259,21 L310,21 L310,22 L259,22 L259,21 Z" id="line" fill="#BBBBBB" sketch:type="MSShapeGroup"></path>
        </g>
    </g>
</svg>