<?xml version="1.0" encoding="UTF-8" standalone="no"?>
<svg width="410px" height="50px" viewBox="0 0 410 50" version="1.1" xmlns="http://www.w3.org/2000/svg" xmlns:xlink="http://www.w3.org/1999/xlink" xmlns:sketch="http://www.bohemiancoding.com/sketch/ns">
    <!-- Generator: Sketch 3.4 (15575) - http://www.bohemiancoding.com/sketch -->
    <title>img_category_heading_geek</title>
    <desc>Created with Sketch.</desc>
    <defs></defs>
    <g id="spec" stroke="none" stroke-width="1" fill="none" fill-rule="evenodd" sketch:type="MSPage">
        <g id="heading_item" sketch:type="MSLayerGroup" transform="translate(50.000000, 7.000000)">
            <path d="M50,21 L0,21 L0,22 L50,22 L50,21 Z M259,21 L310,21 L310,22 L259,22 L259,21 Z" id="line" fill="#BBBBBB" sketch:type="MSShapeGroup"></path>
            <path d="M94.72,9.16 C93.28,7.56 90.36,5.36 87.76,3.96 L87.04,4.76 C89.56,6.24 92.52,8.48 93.92,10.08 L94.72,9.16 Z M93.84,19.84 C92.24,18.16 88.92,15.8 86.04,14.28 L85.32,15.04 C88.2,16.56 91.48,18.96 93.12,20.68 L93.84,19.84 Z M76.88,13.28 L83.44,13.28 L83.44,12.12 L76.88,12.12 L76.88,4.2 C78.96,3.68 80.88,3.12 82.32,2.48 L81.36,1.56 C78.6,2.88 73.12,4 68.72,4.76 C68.84,5.04 69.04,5.44 69.12,5.72 C71.2,5.4 73.52,5 75.72,4.48 L75.72,12.12 L68.28,12.12 L68.28,13.28 L75.52,13.28 C73.8,18.6 70.44,24.72 67.6,27.8 C67.88,27.96 68.28,28.4 68.44,28.68 C70.96,25.84 73.84,20.56 75.72,15.68 L75.72,36.72 L76.88,36.72 L76.88,15.92 C78.48,18.08 81.12,21.92 81.92,23.36 L82.84,22.4 C81.92,21.12 78.24,16.04 76.88,14.36 L76.88,13.28 Z M104.28,25 L104.08,23.96 L98.68,24.76 L98.68,0.8 L97.52,0.8 L97.52,24.92 L83.16,27.08 L83.36,28.16 L97.52,26 L97.52,36.76 L98.68,36.76 L98.68,25.88 L104.28,25 Z M120.64,20 L120.48,18.88 L115.28,20.52 L115.28,10.52 L120.24,10.52 L120.24,9.36 L115.28,9.36 L115.28,0.8 L114.12,0.8 L114.12,9.36 L108.4,9.36 L108.4,10.52 L114.12,10.52 L114.12,20.92 C111.76,21.68 109.6,22.36 107.92,22.8 L108.44,24.04 C110.12,23.48 112.08,22.84 114.12,22.16 L114.12,34.92 C114.12,35.52 113.88,35.72 113.32,35.72 C112.84,35.76 111.04,35.76 108.84,35.72 C109.04,36.08 109.24,36.56 109.32,36.84 C112,36.88 113.4,36.84 114.16,36.64 C114.88,36.4 115.28,36 115.28,34.88 L115.28,21.8 L120.64,20 Z M139.68,17.28 C138,21.92 135.16,25.72 131.72,28.72 C128.56,25.6 126.16,21.72 124.6,17.28 L139.68,17.28 Z M140.52,16.04 L140.24,16.12 L132.32,16.12 L132.32,8.84 L142.6,8.84 L142.6,7.68 L132.32,7.68 L132.32,0.8 L131.16,0.8 L131.16,7.68 L120.88,7.68 L120.88,8.84 L131.16,8.84 L131.16,16.12 L121.8,16.12 L121.8,17.28 L123.36,17.28 C125.04,22.04 127.56,26.2 130.8,29.48 C127.08,32.52 122.76,34.64 118.6,35.8 C118.8,36.08 119.12,36.52 119.28,36.88 C123.52,35.56 127.84,33.4 131.64,30.32 C134.84,33.28 138.68,35.52 143.08,36.88 C143.32,36.52 143.64,36.12 143.96,35.84 C139.52,34.64 135.68,32.48 132.52,29.56 C136.32,26.2 139.48,21.88 141.24,16.48 L140.52,16.04 Z M146.44,41.04 L147.84,41.04 L161.8,2.72 L160.44,2.72 L146.44,41.04 Z M181.28,18.16 C180.16,17.36 175.32,14.28 173.64,13.28 C173.8,12.76 173.96,12.24 174.04,11.72 L182.08,11.72 L182.08,10.56 L174.24,10.56 C174.32,9.84 174.36,9.16 174.36,8.52 L174.36,5.6 L181,5.6 L181,4.44 L169.04,4.44 C169.52,3.36 170,2.2 170.4,1.08 L169.24,0.8 C168.2,3.88 166.56,6.88 164.56,9.04 C164.88,9.2 165.44,9.6 165.6,9.72 C166.6,8.6 167.56,7.16 168.4,5.6 L173.2,5.6 L173.2,8.52 C173.2,9.16 173.16,9.84 173.08,10.56 L164.24,10.56 L164.24,11.72 L172.88,11.72 C172.2,14.64 170.12,17.92 163.96,20.4 C164.24,20.64 164.6,21.08 164.76,21.36 C169.64,19.2 172.04,16.64 173.28,14.16 C175.24,15.44 179.28,18.24 180.56,19.28 L181.28,18.16 Z M192.36,21.96 L192.36,27.32 L171.64,27.32 L171.64,21.96 L192.36,21.96 Z M171.64,34.04 L171.64,28.48 L192.36,28.48 L192.36,34.04 L171.64,34.04 Z M170.48,36.84 L171.64,36.84 L171.64,35.2 L192.36,35.2 L192.36,36.68 L193.52,36.68 L193.52,20.8 L170.48,20.8 L170.48,36.84 Z M195.76,15.84 L185.24,15.84 L185.24,5.56 L195.76,5.56 L195.76,15.84 Z M184.08,4.4 L184.08,17 L196.92,17 L196.92,4.4 L184.08,4.4 Z M236.2,17.88 C238.96,17.88 239.4,16.72 239.6,12.12 C239.2,12 238.76,11.84 238.44,11.6 C238.28,15.96 237.96,16.72 236.16,16.72 L227.84,16.72 C225.68,16.72 225.28,16.4 225.28,15.28 L225.28,9.52 C229.52,8.24 234.36,6.64 237.6,5.24 L236.64,4.28 C234,5.56 229.32,7.16 225.28,8.4 L225.28,0.76 L224.12,0.76 L224.12,15.28 C224.12,17.44 224.96,17.88 227.96,17.88 L236.2,17.88 Z M207.52,26.92 L207.52,21.92 L218.56,21.92 L218.56,26.92 L207.52,26.92 Z M218.56,16 L218.56,20.76 L207.52,20.76 L207.52,16 L218.56,16 Z M219.72,14.84 L206.36,14.84 L206.36,36.8 L207.52,36.8 L207.52,28.08 L218.56,28.08 L218.56,34.8 C218.56,35.32 218.44,35.48 217.88,35.48 C217.28,35.52 215.44,35.56 213.04,35.48 C213.28,35.88 213.48,36.36 213.56,36.72 C216.16,36.72 217.84,36.72 218.68,36.48 C219.48,36.24 219.72,35.8 219.72,34.76 L219.72,14.84 Z M214.68,3.6 C216.08,5.24 217.48,7.24 218.64,9.08 L206.8,9.68 C208.68,7.44 210.64,4.4 212.32,1.28 L211.2,0.72 C209.72,4.04 207.2,7.52 206.48,8.36 C205.8,9.28 205.28,9.84 204.72,9.92 C204.88,10.24 205.08,10.92 205.12,11.2 C205.8,10.96 206.92,10.84 219.24,10.08 C219.68,10.88 220.12,11.6 220.4,12.28 L221.28,11.68 C220.32,9.4 217.84,5.8 215.56,3.12 L214.68,3.6 Z M227.92,35.28 C225.72,35.28 225.28,34.96 225.28,33.8 L225.28,27.6 C229.72,26.44 235.12,24.84 238.12,22.96 L237.32,22 C234.68,23.68 229.6,25.32 225.28,26.48 L225.28,19.32 L224.12,19.32 L224.12,33.76 C224.12,35.96 224.96,36.4 228.04,36.4 L236.36,36.4 C239.28,36.4 239.72,35.16 239.92,30.04 C239.56,29.96 239.12,29.76 238.8,29.52 C238.6,34.44 238.28,35.28 236.36,35.28 L227.92,35.28 Z" id="科技/智能" fill="#444444" sketch:type="MSShapeGroup"></path>
        </g>
    </g>
</svg>