<?xml version="1.0" encoding="UTF-8" standalone="no"?>
<svg width="410px" height="50px" viewBox="0 0 410 50" version="1.1" xmlns="http://www.w3.org/2000/svg" xmlns:xlink="http://www.w3.org/1999/xlink" xmlns:sketch="http://www.bohemiancoding.com/sketch/ns">
    <!-- Generator: Sketch 3.4 (15575) - http://www.bohemiancoding.com/sketch -->
    <title>img_category_heading_home</title>
    <desc>Created with Sketch.</desc>
    <defs></defs>
    <g id="spec" stroke="none" stroke-width="1" fill="none" fill-rule="evenodd" sketch:type="MSPage">
        <g id="heading_item" sketch:type="MSLayerGroup" transform="translate(50.000000, 6.000000)">
            <path d="M71.16,5.92 L101.28,5.92 L101.28,12.16 L102.44,12.16 L102.44,4.76 L87.04,4.76 C86.56,3.64 85.56,1.92 84.72,0.68 L83.6,1.04 C84.4,2.12 85.16,3.6 85.72,4.76 L70,4.76 L70,12.16 L71.16,12.16 L71.16,5.92 Z M98.28,15.08 C95.8,17.32 91.56,20.4 88.24,22.44 C87.32,19.8 85.84,17.16 83.56,15 C84.8,14.24 85.88,13.44 86.84,12.6 L98,12.6 L98,11.44 L74.16,11.44 L74.16,12.6 L85.2,12.6 C81.24,15.72 75.12,18.24 69.8,19.84 C70.08,20.04 70.48,20.6 70.6,20.84 C74.52,19.56 78.96,17.76 82.72,15.56 C83.8,16.6 84.72,17.8 85.44,19 C81.88,21.84 74.96,25.08 69.92,26.44 C70.16,26.72 70.48,27.2 70.6,27.52 C75.6,25.92 82.12,22.8 85.96,19.92 C86.72,21.28 87.2,22.68 87.56,24.08 C83.56,27.92 75.56,32 69.12,33.6 C69.36,33.88 69.68,34.36 69.8,34.68 C76.04,32.88 83.44,29.04 87.84,25.24 C88.76,29.8 87.8,33.88 86,35 C85.08,35.6 84.24,35.68 83.04,35.68 C82.32,35.68 80.84,35.6 79.4,35.48 C79.56,35.8 79.72,36.28 79.72,36.6 C81.04,36.68 82.44,36.72 83.28,36.72 C84.84,36.72 85.68,36.52 86.8,35.76 C89.12,34.24 90.12,28.84 88.56,23.36 C89.36,22.88 90.24,22.32 91.16,21.76 C93.4,27.84 97.92,32.92 103.36,35.2 C103.52,34.88 103.88,34.48 104.16,34.24 C98.68,32.16 94.2,27.12 92.08,21.12 C94.6,19.44 97.28,17.52 99.28,15.8 L98.28,15.08 Z M113.36,17.16 C113.4,16.28 113.4,15.44 113.4,14.64 L113.4,11.56 L127.96,11.56 L127.96,17.16 L113.36,17.16 Z M139.68,4.28 L139.68,10.4 L113.4,10.4 L113.4,4.28 L139.68,4.28 Z M138.88,34 L118.76,34 L118.76,25.56 L138.88,25.56 L138.88,34 Z M143.4,18.32 L143.4,17.16 L129.12,17.16 L129.12,11.56 L140.84,11.56 L140.84,3.12 L112.24,3.12 L112.24,14.64 C112.24,21.08 111.84,29.76 107.8,36.16 C108.08,36.28 108.6,36.56 108.8,36.8 C112.16,31.44 113.12,24.32 113.32,18.32 L127.96,18.32 L127.96,24.4 L117.6,24.4 L117.6,36.8 L118.76,36.8 L118.76,35.16 L138.88,35.16 L138.88,36.68 L140.04,36.68 L140.04,24.4 L129.12,24.4 L129.12,18.32 L143.4,18.32 Z M146.44,41.04 L147.84,41.04 L161.8,2.72 L160.44,2.72 L146.44,41.04 Z M167,5.92 L197.12,5.92 L197.12,12.16 L198.28,12.16 L198.28,4.76 L182.88,4.76 C182.4,3.64 181.4,1.92 180.56,0.68 L179.44,1.04 C180.24,2.12 181,3.6 181.56,4.76 L165.84,4.76 L165.84,12.16 L167,12.16 L167,5.92 Z M194.12,15.08 C191.64,17.32 187.4,20.4 184.08,22.44 C183.16,19.8 181.68,17.16 179.4,15 C180.64,14.24 181.72,13.44 182.68,12.6 L193.84,12.6 L193.84,11.44 L170,11.44 L170,12.6 L181.04,12.6 C177.08,15.72 170.96,18.24 165.64,19.84 C165.92,20.04 166.32,20.6 166.44,20.84 C170.36,19.56 174.8,17.76 178.56,15.56 C179.64,16.6 180.56,17.8 181.28,19 C177.72,21.84 170.8,25.08 165.76,26.44 C166,26.72 166.32,27.2 166.44,27.52 C171.44,25.92 177.96,22.8 181.8,19.92 C182.56,21.28 183.04,22.68 183.4,24.08 C179.4,27.92 171.4,32 164.96,33.6 C165.2,33.88 165.52,34.36 165.64,34.68 C171.88,32.88 179.28,29.04 183.68,25.24 C184.6,29.8 183.64,33.88 181.84,35 C180.92,35.6 180.08,35.68 178.88,35.68 C178.16,35.68 176.68,35.6 175.24,35.48 C175.4,35.8 175.56,36.28 175.56,36.6 C176.88,36.68 178.28,36.72 179.12,36.72 C180.68,36.72 181.52,36.52 182.64,35.76 C184.96,34.24 185.96,28.84 184.4,23.36 C185.2,22.88 186.08,22.32 187,21.76 C189.24,27.84 193.76,32.92 199.2,35.2 C199.36,34.88 199.72,34.48 200,34.24 C194.52,32.16 190.04,27.12 187.92,21.12 C190.44,19.44 193.12,17.52 195.12,15.8 L194.12,15.08 Z M227.48,16.32 L218.32,16.32 L218.32,17.48 L238.12,17.48 L238.12,16.32 L228.64,16.32 L228.64,8.32 L238.88,8.32 L238.88,7.16 L228.64,7.16 L228.64,0.76 L227.48,0.76 L227.48,7.16 L216.96,7.16 L216.96,8.32 L227.48,8.32 L227.48,16.32 Z M211.2,7.6 C210.28,6.28 208.16,4.56 206.36,3.4 L205.44,4.16 C207.28,5.36 209.32,7.12 210.32,8.4 L211.2,7.6 Z M213.76,19.08 L214.92,19.08 L214.92,0.76 L213.76,0.76 L213.76,10.64 C210,12.48 206.28,14.28 203.72,15.4 L204.24,16.56 C206.92,15.28 210.36,13.56 213.76,11.92 L213.76,19.08 Z M235.8,25.12 C233.88,26.44 230.64,28.32 228.08,29.56 C225.96,27.8 224.24,25.72 222.92,23.44 L239.56,23.44 L239.56,22.28 L223.64,22.28 C223.12,21.12 222.24,19.6 221.4,18.4 L220.28,18.72 C221,19.8 221.8,21.12 222.32,22.28 L204.28,22.28 L204.28,23.44 L219.88,23.44 C215.96,26.64 209.28,29.48 203.84,30.72 C204.12,31 204.48,31.44 204.68,31.76 C207.28,31.08 210.16,30.04 212.96,28.76 L212.96,33.48 C212.96,34.92 211.8,35.48 211.16,35.68 C211.4,36.04 211.72,36.56 211.84,36.92 C212.48,36.48 213.6,36.16 225.16,33.48 C225.12,33.24 225.08,32.72 225.08,32.4 L214.16,34.84 L214.16,28.2 C217,26.8 219.68,25.16 221.56,23.44 L221.64,23.44 C224.96,29.76 231.6,34.44 239.08,36.48 C239.24,36.16 239.56,35.72 239.84,35.48 C235.76,34.44 231.96,32.6 228.8,30.2 C231.44,29.04 234.6,27.36 236.84,25.84 L235.8,25.12 Z" id="家居/家装" fill="#444444" sketch:type="MSShapeGroup"></path>
            <path d="M50,21 L0,21 L0,22 L50,22 L50,21 Z M259,21 L310,21 L310,22 L259,22 L259,21 Z" id="line" fill="#BBBBBB" sketch:type="MSShapeGroup"></path>
        </g>
    </g>
</svg>