<?xml version="1.0" encoding="utf-8"?>
<!-- Generator: Adobe Illustrator 17.0.0, SVG Export Plug-In . SVG Version: 6.00 Build 0)  -->
<!DOCTYPE svg PUBLIC "-//W3C//DTD SVG 1.1//EN" "http://www.w3.org/Graphics/SVG/1.1/DTD/svg11.dtd">
<svg version="1.1" id="图层_1" xmlns="http://www.w3.org/2000/svg" xmlns:xlink="http://www.w3.org/1999/xlink" x="0px" y="0px"
	 width="18px" height="18px" viewBox="0 0 18 18" enable-background="new 0 0 18 18" xml:space="preserve">
<path fill-rule="evenodd" clip-rule="evenodd" fill="#999999" d="M18,11.5v1h-1.05c-0.085,0.591-0.313,1.131-0.655,1.587
	l0.741,0.741l-0.707,0.707l-0.741-0.741c-0.457,0.342-0.997,0.57-1.587,0.655v1.05h-1v-1.05c-0.591-0.085-1.131-0.313-1.587-0.655
	l-0.741,0.741l-0.707-0.707l0.741-0.741c-0.342-0.457-0.57-0.997-0.655-1.587H9v-1h1.05c0.085-0.591,0.313-1.131,0.655-1.587
	L9.965,9.172l0.707-0.707l0.741,0.741C11.869,8.864,12.409,8.636,13,8.55V7.5h1v1.05c0.591,0.085,1.131,0.313,1.587,0.655
	l0.741-0.741l0.707,0.707l-0.741,0.741c0.342,0.457,0.57,0.997,0.655,1.587H18z M13.5,10.5c-0.828,0-1.5,0.672-1.5,1.5
	c0,0.828,0.672,1.5,1.5,1.5S15,12.828,15,12C15,11.172,14.328,10.5,13.5,10.5z M8.257,10.424C8.01,10.466,7.759,10.5,7.5,10.5
	C5.015,10.5,3,8.485,3,6s2.015-4.5,4.5-4.5S12,3.515,12,6c0,0.259-0.034,0.51-0.076,0.757C10.162,7.287,8.787,8.662,8.257,10.424z
	 M8,12c0,1.864,0.933,3.505,2.351,4.5H0c0-3.314,3.358-6,7.5-6c0.245,0,0.476,0.039,0.715,0.058C8.089,11.02,8,11.497,8,12z"/>
</svg>
