<?xml version="1.0" encoding="UTF-8" standalone="no"?>
<svg width="410px" height="50px" viewBox="0 0 410 50" version="1.1" xmlns="http://www.w3.org/2000/svg" xmlns:xlink="http://www.w3.org/1999/xlink" xmlns:sketch="http://www.bohemiancoding.com/sketch/ns">
    <!-- Generator: Sketch 3.4 (15575) - http://www.bohemiancoding.com/sketch -->
    <title>img_category_heading_men</title>
    <desc>Created with Sketch.</desc>
    <defs></defs>
    <g id="spec" stroke="none" stroke-width="1" fill="none" fill-rule="evenodd" sketch:type="MSPage">
        <g id="heading_item" sketch:type="MSLayerGroup" transform="translate(50.000000, 6.000000)">
            <path d="M73.92,11.2 L85.4,11.2 L85.4,17.04 L73.92,17.04 L73.92,11.2 Z M73.92,4.24 L85.4,4.24 L85.4,10.04 L73.92,10.04 L73.92,4.24 Z M98.28,10.04 L86.56,10.04 L86.56,4.24 L98.28,4.24 L98.28,10.04 Z M98.28,17.04 L86.56,17.04 L86.56,11.2 L98.28,11.2 L98.28,17.04 Z M85.12,23.24 C85.6,21.68 85.92,19.96 86.16,18.2 L99.44,18.2 L99.44,3.08 L72.76,3.08 L72.76,18.2 L84.92,18.2 C84.68,19.96 84.32,21.68 83.88,23.24 L69,23.24 L69,24.4 L83.48,24.4 C81.56,29.72 77.48,33.8 68.4,35.84 C68.6,36.08 68.96,36.56 69.08,36.88 C78.56,34.68 82.72,30.28 84.76,24.4 L99.48,24.4 C98.72,31.48 98,34.36 96.96,35.24 C96.6,35.56 96.16,35.6 95.24,35.6 C94.4,35.6 91.68,35.56 88.92,35.32 C89.16,35.64 89.28,36.12 89.32,36.48 C91.88,36.68 94.36,36.76 95.48,36.72 C96.64,36.68 97.28,36.56 97.88,36 C99.12,34.84 99.88,31.84 100.68,23.96 C100.72,23.76 100.76,23.24 100.76,23.24 L85.12,23.24 Z M131.64,16.32 L122.48,16.32 L122.48,17.48 L142.28,17.48 L142.28,16.32 L132.8,16.32 L132.8,8.32 L143.04,8.32 L143.04,7.16 L132.8,7.16 L132.8,0.76 L131.64,0.76 L131.64,7.16 L121.12,7.16 L121.12,8.32 L131.64,8.32 L131.64,16.32 Z M115.36,7.6 C114.44,6.28 112.32,4.56 110.52,3.4 L109.6,4.16 C111.44,5.36 113.48,7.12 114.48,8.4 L115.36,7.6 Z M117.92,19.08 L119.08,19.08 L119.08,0.76 L117.92,0.76 L117.92,10.64 C114.16,12.48 110.44,14.28 107.88,15.4 L108.4,16.56 C111.08,15.28 114.52,13.56 117.92,11.92 L117.92,19.08 Z M139.96,25.12 C138.04,26.44 134.8,28.32 132.24,29.56 C130.12,27.8 128.4,25.72 127.08,23.44 L143.72,23.44 L143.72,22.28 L127.8,22.28 C127.28,21.12 126.4,19.6 125.56,18.4 L124.44,18.72 C125.16,19.8 125.96,21.12 126.48,22.28 L108.44,22.28 L108.44,23.44 L124.04,23.44 C120.12,26.64 113.44,29.48 108,30.72 C108.28,31 108.64,31.44 108.84,31.76 C111.44,31.08 114.32,30.04 117.12,28.76 L117.12,33.48 C117.12,34.92 115.96,35.48 115.32,35.68 C115.56,36.04 115.88,36.56 116,36.92 C116.64,36.48 117.76,36.16 129.32,33.48 C129.28,33.24 129.24,32.72 129.24,32.4 L118.32,34.84 L118.32,28.2 C121.16,26.8 123.84,25.16 125.72,23.44 L125.8,23.44 C129.12,29.76 135.76,34.44 143.24,36.48 C143.4,36.16 143.72,35.72 144,35.48 C139.92,34.44 136.12,32.6 132.96,30.2 C135.6,29.04 138.76,27.36 141,25.84 L139.96,25.12 Z M146.44,41.04 L147.84,41.04 L161.8,2.72 L160.44,2.72 L146.44,41.04 Z M187.32,7.8 C186.08,11.64 184.36,15.48 182.32,19.04 C179.68,15.8 176.92,12.56 174.36,9.72 L173.28,10.32 C176,13.32 178.92,16.76 181.64,20.12 C178.72,25 175.12,29.08 171.4,31.44 C171.76,31.68 172.2,32.08 172.48,32.36 C176.12,29.96 179.52,25.92 182.44,21.16 C185.68,25.32 188.6,29.28 190.44,32.2 L191.6,31.44 C189.64,28.4 186.56,24.24 183.08,20 C185.24,16.28 187.04,12.16 188.4,8.08 L187.32,7.8 Z M168.84,3.28 L168.84,15.76 C168.84,21.92 168.36,30.12 164,36 C164.32,36.16 164.76,36.52 164.96,36.8 C169.4,30.68 170,22.08 170,15.76 L170,4.44 L193.76,4.44 C193.92,25.16 193.84,36.4 198.04,36.4 C199.68,36.4 200,35.08 200.2,29.68 C199.92,29.6 199.44,29.36 199.16,29.16 C199.08,32.6 198.88,35.28 198.12,35.28 C195,35.28 194.92,20.96 194.92,3.28 L168.84,3.28 Z M235.12,2.12 C233.72,4.64 231.08,8.36 229.12,10.56 L230.08,11 C232.08,8.8 234.48,5.36 236.2,2.6 L235.12,2.12 Z M214.48,10.32 C213.4,8.12 210.96,4.76 208.64,2.28 L207.72,2.8 C209.92,5.28 212.36,8.68 213.48,10.92 L214.48,10.32 Z M228.04,20.32 L228.04,28.76 L215.76,28.76 L215.76,20.32 L228.04,20.32 Z M229.2,29.92 L229.2,19.16 L214.6,19.16 L214.6,32.56 L215.76,32.56 L215.76,29.92 L229.2,29.92 Z M236.76,12.8 L222.4,12.8 L222.4,0.76 L221.24,0.76 L221.24,12.8 L207.24,12.8 L207.24,36.84 L208.4,36.84 L208.4,13.96 L235.6,13.96 L235.6,34.6 C235.6,35.24 235.44,35.44 234.72,35.48 C233.96,35.52 231.6,35.56 228.56,35.48 C228.72,35.88 228.96,36.36 229.04,36.76 C232.36,36.76 234.52,36.76 235.48,36.52 C236.48,36.28 236.76,35.76 236.76,34.56 L236.76,12.8 Z" id="男装/风尚" fill="#444444" sketch:type="MSShapeGroup"></path>
            <path d="M50,22 L0,22 L0,23 L50,23 L50,22 Z M259,22 L310,22 L310,23 L259,23 L259,22 Z" id="line" fill="#BBBBBB" sketch:type="MSShapeGroup"></path>
        </g>
    </g>
</svg>