<?xml version="1.0" encoding="UTF-8" standalone="no"?>
<svg width="410px" height="50px" viewBox="0 0 410 50" version="1.1" xmlns="http://www.w3.org/2000/svg" xmlns:xlink="http://www.w3.org/1999/xlink" xmlns:sketch="http://www.bohemiancoding.com/sketch/ns">
    <!-- Generator: Sketch 3.4 (15575) - http://www.bohemiancoding.com/sketch -->
    <title>img_category_heading_modeling_hair</title>
    <desc>Created with Sketch.</desc>
    <defs></defs>
    <g id="spec" stroke="none" stroke-width="1" fill="none" fill-rule="evenodd" sketch:type="MSPage">
        <g id="heading_item" sketch:type="MSLayerGroup" transform="translate(50.000000, 6.000000)">
            <path d="M103.72,14.4 L91.64,14.4 L91.64,7.52 L101.88,7.52 L101.88,6.36 L91.64,6.36 L91.64,0.84 L90.48,0.84 L90.48,6.36 L83.72,6.36 C84.44,4.92 85.12,3.36 85.68,1.76 L84.52,1.48 C83.2,5.4 81.04,9.24 78.48,11.84 C78.8,11.96 79.36,12.32 79.56,12.48 C80.8,11.12 82,9.4 83.08,7.52 L90.48,7.52 L90.48,14.4 L78.12,14.4 L78.12,15.56 L103.72,15.56 L103.72,14.4 Z M82.8,20.88 L99.12,20.88 L99.12,29.4 L82.8,29.4 L82.8,20.88 Z M100.28,30.56 L100.28,19.72 L81.64,19.72 L81.64,30.56 L100.28,30.56 Z M76.84,8.96 C75.56,7.28 72.96,4.6 70.72,2.72 L69.8,3.28 C72.04,5.24 74.68,7.96 75.92,9.68 L76.84,8.96 Z M75.28,16.08 L68.16,16.08 L68.16,17.24 L74.12,17.24 L74.12,31.2 C72.4,31.64 70.4,33.24 68.32,35.2 L69.2,36.24 C71.48,33.92 73.52,32.24 74.96,32.24 C75.84,32.24 77,33.36 78.48,34.2 C81.08,35.64 84.56,35.96 89.12,35.96 C93.08,35.96 100.56,35.76 104,35.56 C104.04,35.12 104.24,34.48 104.44,34.12 C100.32,34.48 94.2,34.72 89.12,34.72 C84.76,34.72 81.44,34.48 79,33.16 C77.2,32.12 76.32,31.24 75.28,31.12 L75.28,16.08 Z M141.2,0.8 L140.04,0.8 L140.04,19.48 C140.04,20.04 139.92,20.2 139.24,20.24 C138.6,20.32 136.6,20.32 133.84,20.24 C134.08,20.64 134.28,21.12 134.36,21.48 C137.28,21.48 139.12,21.48 140.04,21.24 C140.92,21 141.2,20.6 141.2,19.48 L141.2,0.8 Z M133.6,3.04 L132.44,3.04 L132.44,16.28 L133.6,16.28 L133.6,3.04 Z M116.04,3.76 L122.6,3.76 L122.6,10.56 L116.04,10.56 L116.04,9.68 L116.04,3.76 Z M122.6,11.72 L122.6,21.16 L123.76,21.16 L123.76,11.72 L129.16,11.72 L129.16,10.56 L123.76,10.56 L123.76,3.76 L128.36,3.76 L128.36,2.6 L110.52,2.6 L110.52,3.76 L114.88,3.76 L114.88,9.68 L114.88,10.56 L109.24,10.56 L109.24,11.72 L114.8,11.72 C114.48,14.92 113.28,18.52 109.4,21.24 C109.68,21.44 110.04,21.84 110.24,22.12 C114.28,19.2 115.6,15.24 115.96,11.72 L122.6,11.72 Z M127.12,34.16 L127.12,27.2 L139.84,27.2 L139.84,26.04 L127.12,26.04 L127.12,20.28 L125.96,20.28 L125.96,26.04 L112.28,26.04 L112.28,27.2 L125.96,27.2 L125.96,34.16 L108,34.16 L108,35.32 L144.16,35.32 L144.16,34.16 L127.12,34.16 Z M146.44,41.04 L147.84,41.04 L161.8,2.72 L160.44,2.72 L146.44,41.04 Z M176.4,6.24 C175.68,4.72 174.04,2.44 172.44,0.76 L171.44,1.28 C172.96,2.96 174.6,5.28 175.32,6.84 L176.4,6.24 Z M199.36,25.04 L199.36,23.88 L181.76,23.88 C182.04,22.6 182.28,21.24 182.48,19.72 L199.56,19.72 L199.56,18.56 L182.44,18.56 L182.44,13.88 L195.88,13.88 L195.88,12.72 L182.44,12.72 L182.44,8.2 L197.84,8.2 L197.84,7.04 L188.36,7.04 C189.64,5.4 191.08,3.24 192.16,1.44 L191.12,0.76 C190.12,2.6 188.4,5.24 187.04,7.04 L166.08,7.04 L166.08,8.2 L181.28,8.2 L181.28,12.72 L168.2,12.72 L168.2,13.88 L181.28,13.88 L181.28,18.56 L164.48,18.56 L164.48,19.72 L181.28,19.72 C181.08,21.24 180.84,22.6 180.48,23.88 L165.32,23.88 L165.32,25.04 L180.16,25.04 C178.28,30.6 174.12,34 164.08,35.64 C164.28,35.88 164.6,36.4 164.68,36.68 C175.12,34.92 179.44,31.24 181.4,25.04 L181.84,25.04 C184.68,31.28 190.88,35.04 198.84,36.6 C199,36.24 199.32,35.8 199.6,35.52 C191.88,34.2 185.96,30.72 183.16,25.04 L199.36,25.04 Z M211.12,12.88 C209.8,11.2 207.2,8.28 205.08,6.08 L204.16,6.8 C206.28,9 208.88,12 210.2,13.76 L211.12,12.88 Z M212.88,18.84 C209.6,22.12 206,25.48 203.76,27.52 L204.72,28.44 C207.04,26.2 210,23.28 212.88,20.44 L212.88,36.8 L214.04,36.8 L214.04,0.84 L212.88,0.84 L212.88,18.84 Z M233.8,12 C232.92,18.24 231.44,23.44 228.52,27.52 C225.96,25.76 223.24,24.08 220.6,22.48 C221.8,19.68 223.24,15.92 224.56,12 L233.8,12 Z M239.92,12 L239.92,10.8 L224.92,10.8 C226.04,7.44 227,4 227.68,1.08 L226.48,0.92 C225.8,3.88 224.8,7.36 223.68,10.8 L215.52,10.8 L215.52,12 L223.28,12 C221.92,16.12 220.4,20.04 219.04,22.8 C222.08,24.64 225.04,26.52 227.8,28.44 C225.12,31.72 221.36,34.24 216.04,35.84 C216.32,36.08 216.72,36.48 216.92,36.8 C222.32,35.12 226.12,32.56 228.84,29.16 C232.44,31.72 235.6,34.24 238,36.48 L239.04,35.76 C236.56,33.4 233.24,30.8 229.56,28.24 C232.64,23.96 234.2,18.52 235.08,12 L239.92,12 Z" id="造型/美妆" fill="#444444" sketch:type="MSShapeGroup"></path>
            <path d="M50,21 L0,21 L0,22 L50,22 L50,21 Z M259,21 L310,21 L310,22 L259,22 L259,21 Z" id="line" fill="#BBBBBB" sketch:type="MSShapeGroup"></path>
        </g>
    </g>
</svg>