<?xml version="1.0" encoding="UTF-8" standalone="no"?>
<svg width="20px" height="140px" viewBox="0 0 20 140" version="1.1" xmlns="http://www.w3.org/2000/svg" xmlns:xlink="http://www.w3.org/1999/xlink" xmlns:sketch="http://www.bohemiancoding.com/sketch/ns">
    <!-- Generator: Sketch 3.0.4 (8053) - http://www.bohemiancoding.com/sketch -->
    <title>notice_icons_18</title>
    <desc>Created with Sketch.</desc>
    <defs></defs>
    <g id="UI-Kit" stroke="none" stroke-width="1" fill="none" fill-rule="evenodd" sketch:type="MSPage">
        <g id="Landscape" sketch:type="MSArtboardGroup" transform="translate(-80.000000, -20.000000)">
            <g id="icon18-/-chack-2" sketch:type="MSLayerGroup" transform="translate(80.000000, 20.000000)">
                <path d="M20,10 C20,4.4771525 15.5228475,0 10,0 C4.4771525,0 0,4.4771525 0,10 C0,15.5228475 4.4771525,20 10,20 C15.5228475,20 20,15.5228475 20,10 Z" id="Path" fill-opacity="0.4" fill="#FFFFFF" sketch:type="MSShapeGroup"></path>
                <path d="M19,10 C19,5.02943725 14.9705627,1 10,1 C5.02943725,1 1,5.02943725 1,10 C1,14.9705627 5.02943725,19 10,19 C14.9705627,19 19,14.9705627 19,10 Z" id="Path" fill="#6BC00E" sketch:type="MSShapeGroup"></path>
                <path d="M7,12 L6,12 L6,7 L8,7 L8,10 L14,10 L14,12 L7,12 Z" id="Rectangle-18" fill="#FFFFFF" sketch:type="MSShapeGroup" transform="translate(10.000000, 9.500000) rotate(-45.000000) translate(-10.000000, -9.500000) "></path>
            </g>
            <g id="icon18/info-2" sketch:type="MSLayerGroup" transform="translate(80.000000, 60.000000)">
                <path d="M20,10 C20,4.4771525 15.5228475,0 10,0 C4.4771525,0 0,4.4771525 0,10 C0,15.5228475 4.4771525,20 10,20 C15.5228475,20 20,15.5228475 20,10 Z" id="Path" fill-opacity="0.4" fill="#FFFFFF" sketch:type="MSShapeGroup"></path>
                <path d="M19,10 C19,5.02943725 14.9705627,1 10,1 C5.02943725,1 1,5.02943725 1,10 C1,14.9705627 5.02943725,19 10,19 C14.9705627,19 19,14.9705627 19,10 Z" id="Path" fill="#6EA7EA" sketch:type="MSShapeGroup"></path>
                <path d="M9,9 L9,16 L11,16 L11,9 L9,9 Z M9,5 L9,7 L11,7 L11,5 L9,5 Z" id="Rectangle-18" fill="#FFFFFF" sketch:type="MSShapeGroup"></path>
            </g>
            <g id="icon18/notice-2" sketch:type="MSLayerGroup" transform="translate(80.000000, 100.000000)">
                <path d="M20,10 C20,4.4771525 15.5228475,0 10,0 C4.4771525,0 0,4.4771525 0,10 C0,15.5228475 4.4771525,20 10,20 C15.5228475,20 20,15.5228475 20,10 Z" id="Path" fill-opacity="0.4" fill="#FFFFFF" sketch:type="MSShapeGroup"></path>
                <path d="M19,10 C19,5.02943725 14.9705627,1 10,1 C5.02943725,1 1,5.02943725 1,10 C1,14.9705627 5.02943725,19 10,19 C14.9705627,19 19,14.9705627 19,10 Z" id="Path" fill="#F5A623" sketch:type="MSShapeGroup"></path>
                <path d="M9,9 L9,16 L11,16 L11,9 L9,9 Z M9,5 L9,7 L11,7 L11,5 L9,5 Z" id="Rectangle-18" fill="#FFFFFF" sketch:type="MSShapeGroup" transform="translate(10.000000, 10.500000) scale(1, -1) translate(-10.000000, -10.500000) "></path>
            </g>
            <g id="icon18/error-2" sketch:type="MSLayerGroup" transform="translate(80.000000, 140.000000)">
                <path d="M20,10 C20,4.4771525 15.5228475,0 10,0 C4.4771525,0 0,4.4771525 0,10 C0,15.5228475 4.4771525,20 10,20 C15.5228475,20 20,15.5228475 20,10 Z" id="Path" fill-opacity="0.4" fill="#FFFFFF" sketch:type="MSShapeGroup"></path>
                <path d="M19,10 C19,5.02943725 14.9705627,1 10,1 C5.02943725,1 1,5.02943725 1,10 C1,14.9705627 5.02943725,19 10,19 C14.9705627,19 19,14.9705627 19,10 Z" id="Path" fill="#EC0000" sketch:type="MSShapeGroup"></path>
                <path d="M8.58578644,10 L5.75735931,12.8284271 L7.17157288,14.2426407 L10,11.4142136 L12.8284271,14.2426407 L14.2426407,12.8284271 L11.4142136,10 L14.2426407,7.17157288 L12.8284271,5.75735931 L10,8.58578644 L7.17157288,5.75735931 L5.75735931,7.17157288 L8.58578644,10 L8.58578644,10 Z" id="Rectangle-18" fill="#FFFFFF" sketch:type="MSShapeGroup"></path>
            </g>
        </g>
    </g>
</svg>