<?xml version="1.0" encoding="UTF-8" standalone="no"?>
<svg width="410px" height="50px" viewBox="0 0 410 50" version="1.1" xmlns="http://www.w3.org/2000/svg" xmlns:xlink="http://www.w3.org/1999/xlink" xmlns:sketch="http://www.bohemiancoding.com/sketch/ns">
    <!-- Generator: Sketch 3.4 (15575) - http://www.bohemiancoding.com/sketch -->
    <title>img_category_heading_other</title>
    <desc>Created with Sketch.</desc>
    <defs></defs>
    <g id="spec" stroke="none" stroke-width="1" fill="none" fill-rule="evenodd" sketch:type="MSPage">
        <g id="heading_item" sketch:type="MSLayerGroup" transform="translate(92.000000, 6.000000)">
            <path d="M48,21 L0,21 L0,22 L48,22 L48,21 Z M174,21 L220,21 L220,22 L174,22 L174,21 Z" id="line" fill="#BBBBBB" sketch:type="MSShapeGroup"></path>
            <path d="M86.92,29.76 C84.12,31.88 78.52,34.32 74.08,35.72 C74.36,35.96 74.76,36.44 74.92,36.72 C79.32,35.2 84.76,32.8 88.28,30.4 L86.92,29.76 Z M95.84,30.68 C100.84,32.56 105.76,34.8 108.84,36.64 L109.68,35.68 C106.48,33.88 101.44,31.6 96.52,29.84 L95.84,30.68 Z M83.44,21.24 L100.64,21.24 L100.64,27.16 L83.44,27.16 L83.44,21.24 Z M100.64,7.36 L100.64,12.88 L83.44,12.88 L83.44,7.36 L100.64,7.36 Z M83.44,14.04 L100.64,14.04 L100.64,20.08 L83.44,20.08 L83.44,14.04 Z M101.8,27.16 L101.8,7.36 L108.76,7.36 L108.76,6.2 L101.8,6.2 L101.8,0.84 L100.64,0.84 L100.64,6.2 L83.44,6.2 L83.44,0.84 L82.28,0.84 L82.28,6.2 L75.4,6.2 L75.4,7.36 L82.28,7.36 L82.28,27.16 L74.36,27.16 L74.36,28.32 L109.68,28.32 L109.68,27.16 L101.8,27.16 Z M133.76,5.96 C133.2,4.56 131.92,2.24 130.76,0.56 L129.68,0.92 C130.8,2.64 132.08,4.96 132.64,6.4 L133.76,5.96 Z M127.36,34.64 C123.76,34.64 122.96,34.04 122.96,32.04 L122.96,23.88 C130.04,21.88 137.88,19.24 142.76,16.72 L141.56,15.84 C137.52,18.2 129.8,20.88 122.96,22.88 L122.96,12.28 L121.8,12.28 L121.8,32 C121.8,35.16 123.16,35.8 127.64,35.8 L141.72,35.8 C146.12,35.8 146.76,34.2 147.16,28.6 C146.76,28.48 146.32,28.28 145.96,28.04 C145.6,33.48 145.08,34.64 141.88,34.64 L127.36,34.64 Z M115.76,6.52 L115.76,13.76 L116.92,13.76 L116.92,7.68 L146.92,7.68 L146.92,13.76 L148.08,13.76 L148.08,6.52 L115.76,6.52 Z" id="其它" fill="#444444" sketch:type="MSShapeGroup"></path>
        </g>
    </g>
</svg>