<?xml version="1.0" encoding="utf-8"?>
<!-- Generator: Adobe Illustrator 17.0.0, SVG Export Plug-In . SVG Version: 6.00 Build 0)  -->
<!DOCTYPE svg PUBLIC "-//W3C//DTD SVG 1.1//EN" "http://www.w3.org/Graphics/SVG/1.1/DTD/svg11.dtd">
<svg version="1.1" id="图层_1" xmlns="http://www.w3.org/2000/svg" xmlns:xlink="http://www.w3.org/1999/xlink" x="0px" y="0px"
	 width="40px" height="40px" viewBox="0 0 40 40" enable-background="new 0 0 40 40" xml:space="preserve">
	<path fill="#EE491E" d="M20,0C8.954,0,0,8.954,0,20s8.954,20,20,20c11.046,0,20-8.954,20-20S31.046,0,20,0z M20,38
		c-9.941,0-18-8.059-18-18S10.059,2,20,2s18,8.059,18,18S29.941,38,20,38z M27.322,9.26l-1.127,1.652
		C29.095,12.894,31,16.224,31,20c0,3.961-2.1,7.422-5.241,9.359l1.047,1.702C30.518,28.771,33,24.681,33,20
		C33,15.537,30.749,11.602,27.322,9.26z M21,17.184V7l-8,7H8v13h5l8,6V22.816c1.162-0.413,2-1.512,2-2.816
		C23,18.696,22.162,17.597,21,17.184z M13,25h-3v-9h3V25z M19,28.502l-4-3.219v-9.71l4-3.645V28.502z"/>
</svg>
