<?xml version="1.0" encoding="UTF-8" standalone="no"?>
<svg width="410px" height="50px" viewBox="0 0 410 50" version="1.1" xmlns="http://www.w3.org/2000/svg" xmlns:xlink="http://www.w3.org/1999/xlink" xmlns:sketch="http://www.bohemiancoding.com/sketch/ns">
    <!-- Generator: Sketch 3.4 (15575) - http://www.bohemiancoding.com/sketch -->
    <title>img_category_heading_travel_places</title>
    <desc>Created with Sketch.</desc>
    <defs></defs>
    <g id="spec" stroke="none" stroke-width="1" fill="none" fill-rule="evenodd" sketch:type="MSPage">
        <g id="heading_item" sketch:type="MSLayerGroup" transform="translate(92.000000, 6.000000)">
            <path d="M48,21 L0,21 L0,22 L48,22 L48,21 Z M174,21 L220,21 L220,22 L174,22 L174,21 Z" id="line" fill="#BBBBBB" sketch:type="MSShapeGroup"></path>
            <path d="M83.84,6.28 C83.4,4.84 82.32,2.56 81.36,0.8 L80.28,1.24 C81.2,3 82.24,5.32 82.76,6.8 L83.84,6.28 Z M80.48,15.56 L80.48,9.04 L89.8,9.04 L89.8,7.88 L74.44,7.88 L74.44,9.04 L79.32,9.04 L79.32,15.84 C79.32,22.04 78.76,29.72 73.8,35.84 C74.12,36.04 74.52,36.36 74.72,36.6 C79.6,30.36 80.4,23.24 80.48,16.72 L86.72,16.72 C86.44,29.36 86.04,33.76 85.32,34.68 C85.04,35.12 84.76,35.16 84.2,35.16 C83.64,35.16 82.16,35.16 80.52,35 C80.76,35.36 80.88,35.84 80.88,36.2 C82.2,36.28 83.6,36.32 84.4,36.28 C85.32,36.28 85.88,36.04 86.36,35.44 C87.32,34.16 87.6,30.08 87.92,16.4 C87.96,16.12 87.96,15.56 87.96,15.56 L80.48,15.56 Z M109.56,7.8 L109.56,6.64 L94.4,6.64 C95.16,4.84 95.88,2.96 96.44,1 L95.24,0.76 C93.96,5.52 91.76,10.04 89.04,13.08 C89.32,13.28 89.84,13.64 90.04,13.84 C91.44,12.16 92.72,10.08 93.84,7.8 L109.56,7.8 Z M108.36,16.52 C106.72,18.12 103.92,20.4 101.68,21.92 C100.88,19.28 100.28,16.4 99.8,13.4 C103.08,12.52 106.28,11.52 108.6,10.44 L107.36,9.56 C104.24,11.16 98.16,12.8 93,13.96 L93,33 C93,34.56 92.36,35.2 92,35.48 C92.24,35.72 92.6,36.28 92.72,36.6 C93.32,35.96 94.2,35.52 101.56,31.76 C101.44,31.52 101.28,31 101.24,30.68 L94.16,34.2 L94.16,14.76 C95.64,14.4 97.2,14.08 98.76,13.68 C100.36,23.76 103.56,32.36 109.24,36.32 C109.44,36 109.84,35.64 110.16,35.44 C106.52,33.04 103.84,28.56 102,23 C104.32,21.48 107.24,19.28 109.32,17.24 L108.36,16.52 Z M148.72,3.32 L128.96,3.32 L128.96,4.52 L148.72,4.52 L148.72,3.32 Z M123.16,0.72 C121.04,3.72 117.12,7.28 113.76,9.64 C114,9.84 114.4,10.28 114.6,10.52 C117.96,8.04 121.88,4.4 124.32,1.2 L123.16,0.72 Z M124.88,9.2 C122,13.8 117.56,18.44 113.36,21.48 C113.64,21.68 114.12,22.16 114.32,22.36 C116.24,20.84 118.24,19 120.16,16.96 L120.16,37 L121.32,37 L121.32,15.72 C123.04,13.76 124.64,11.68 126,9.56 L124.88,9.2 Z M149.96,14.32 L127.16,14.32 L127.16,15.48 L142.2,15.48 L142.2,34.72 C142.2,35.44 141.92,35.64 141.12,35.68 C140.4,35.76 137.64,35.76 134.24,35.68 C134.48,36.04 134.68,36.44 134.76,36.72 C139,36.72 141.04,36.72 142.04,36.56 C142.96,36.32 143.36,35.84 143.36,34.68 L143.36,15.48 L149.96,15.48 L149.96,14.32 Z" id="旅行" fill="#444444" sketch:type="MSShapeGroup"></path>
        </g>
    </g>
</svg>