<?xml version="1.0" encoding="UTF-8" standalone="no"?>
<svg width="410px" height="50px" viewBox="0 0 410 50" version="1.1" xmlns="http://www.w3.org/2000/svg" xmlns:xlink="http://www.w3.org/1999/xlink" xmlns:sketch="http://www.bohemiancoding.com/sketch/ns">
    <!-- Generator: Sketch 3.4 (15575) - http://www.bohemiancoding.com/sketch -->
    <title>img_category_heading_web_app_icon</title>
    <desc>Created with Sketch.</desc>
    <defs></defs>
    <g id="spec" stroke="none" stroke-width="1" fill="none" fill-rule="evenodd" sketch:type="MSPage">
        <g id="heading_item" sketch:type="MSLayerGroup" transform="translate(92.000000, 8.000000)">
            <path d="M48,19 L0,19 L0,20 L48,20 L48,19 Z M174,19 L220,19 L220,20 L174,20 L174,19 Z" id="line" fill="#BBBBBB" sketch:type="MSShapeGroup"></path>
            <path d="M74.86,32.52 C79.58,32.52 84.5,30.12 84.5,21.12 L84.5,2.96 L83.06,2.96 L83.06,20.8 C83.06,28.76 79.14,31.12 74.86,31.12 C70.66,31.12 66.82,28.76 66.82,20.8 L66.82,2.96 L65.34,2.96 L65.34,21.12 C65.34,30.12 70.14,32.52 74.86,32.52 L74.86,32.52 Z M93.18,32 L94.66,32 L94.66,2.96 L93.18,2.96 L93.18,32 Z M99.42,39.04 L100.82,39.04 L114.78,0.72 L113.42,0.72 L99.42,39.04 Z M128.74,32.52 C133.46,32.52 138.38,30.12 138.38,21.12 L138.38,2.96 L136.94,2.96 L136.94,20.8 C136.94,28.76 133.02,31.12 128.74,31.12 C124.54,31.12 120.7,28.76 120.7,20.8 L120.7,2.96 L119.22,2.96 L119.22,21.12 C119.22,30.12 124.02,32.52 128.74,32.52 L128.74,32.52 Z M143.02,32 L144.54,32 L149.82,22.72 C150.62,21.32 151.42,19.88 152.38,18.12 L152.54,18.12 C153.62,19.88 154.5,21.32 155.3,22.72 L160.62,32 L162.22,32 L153.42,17.04 L161.62,2.96 L160.1,2.96 L155.02,11.84 C154.22,13.16 153.7,14.16 152.82,15.76 L152.66,15.76 C151.66,14.16 151.06,13.16 150.26,11.84 L145.26,2.96 L143.62,2.96 L151.82,16.96 L143.02,32 Z" id="UI/UX" fill="#444444" sketch:type="MSShapeGroup"></path>
        </g>
    </g>
</svg>