<?xml version="1.0" encoding="UTF-8" standalone="no"?>
<svg width="236px" height="150px" viewBox="0 0 236 150" version="1.1" xmlns="http://www.w3.org/2000/svg" xmlns:xlink="http://www.w3.org/1999/xlink" xmlns:sketch="http://www.bohemiancoding.com/sketch/ns">
    <!-- Generator: Sketch 3.2.1 (9971) - http://www.bohemiancoding.com/sketch -->
    <title>bg_find_lc_designer</title>
    <desc>Created with Sketch.</desc>
    <defs>
        <rect id="path-1" x="0" y="0" width="236" height="150"></rect>
    </defs>
    <g id="spec" stroke="none" stroke-width="1" fill="none" fill-rule="evenodd" sketch:type="MSPage">
        <g id="标注" sketch:type="MSArtboardGroup" transform="translate(-852.000000, -85.000000)">
            <g id="bg_find_lc_designer" sketch:type="MSLayerGroup" transform="translate(852.000000, 85.000000)">
                <g id="Bitmap">
                    <mask id="mask-2" sketch:name="Mask" fill="white">
                        <use xlink:href="#path-1"></use>
                    </mask>
                    <g id="Mask">
                        <use fill="#F25042" fill-rule="evenodd" sketch:type="MSShapeGroup" xlink:href="#path-1"></use>
                        <use fill="none" xlink:href="#path-1"></use>
                    </g>
                    <path d="M188.871091,65.4458045 C187.478869,64.5462148 185.845744,64.33668 184.324036,63.7100901 C184.355153,63.5831603 184.916257,62.6321943 185.283635,61.9904937 L179.136579,61.9904937 C177.424156,62.8910908 175.948622,64.3215693 175.05226,66.0723944 C174.956902,66.2648038 174.813364,66.4410951 174.747115,66.5388109 C173.018632,65.3813322 171.002069,64.8675688 168.950373,64.9642772 C168.935317,64.7225062 168.935317,64.4505138 168.918253,64.0959163 C167.814111,64.1754993 166.741087,64.2399715 165.668062,64.3215693 C165.268564,66.0895198 164.068061,67.3265815 162.624647,67.3265815 C162.016365,67.3265815 161.458272,67.1019359 160.976465,66.7312204 C161.024646,67.0364563 160.960405,67.4222825 160.881107,67.726511 C160.78575,68.0659978 160.449488,68.3369828 160.17546,68.6925877 C158.191017,67.7134151 156.172446,66.9407552 154.218116,68.7409419 C153.866798,69.0633033 153.547601,69.4148786 153.370938,69.8158155 C153.514477,70.2187672 153.593774,70.6509329 153.626898,71.1042536 C154.443963,71.150593 155.243964,71.21708 156.043964,71.246294 C157.884869,71.3117737 158.557391,72.3080717 158.958897,73.9793139 C159.279098,75.3281946 159.152624,76.7113263 158.478094,77.9806241 C157.277591,80.2784561 156.043964,82.5299487 154.010337,84.2152942 C153.578718,84.5850023 153.2274,85.0524263 152.82489,85.455378 C152.21962,86.0648424 151.593271,86.6763216 150.982982,87.269668 C150.951865,87.2525425 150.922756,87.2384392 150.888628,87.2213138 C150.405817,85.9510086 149.159141,85.0040721 147.66855,85.0846624 C146.450983,85.1501421 145.427143,85.630662 144.595022,86.3690709 C145.058761,85.1158912 145.524508,83.8778221 146.0023,82.623635 C146.517232,81.3241158 147.318236,80.1847699 148.83894,80.1182829 C149.301675,80.1031722 149.783483,80.1998806 150.135804,80.4889984 C150.485114,80.7781162 150.680848,81.3069903 150.504186,81.7260601 C150.376708,82.0302886 150.040446,82.2247128 149.704185,82.2388161 C149.8949,82.0474141 150.007322,81.7723995 150.007322,81.4842891 C150.007322,80.888928 149.527523,80.3912826 148.918237,80.3912826 C148.052992,80.3912826 147.748851,81.2264 147.942578,81.9658163 C148.179466,82.8674208 148.870057,83.6400806 149.752366,83.9433018 C150.632668,84.249545 151.656508,84.1044824 152.408328,83.5423648 C153.676083,82.5934136 153.881855,80.8073302 153.08085,79.491693 C152.504689,78.5447565 151.528026,77.7720966 150.424888,77.5625618 C150.168928,77.5162223 149.577711,77.5162223 149.527523,77.1626322 C149.463282,76.7596805 149.974198,76.2297991 149.589756,75.8439728 C149.318739,75.5860837 148.710458,75.6676814 148.388249,75.6837995 C146.90067,75.7472644 145.683103,76.3103894 144.883102,77.627034 C144.657255,77.9977496 144.355122,78.3352216 144.097154,78.6878044 C141.519486,77.6119233 139.693638,78.2888822 139.631404,80.3600539 C140.145332,80.4557549 140.673312,80.5373526 141.200289,80.6320463 C142.928772,80.9211641 143.811081,82.1592332 143.281094,83.8637188 C142.464029,86.4970081 140.847968,88.6024307 138.621617,90.2122227 C137.595769,90.9506316 136.381214,90.8065764 135.210824,90.5003331 C132.121236,89.7125626 129.414082,88.1068001 126.788233,86.3690709 C126.547329,86.2088976 126.387731,85.7414737 126.387731,85.4221345 C126.419851,84.5064267 126.562386,83.5887043 126.659751,82.6740039 C126.88359,80.4889984 126.644694,78.3664504 126.018345,76.2610278 C125.732272,75.2969659 125.586726,74.3006678 125.345823,73.127071 C126.741056,73.4182036 128.020856,73.674078 129.414082,73.9631958 L129.414082,77.4668607 C129.641936,77.4033958 129.861761,77.3540343 130.0856,77.3540343 C130.246203,77.3540343 130.405801,77.369145 130.567408,77.4033958 C130.501159,76.8714996 130.551347,76.3406108 130.551347,75.8127441 L130.551347,74.1404945 C132.378199,73.8020151 134.138803,73.4645431 136.077073,73.1129677 C136.077073,74.0931477 136.091126,74.9756119 136.077073,75.8268474 C136.250724,75.7805079 136.413334,75.7643899 136.586986,75.7643899 C136.827889,75.7643899 137.051729,75.7956186 137.27858,75.8741942 C137.27858,75.475272 137.307689,75.0551949 137.245455,74.6864941 C136.989495,73.1593072 137.722244,72.5004812 138.973938,71.634135 C141.28059,70.0293799 144.049978,69.753358 146.38875,68.3702264 C147.558136,67.6801716 148.743582,67.0213456 149.913972,66.3292761 C150.007322,66.3786376 150.088627,66.4098664 150.182981,66.4582206 C149.991262,66.9246372 149.87884,67.4535113 149.60682,67.856463 C149.961149,67.6479355 150.35864,67.5341016 150.760146,67.5341016 C151.097411,67.5341016 151.432668,67.6136846 151.750862,67.7597546 C151.176708,66.475346 151.306194,65.2201515 152.279846,64.2077354 C154.506196,61.908896 155.70971,59.0499538 156.893149,56.1547459 C157.340828,55.0808797 157.868809,54.0039913 158.589512,53.0852614 C159.360403,52.1242216 160.511722,51.4633809 161.759401,51.7041445 C162.832426,51.9146868 163.954635,52.6692138 164.01988,53.859936 C164.033933,54.0523455 163.985752,54.276991 163.890394,54.4532824 C163.58525,53.8911648 163.010093,53.5043312 162.32151,53.5043312 C161.343843,53.5043312 160.558899,54.2931091 160.558899,55.2722817 C160.558899,55.9321151 160.912224,56.5113582 161.441208,56.8155867 C161.680104,57.2820033 161.744345,58.0234344 161.713228,58.776954 C161.985249,58.6792382 162.290393,58.6167807 162.595538,58.6167807 C162.786253,58.6167807 162.978976,58.630884 163.170695,58.6792382 L163.170695,57.4774348 C164.707459,57.137948 166.085628,56.2071296 166.388765,54.5499908 C166.57948,53.4569844 166.277347,52.2995056 165.653005,51.3837979 C164.596041,49.8404929 162.880607,49.1967776 161.312726,48.3324462 C161.472325,48.0090775 161.648987,47.6393693 161.84171,47.237425 L157.42113,47.237425 C157.324768,47.2998825 157.230414,47.3663696 157.135057,47.4288271 C156.491643,47.8952437 155.99478,48.6034313 155.499924,49.264272 C154.587501,50.4660754 154.556385,50.499319 153.145091,50.0661459 C152.729533,49.9392161 152.29691,49.7931461 151.864287,49.694423 C150.344587,49.4073199 149.190258,50.0802492 148.772691,51.5127425 C148.549856,52.3156237 148.805816,52.6369777 149.60682,52.5080331 C151.27307,52.250144 152.394275,52.7649148 153.049734,54.0684635 C153.768429,55.5140527 153.528529,57.2658852 152.408328,58.4082532 C151.848227,58.0848845 151.288126,57.7151763 150.693897,57.4421766 C150.007322,57.137948 149.367924,56.8659556 149.577711,55.945211 C147.843205,55.4334624 145.699163,55.8364141 145.027645,57.1691768 C144.434419,58.3417662 143.69866,58.3901204 142.738057,58.1987184 C141.456249,57.95594 140.462522,58.1987184 139.949598,59.2584813 C140.31798,59.4670088 140.654241,59.7722447 140.929272,60.1751964 C140.929272,60.1751964 140.944329,60.1913145 140.944329,60.2064251 C141.04069,60.224558 141.135044,60.2376539 141.232409,60.2376539 C142.80029,60.4643142 143.505937,60.6748565 143.408572,62.3450912 C143.281094,64.3538054 142.354619,66.2164496 140.687365,67.3739283 C138.429898,68.9343587 134.649719,68.8698865 132.24771,67.6328248 C133.545578,66.5690323 134.95386,65.479048 135.468791,63.8088132 C135.771928,62.7923676 135.820109,61.7346194 135.914463,60.6889598 C136.042945,59.4025365 136.269796,57.7796486 137.165154,56.7833505 C137.487363,56.4297604 137.757375,56.463004 137.757375,56.9777747 C137.772432,57.7323018 137.772432,58.4878362 137.743323,59.2423632 C138.077576,59.0499538 138.444954,58.9542528 138.8304,58.9542528 L138.973938,58.9542528 C138.781216,58.2611759 138.880588,57.2971139 139.278079,56.1547459 C139.534039,56.2695871 139.793011,56.3824136 140.048971,56.4922179 C140.830904,56.8155867 141.102924,56.6070592 141.04069,55.7558237 C140.959385,54.8391086 140.31798,54.4039208 139.647465,53.939519 C139.325256,53.7128587 139.10242,53.5043312 138.973938,53.1195123 C138.880588,52.7991657 138.925758,52.5251586 138.556372,52.3629705 C138.28636,52.2360407 137.965155,52.2682769 137.675067,52.3337565 C136.955367,52.475797 136.284852,52.7991657 135.692631,53.2464421 C135.387487,53.4892205 134.698904,54.5661089 134.313458,54.5661089 C133.001537,54.5661089 131.848212,54.423061 130.614584,54.9821565 C129.55762,55.4505878 128.645198,56.2534691 128.069037,57.2497671 C127.602286,58.0365303 127.332273,59.002607 127.571169,59.8850712 C127.750843,60.5610226 128.389238,61.0898967 129.015587,61.3306604 C129.542564,61.5250845 130.151849,61.4928484 130.614584,61.1896273 C131.271047,60.7524247 131.417596,59.8034735 131.144572,59.1144261 C131.01609,58.776954 130.776191,58.4878362 130.47205,58.2944194 C130.391749,58.2470726 129.574684,57.8280028 129.527507,57.9418366 C129.895889,57.1047045 130.902665,56.463004 131.802038,56.5264688 C132.617095,56.5919485 133.384976,57.1047045 133.787485,57.8280028 C134.491124,59.0650645 134.186984,60.8813692 133.656996,62.1516744 C133.130019,63.4552231 132.201537,64.6419159 130.96791,65.3511108 C128.292876,66.9075117 125.345823,65.7369371 123.057239,64.1754993 C122.864516,64.0475621 122.672797,63.6788613 122.705921,63.4552231 C122.92976,61.5734387 122.159873,59.9646541 121.407049,58.3417662 C121.150085,57.8128921 121.070788,57.1842875 120.863009,56.5113582 C123.473801,56.5113582 126.404795,57.0885864 128.742563,55.6419899 C132.121236,53.5375747 133.23943,47.6393693 129.444195,45.3415373 C128.292876,44.6343571 126.755108,44.5376487 125.586726,45.2277035 C123.026122,46.753883 124.066022,50.7884368 127.060253,50.7884368 C127.237919,50.7884368 127.414582,50.7743335 127.571169,50.7420973 C127.651471,52.1242216 126.628634,53.2162207 125.251469,53.3935195 C123.504918,53.618165 121.855732,51.9781517 121.039671,50.565806 C120.110185,48.9741468 119.886345,47.0288975 120.301904,45.2438215 C120.558868,44.2001767 121.136033,43.5564614 122.159873,43.2995797 C122.720977,43.1706351 123.282082,43.0426979 123.809059,42.8643918 C125.074806,42.4322261 125.572673,41.4349207 125.155107,40.1505122 C124.900151,39.363749 124.642183,38.5749711 124.354103,37.8053334 C124.066022,37.0306587 124.114203,36.5179027 124.947328,36.0061541 C126.707932,34.943369 127.571169,32.8057103 127.10743,31.0851066 C126.211068,31.1989404 125.296638,31.3591137 124.387227,31.4245934 C123.456737,31.503169 123.136536,31.0851066 123.519974,30.2197678 C123.843187,29.4622187 124.287854,28.7560458 124.754605,28.0669984 C125.378947,27.1351726 125.396011,26.2315535 124.85197,25.2866318 C124.625119,24.9008055 124.305922,24.5290826 124.227628,24.1120276 C124.12926,23.5811387 124.082083,22.9223127 124.321982,22.5052577 C125.553602,20.3343555 128.852977,18.9512238 131.238926,19.6785516 C133.111952,20.2376471 134.426884,21.815203 134.393759,23.8057843 C133.769418,22.5536119 132.488614,21.7013691 131.01609,21.7013691 C128.965399,21.7013691 127.076313,23.7433268 127.315209,25.8134911 C127.493879,27.3104566 128.660254,28.6271013 130.103668,29.0763924 C133.915967,30.2671146 137.180211,25.9907899 136.699407,22.4579109 C136.427387,20.4149459 135.147587,18.6137518 133.23943,17.8098632 C131.75185,17.1873028 130.021359,17.5852176 129.07782,15.9623297 C128.531772,15.0294965 127.651471,14.3736927 126.32349,14.4371575 C126.32349,15.1110942 126.292373,15.7044406 126.33955,16.2998017 C126.419851,17.4250443 126.066526,17.8098632 125.203288,18.3760103 C124.227628,19.0177109 123.327251,19.8367102 122.430889,20.6083627 C121.360876,19.1778842 120.878065,17.6033504 121.278567,15.8333851 C121.472294,14.9690538 121.839672,14.1319216 122.22311,13.328033 C122.415833,12.9119854 123.231894,11.7696174 123.168657,11.3666657 C123.282082,12.0748533 123.698644,14.3736927 124.770665,13.1023801 C124.978445,12.8636312 125.090866,12.5412699 125.188231,12.2199159 C125.476312,11.2226104 125.715208,10.1769508 125.650967,9.13431332 C125.60379,7.97683459 124.962384,7.63936255 124.227628,6.86771007 C123.168657,5.74246748 122.89764,4.11857217 122.736034,2.57728196 C122.544315,0.709600883 122.016334,-1.08857103 121.278567,-2.80816736 C120.608052,-4.39781177 119.614325,-5.76482538 119.165642,-7.45017082 C118.830385,-8.65600375 118.987976,-9.86284406 118.893622,-11.0827803 C118.908678,-10.9538358 119.647449,-10.3604894 119.775931,-10.16808 C120.045944,-9.76412089 120.190486,-9.25136487 120.446446,-8.81919918 C120.846948,-8.14224034 121.533524,-7.0341232 122.448957,-7.70906728 C123.090363,-8.1734691 123.026122,-9.6523018 122.864516,-10.3453787 C122.64168,-11.2761971 122.065519,-12.0951964 121.360876,-12.7399191 C120.430386,-13.5901472 118.877562,-13.9276192 118.877562,-15.3580977 L118.877562,-23.1864417 L118.877562,-23.2650172 C120.430386,-23.4251905 121.953097,-23.8613857 123.298142,-24.5675586 C124.867027,-25.3885726 125.699148,-26.6246269 126.723992,-27.8939248 C127.205799,-28.5064113 127.830141,-29.01816 128.579953,-29.3395139 C130.311447,-30.0789303 128.710442,-29.9973326 127.205799,-29.9973326 L107.636399,-29.9973326 C106.146812,-29.9973326 104.531754,-30.0789303 106.261241,-29.3395139 C107.014064,-29.01816 107.618331,-28.4852564 108.116198,-27.8939248 C109.14305,-26.6246269 109.973163,-25.3885726 111.544055,-24.5675586 C112.8891,-23.8613857 114.4088,-23.442316 115.962628,-23.2650172 L115.962628,-23.1864417 C115.962628,-22.5900732 116.057986,-17.1592918 116.043933,-15.3580977 C116.043933,-13.9276192 114.476053,-13.5901472 113.561623,-12.7399191 C112.857984,-12.0951964 112.279815,-11.2761971 112.054972,-10.3453787 C111.895373,-9.66841987 111.816076,-8.1734691 112.473542,-7.70906728 C113.385964,-7.05225603 114.058486,-8.15835841 114.476053,-8.81919918 C114.731009,-9.23726156 114.875551,-9.75102496 115.14456,-10.16808 C115.275049,-10.3604894 116.011813,-10.9538358 116.028877,-11.0827803 C115.930508,-9.84571861 116.09111,-8.65600375 115.755853,-7.45017082 C115.290106,-5.76482538 114.314446,-4.38270109 113.639916,-2.80816736 C112.920217,-1.08857103 112.378184,0.709600883 112.181446,2.57728196 C112.023855,4.11857217 111.752838,5.74246748 110.69487,6.86771007 C109.958107,7.65346586 109.318709,7.99194528 109.271532,9.13431332 C109.22034,10.1769508 109.44719,11.2226104 109.734267,12.2199159 C109.828621,12.5241444 109.942047,12.8465058 110.15083,13.1023801 C111.224858,14.3736927 111.639413,12.0748533 111.752838,11.3666657 C111.687594,11.7696174 112.504658,12.9119854 112.696377,13.328033 C113.079816,14.1319216 113.451209,14.9499136 113.639916,15.8333851 C114.041422,17.6033504 113.561623,19.1778842 112.486591,20.6083627 C111.592236,19.8367102 110.69487,19.0177109 109.718207,18.3760103 C108.835898,17.8098632 108.483576,17.4250443 108.580941,16.2998017 C108.630126,15.7044406 108.598005,15.1110942 108.598005,14.4371575 C107.269021,14.3736927 106.386711,15.0294965 105.842671,15.9623297 C104.897124,17.5721217 103.168641,17.1681626 101.680058,17.8098632 C99.7729045,18.6137518 98.4931042,20.4149459 98.2220877,22.4579109 C97.7402806,25.9907899 101.006532,30.2671146 104.818831,29.0763924 C106.261241,28.6271013 107.429623,27.3255673 107.605282,25.8134911 C107.846185,23.7433268 105.939032,21.7013691 103.905405,21.7013691 C102.41381,21.7013691 101.135013,22.5536119 100.527736,23.8057843 C100.493608,21.815203 101.807536,20.2376471 103.679557,19.6785516 C106.067514,18.9512238 109.364882,20.3343555 110.599513,22.5052577 C110.840416,22.9223127 110.773164,23.5972568 110.69487,24.1120276 C110.630629,24.5290826 110.294368,24.9008055 110.071532,25.2866318 C109.526488,26.2315535 109.541544,27.1351726 110.167894,28.0669984 C110.630629,28.7560458 111.079312,29.4622187 111.399513,30.2197678 C111.782951,31.0851066 111.46275,31.503169 110.535272,31.4245934 C109.620842,31.3591137 108.709423,31.1989404 107.812057,31.0851066 C107.348318,32.8057103 108.211556,34.943369 109.973163,36.0061541 C110.807292,36.5017847 110.855473,37.0306587 110.565385,37.8053334 C110.278308,38.5749711 110.023352,39.363749 109.766388,40.1505122 C109.364882,41.4349207 109.844681,42.4322261 111.111433,42.8643918 C111.654469,43.0426979 112.216578,43.1706351 112.761622,43.2995797 C113.785462,43.5564614 114.37668,44.2001767 114.617583,45.2438215 C115.049202,47.0288975 114.808299,48.9741468 113.88082,50.565806 C113.066767,51.963041 111.413566,53.618165 109.670026,53.3935195 C108.308921,53.2162207 107.269021,52.1242216 107.348318,50.7420973 C107.509924,50.7743335 107.683576,50.7884368 107.860238,50.7884368 C110.855473,50.7884368 111.895373,46.7397797 109.333765,45.2277035 C108.163375,44.5376487 106.643675,44.6504752 105.474289,45.3415373 C101.680058,47.6393693 102.797248,53.5536928 106.177928,55.6419899 C108.518708,57.0885864 111.447694,56.5113582 114.058486,56.5113582 C113.866767,57.2014129 113.770406,57.8128921 113.513442,58.3417662 C112.744558,59.9646541 111.991734,61.5734387 112.216578,63.4552231 C112.247695,63.6788613 112.054972,64.0475621 111.864256,64.1754993 C109.574669,65.7369371 106.643675,66.9075117 103.951578,65.3511108 C102.737022,64.6419159 101.807536,63.4552231 101.262492,62.1516744 C100.750571,60.8974873 100.445427,59.0821899 101.135013,57.8280028 C101.535516,57.1047045 102.305403,56.574823 103.121464,56.5264688 C104.033886,56.463004 105.04267,57.1047045 105.392984,57.9418366 C105.346811,57.8280028 104.531754,58.2470726 104.452456,58.2944194 C104.147312,58.5029469 103.905405,58.776954 103.776923,59.1144261 C103.504902,59.8034735 103.650448,60.7524247 104.303899,61.1896273 C104.768642,61.4928484 105.392984,61.5250845 105.905908,61.3306604 C106.547314,61.1070222 107.173663,60.5610226 107.348318,59.8850712 C107.587214,59.002607 107.316198,58.0365303 106.850451,57.2497671 C106.261241,56.2534691 105.345807,55.4656985 104.303899,54.9821565 C103.073283,54.4381717 101.920961,54.5661089 100.606029,54.5661089 C100.222591,54.5661089 99.5350122,53.4892205 99.2288639,53.2464421 C98.6506953,52.7991657 97.9641201,52.475797 97.2424132,52.3337565 C96.9553364,52.2682769 96.6381467,52.2360407 96.3621114,52.3629705 C95.9947334,52.542284 96.0409066,52.7991657 95.9465527,53.1195123 C95.8351348,53.5043312 95.595235,53.7128587 95.2730265,53.939519 C94.6185717,54.4039208 93.9621095,54.8552267 93.8828121,55.7558237 C93.8175674,56.6070592 94.0885839,56.8155867 94.8745318,56.4922179 C95.1314956,56.3824136 95.3864519,56.2695871 95.6414082,56.1547459 C96.0409066,57.2971139 96.154332,58.2611759 95.9465527,58.9542528 L96.0910948,58.9542528 C96.474533,58.9542528 96.8439185,59.0499538 97.1801797,59.2423632 C97.1631157,58.4878362 97.1480593,57.7323018 97.1631157,56.9777747 C97.1801797,56.463004 97.4361398,56.4116276 97.755337,56.7833505 C98.6506953,57.7796486 98.8775462,59.419662 99.0040206,60.6889598 C99.100382,61.7346194 99.1656267,62.7923676 99.4537072,63.8088132 C99.9515746,65.479048 101.375917,66.5690323 102.670774,67.6328248 C100.269768,68.852761 96.5096648,68.9343587 94.233126,67.3739283 C92.5498123,66.2164496 91.6393976,64.3538054 91.5119194,62.3450912 C91.398494,60.6557163 92.1191972,60.4471888 93.691093,60.2376539 C93.7854469,60.224558 93.8828121,60.2064251 93.977166,60.2064251 C93.977166,60.2064251 93.9932262,60.1913145 93.9932262,60.1751964 C94.2823105,59.7722447 94.6025115,59.4518981 94.9708932,59.2584813 C94.4589731,58.1815929 93.4652459,57.9418366 92.1844419,58.1987184 C91.2238389,58.3760171 90.4860717,58.3276629 89.8938504,57.1691768 C89.2363844,55.8515248 87.0752786,55.4334624 85.3477992,55.945211 C85.5555786,56.8659556 84.9141728,57.137948 84.2245863,57.4421766 C83.6163048,57.7151763 83.073268,58.0848845 82.5101559,58.4082532 C81.3919618,57.2497671 81.1510582,55.498942 81.8717614,54.0684635 C82.5272199,52.7649148 83.6644855,52.250144 85.3136712,52.5080331 C86.1146756,52.6369777 86.3887034,52.3156237 86.1457923,51.5127425 C85.7302336,50.0802492 84.575904,49.4073199 83.0541965,49.694423 C82.6245851,49.7760207 82.1909586,49.9200759 81.7754,50.0671533 C80.3651103,50.5174518 80.3329898,50.4660754 79.4225751,49.264272 C78.9247077,48.6034313 78.4288478,47.8952437 77.7884458,47.4288271 C77.6900769,47.3663696 77.5967267,47.2998825 77.4993616,47.237425 L73.078781,47.237425 C73.2715038,47.6393693 73.4481665,47.9929594 73.6077651,48.3324462 C72.0398843,49.1967776 70.3254539,49.8404929 69.2684895,51.3837979 C68.6441477,52.2995056 68.3229429,53.4569844 68.5327298,54.5499908 C68.8378743,56.1889968 70.196972,57.137948 71.7508,57.4774348 L71.7508,58.6792382 C71.9435229,58.630884 72.1201855,58.6167807 72.3279648,58.6167807 C72.6331094,58.6167807 72.9211899,58.6792382 73.2092704,58.776954 C73.1751424,58.0234344 73.2393834,57.2820033 73.4792832,56.8155867 C74.0102748,56.5113582 74.3605887,55.9321151 74.3605887,55.2722817 C74.3605887,54.2931091 73.5746408,53.5043312 72.5979776,53.5043312 C71.9254551,53.5043312 71.3342376,53.8911648 71.0311006,54.4532824 C70.9347392,54.276991 70.8855547,54.0684635 70.9026187,53.859936 C70.9658559,52.6853319 72.101114,51.9146868 73.1600859,51.7041445 C74.4087695,51.4633809 75.5771518,52.1070962 76.3309792,53.0852614 C77.0506786,53.9868658 77.5796627,55.0808797 78.0253344,56.1547459 C79.2127882,59.0499538 80.413291,61.908896 82.6386378,64.2077354 C83.6163048,65.2201515 83.7457905,66.475346 83.1686257,67.7597546 C83.4727664,67.5995813 83.8070201,67.5341016 84.1623529,67.5341016 C84.5608476,67.5341016 84.9613497,67.6479355 85.3136712,67.856463 C85.0426547,67.4535113 84.930233,66.9246372 84.7375102,66.4582206 C84.8328678,66.4098664 84.9141728,66.3786376 85.011538,66.3292761 C86.1779128,67.0052275 87.3643629,67.6801716 88.533749,68.3702264 C90.8695099,69.753358 93.6409047,70.0293799 95.9465527,71.634135 C97.19624,72.5004812 97.9330034,73.1754253 97.6760396,74.6864941 C97.6117987,75.0723203 97.6469304,75.4893753 97.6469304,75.8741942 C97.8687625,75.7956186 98.0915983,75.7643899 98.3314981,75.7643899 C98.5101682,75.7643899 98.6848233,75.7805079 98.8444219,75.8268474 C98.8293655,74.9605012 98.8444219,74.0931477 98.8444219,73.1129677 C100.782692,73.4816685 102.542292,73.8020151 104.370148,74.1404945 L104.370148,75.8127441 C104.370148,76.3406108 104.418328,76.8866103 104.354087,77.4033958 C104.513686,77.369145 104.673285,77.3540343 104.833887,77.3540343 C105.056723,77.3540343 105.283574,77.3862704 105.507413,77.4668607 C105.492357,76.3103894 105.507413,75.1529107 105.507413,73.9631958 C106.899635,73.674078 108.182447,73.4182036 109.574669,73.127071 C109.333765,74.3006678 109.190227,75.313084 108.902146,76.2610278 C108.261744,78.3664504 108.036901,80.4889984 108.261744,82.6740039 C108.356098,83.5887043 108.50064,84.5064267 108.534768,85.4221345 C108.547817,85.7414737 108.388219,86.2088976 108.131255,86.3690709 C105.507413,88.1068001 102.797248,89.7125626 99.7096673,90.5003331 C98.5573452,90.8065764 97.3227144,90.9355209 96.2988742,90.2122227 C94.0755349,88.6215709 92.4414057,86.4970081 91.6393976,83.8637188 C91.1104135,82.1441225 91.991719,80.9211641 93.7202022,80.6320463 C94.25019,80.5373526 94.7771666,80.4557549 95.2900905,80.3600539 C95.2268533,78.2888822 93.4010049,77.6119233 90.8223329,78.6878044 C90.5683804,78.3503323 90.2782924,78.0128603 90.0353813,77.627034 C89.2363844,76.3103894 88.0188176,75.7643899 86.5302343,75.6837995 C86.211037,75.6676814 85.5997442,75.5699657 85.3287277,75.8439728 C84.9442857,76.2297991 85.4572096,76.7596805 85.3939724,77.1626322 C85.3477992,77.5162223 84.7535704,77.4980895 84.4986141,77.5625618 C83.3924652,77.7720966 82.4298547,78.5447565 81.8396409,79.491693 C81.0376328,80.7922196 81.2474197,82.5934136 82.5101559,83.5423648 C83.2629795,84.1044824 84.2908348,84.249545 85.1711366,83.9433018 C86.0514384,83.6400806 86.7560814,82.8674208 86.9809247,81.9658163 C87.17164,81.2264 86.8825557,80.3912826 86.0012502,80.3912826 C85.4080251,80.3912826 84.9141728,80.8748246 84.9141728,81.4842891 C84.9141728,81.7723995 85.0235832,82.0474141 85.2173098,82.2388161 C84.8830561,82.2247128 84.5457911,82.0474141 84.4173092,81.7260601 C84.2416503,81.292887 84.4313619,80.7781162 84.7846871,80.4889984 C85.1380124,80.1998806 85.6188157,80.0860467 86.0825551,80.1182829 C87.6193192,80.1847699 88.4042633,81.3241158 88.9181909,82.623635 C89.395983,83.8637188 89.8617299,85.1158912 90.3244655,86.3690709 C89.477288,85.630662 88.4685043,85.1501421 87.2509375,85.0846624 C85.7623541,85.0211975 84.5136706,85.9510086 84.033871,87.2213138 C84.0007467,87.2384392 83.9676225,87.2525425 83.935502,87.269668 C83.3282243,86.6602035 82.70589,86.0648424 82.0935935,85.455378 C81.6950988,85.0524263 81.3417736,84.5698916 80.9111584,84.2152942 C78.876527,82.5299487 77.6278435,80.2623381 76.4423971,77.9806241 C75.7849311,76.7113263 75.6423965,75.3281946 75.9615937,73.9793139 C76.3620959,72.3080717 77.0356222,71.3117737 78.876527,71.246294 C79.6795389,71.21708 80.4785357,71.150593 81.2935928,71.1042536 C81.3257133,70.6509329 81.421071,70.2187672 81.5495529,69.8158155 C81.373894,69.3987605 81.0557006,69.0633033 80.7033791,68.7409419 C78.7500526,66.9407552 76.7314814,67.6962897 74.7450307,68.6925877 C74.4750179,68.3369828 74.1397605,68.0659978 74.0403877,67.726511 C73.9610903,67.439408 73.8958456,67.0364563 73.9420188,66.7312204 C73.4632229,67.1160392 72.9021184,67.3265815 72.2968481,67.3265815 C70.837374,67.3265815 69.6529314,66.0723944 69.253433,64.3215693 C68.1794045,64.2399715 67.1053761,64.1754993 66.000231,64.0959163 C65.9851745,64.4505138 65.970118,64.7225062 65.970118,64.9642772 C63.9194264,64.8675688 61.8998514,65.3974503 60.1713683,66.5388109 C60.0920708,66.4269918 59.9645927,66.2648038 59.8702388,66.0723944 C58.9738767,64.33668 57.5154064,62.8910908 55.7839119,61.9904937 L49.7141456,61.9904937 C50.0865424,62.6321943 50.6446357,63.5831603 50.6777599,63.7100901 C49.1701051,64.33668 47.5229269,64.5462148 46.130705,65.4458045 C43.6152702,67.0848105 42.4137636,69.8480517 43.2790089,72.7754957 C43.8230495,74.5907931 44.8338407,75.1216819 46.1768782,76.2297991 C46.2742434,77.6119233 46.369601,80.9070608 46.1929384,83.1716493 C46.6757493,82.9308856 47.1866656,82.8029485 47.7307062,82.8029485 C47.9214215,82.8029485 48.1151482,82.8170518 48.307871,82.8502953 C48.2918108,81.146817 48.2115096,79.4453535 48.1954494,77.7549712 C48.1783854,76.8070273 48.5317106,76.1502161 49.4762534,75.7472644 C50.0192902,75.5085155 50.4368564,75.1529107 50.7420009,74.7509664 C51.1093788,74.349022 51.3482749,73.8020151 51.3482749,73.2056466 C51.3482749,71.9544816 50.3414987,70.9420655 49.0898039,70.9420655 C48.1000917,70.9420655 47.2659631,71.5837661 46.9628261,72.4692524 C46.8644571,72.3896695 46.8022237,72.2919537 46.736979,72.1952453 C45.5204159,70.0737046 47.8120112,67.9995108 49.8426275,67.77688 C55.2900596,67.1664082 57.7864229,75.4893753 58.5563106,79.507811 C58.8453948,81.0178725 58.7480296,82.5934136 58.7319694,84.1336964 C59.0200499,84.0551209 59.3081305,84.0248995 59.5942034,84.0248995 C59.9324722,84.0248995 60.253677,84.0722463 60.556814,84.1669399 C60.5427613,83.7831285 60.573878,83.3630513 60.6531754,82.9147676 C61.2132762,83.5584829 61.8526744,84.0400102 62.157819,84.6817107 C63.728711,87.8982726 66.5944598,89.7437913 69.3146626,91.7535129 C69.526457,91.8995829 69.7342364,92.0426307 69.9410119,92.1876933 C71.3502978,93.087283 71.1736352,97.3626004 71.2539364,98.4868356 C71.6363708,98.3447951 72.053937,98.26219 72.4704995,98.26219 C72.7595837,98.26219 73.0476643,98.2934188 73.3367486,98.3750165 C73.3196846,96.9767741 73.3367486,95.5795392 73.3367486,94.1007065 C74.2311031,94.4532892 75.0802882,94.8078867 75.9284695,95.1131226 C75.9786577,98.4223633 77.5796627,101.091918 79.5309817,101.091918 C81.1189377,101.091918 82.4479225,99.3723219 82.9437823,96.9616635 C83.6785382,97.0563571 84.4795426,97.1540729 85.2664943,97.2830174 C85.5846877,97.3283495 85.8105348,98.7598354 85.7472977,100.30314 C86.1146756,100.176211 86.4820536,100.109724 86.8825557,100.109724 C87.2037605,100.109724 87.5249653,100.159085 87.8270985,100.238668 C87.8110383,99.3390784 87.8441625,98.4545995 87.8441625,97.6204895 C91.8632371,97.0714678 95.8040181,96.5436011 99.8230927,95.9976015 C99.9013864,96.5919553 100.078049,97.2668994 100.139279,97.9418434 C100.383194,97.8934892 100.637146,97.8622605 100.89411,97.8622605 C101.103897,97.8622605 101.311676,97.874349 101.519455,97.9257254 C101.488339,97.2185452 101.551576,96.4952469 101.680058,95.772956 C101.789468,95.1131226 106.643675,94.8229974 108.547817,94.8713516 C108.806788,94.8713516 109.190227,95.1463661 109.286588,95.3861223 C109.50842,95.9804761 109.589725,96.6241914 109.749324,97.2356706 C110.117705,98.6973779 110.95083,99.484141 112.360116,99.3874326 C113.017582,99.3390784 113.688097,99.3551965 114.362627,99.3551965 C114.442928,99.3551965 114.53929,99.4347794 114.650708,99.484141 C114.650708,99.8216131 114.747069,100.207439 114.633644,100.496557 C114.089603,101.97539 114.234145,103.454223 114.604534,104.91593 C114.761122,105.543527 115.175677,106.121763 115.243933,106.733242 C115.385464,108.226178 114.841423,109.54383 113.913944,110.701309 C113.161121,111.647238 112.729502,112.566975 112.072036,112.677787 C112.231634,112.419898 112.327996,112.132795 112.327996,111.807411 C112.327996,110.172435 110.263251,109.672774 109.350829,110.944087 C107.941543,112.934668 110.294368,115.042106 111.880317,115.827862 C112.791735,116.295285 113.079816,116.890647 113.225362,117.853701 C113.722225,121.358373 114.37668,124.827788 115.883331,128.074571 C116.330006,129.037625 116.908175,129.953333 117.5014,131 C118.093621,129.937215 118.668779,129.037625 119.116458,128.074571 C120.623109,124.844913 121.278567,121.358373 121.775431,117.853701 C121.917965,116.890647 122.191993,116.279167 123.119472,115.827862 C124.705421,115.022966 127.060253,112.934668 125.650967,110.944087 C124.754605,109.672774 122.672797,110.172435 122.672797,111.807411 C122.672797,112.132795 122.769158,112.439038 122.92976,112.677787 C122.271291,112.548842 121.839672,111.647238 121.087852,110.701309 C120.159369,109.54383 119.614325,108.226178 119.755856,106.733242 C119.822104,106.104637 120.238667,105.526402 120.399269,104.91593 C120.76464,103.454223 120.913197,101.97539 120.367149,100.496557 C120.253723,100.190314 120.350085,99.8216131 120.350085,99.484141 C120.46351,99.4347794 120.558868,99.3551965 120.638165,99.3551965 C121.312695,99.3551965 121.968154,99.3390784 122.64168,99.3874326 C124.050966,99.484141 124.881079,98.6973779 125.251469,97.2356706 C125.411067,96.6241914 125.493376,95.9804761 125.715208,95.3861223 C125.810566,95.1463661 126.195008,94.8713516 126.450968,94.8713516 C128.357117,94.8229974 133.193256,95.1131226 133.321738,95.772956 C133.447209,96.5123723 133.514461,97.2185452 133.481337,97.9257254 C133.69012,97.8934892 133.897899,97.8622605 134.107686,97.8622605 C134.362643,97.8622605 134.617599,97.8934892 134.858502,97.9418434 C134.924751,97.2668994 135.099406,96.5919553 135.178703,95.9976015 C139.180714,96.5436011 143.136551,97.0734825 147.15663,97.6204895 C147.15663,98.4394888 147.18875,99.3239677 147.17269,100.238668 C147.477835,100.159085 147.795024,100.109724 148.11924,100.109724 C148.501675,100.109724 148.886117,100.176211 149.254498,100.30314 C149.190258,98.7598354 149.416105,97.3474897 149.733294,97.2830174 C150.519242,97.1540729 151.320247,97.0563571 152.05701,96.9616635 C152.555881,99.3723219 153.881855,101.091918 155.467803,101.091918 C157.42113,101.091918 159.022135,98.4223633 159.070315,95.1131226 C159.920504,94.7917686 160.766678,94.4532892 161.666051,94.1007065 C161.666051,95.5654358 161.680104,96.9767741 161.666051,98.3750165 C161.937068,98.2934188 162.225148,98.26219 162.527282,98.26219 C162.945852,98.26219 163.362414,98.3447951 163.746856,98.4868356 C163.827157,97.3626004 163.649491,93.087283 165.058777,92.1876933 C165.268564,92.0426307 165.491399,91.9157009 165.684122,91.7535129 C168.40834,89.7437913 171.272081,87.8811471 172.843977,84.6817107 C173.149122,84.0400102 173.786512,83.5584829 174.345609,82.9147676 C174.427918,83.3630513 174.459035,83.7831285 174.443978,84.1669399 C174.764179,84.0722463 175.083377,84.0248995 175.404581,84.0248995 C175.708722,84.0248995 175.996803,84.0551209 176.268823,84.1336964 C176.253766,82.5772955 176.158409,81.0017544 176.444482,79.507811 C177.197305,75.4893753 179.710733,67.1664082 185.156157,67.77688 C187.189785,67.9995108 189.48138,70.0737046 188.264817,72.1952453 C188.196561,72.2919537 188.119271,72.3896695 188.03897,72.4692524 C187.733826,71.5837661 186.902708,70.9420655 185.907977,70.9420655 C184.65829,70.9420655 183.649506,71.9544816 183.649506,73.2056466 C183.649506,73.8020151 183.873346,74.349022 184.258791,74.7509664 C184.562932,75.1690287 184.981502,75.5216115 185.523535,75.7472644 C186.453022,76.1502161 186.820399,76.8251602 186.806347,77.7549712 C186.772219,79.4584495 186.710989,81.1639425 186.693925,82.8502953 C186.885644,82.8170518 187.078367,82.8029485 187.269082,82.8029485 C187.798066,82.8029485 188.327051,82.9308856 188.80685,83.1716493 C188.632195,80.888928 188.742609,77.6119233 188.82291,76.2297991 C190.167955,75.1216819 191.176739,74.574675 191.721783,72.7754957 C192.585021,69.8480517 191.385522,67.0848105 188.871091,65.4458045 L188.871091,65.4458045 Z M65,80.9994759 C64.9119614,81.0477753 62.9216196,77.7456766 62,76 C63.0642645,76.2217827 63.9524517,76.4100517 65,76.6278916 L65,80.9994759 L65,80.9994759 Z M67.2499948,76.2463589 C67.6901318,75.8860327 67.970756,75.3327838 67.970756,74.7142067 C67.970756,73.6373108 67.1219907,72.7594621 66.0861426,72.7594621 C65.332888,72.7594621 64.6889291,73.2157393 64.3925505,73.8812711 C63.9977072,73.557692 63.9179509,73.0513978 64.076479,72.4164886 C64.6249271,70.3035271 67.0451883,69.2725653 68.7584733,70.5781101 C69.606254,71.2283306 70.3427696,72.1419057 70.8784173,73.100394 C71.7271826,74.5998822 72.4006808,76.1953212 73.0613787,77.791781 C74.5846269,81.4695589 76.2821575,85.0697595 78.7949755,88.1636659 C79.6890346,89.2732259 81.8719959,92.464104 82,93 C81.5608476,92.9857094 64.6574204,88.017698 67.2499948,76.2463589 L67.2499948,76.2463589 Z M90.9191617,89 C89.6157685,88.9577366 88.2944112,88.9163538 87.002994,88.703276 C86.6856287,88.6504467 86.239521,88.3836592 86,88.1159913 C86.1756487,87.2583971 87.4191617,86.8789073 88.3403194,87.033873 C89.5508982,87.231102 90.3952096,88.1159913 91,89 L90.9191617,89 L90.9191617,89 Z M110.989457,70.0531159 C110.794547,70.1978196 110.582289,70.3425234 110.371051,70.4652631 C109.814894,70.8153945 109.231185,71.1022179 108.642372,71.3334855 C105.795257,72.4420194 102.87977,71.9717323 100,71.3334855 C104.06964,70.3425234 111.313967,69.8257243 110.989457,70.0531159 L110.989457,70.0531159 Z M125.629066,70.4652631 C125.417789,70.3425234 125.204471,70.1978196 125.010545,70.0531159 C124.685975,69.8257243 131.931646,70.3425234 136,71.3334855 C133.120716,71.9717323 130.205709,72.4420194 127.355003,71.3334855 C126.751793,71.1022179 126.181243,70.8153945 125.629066,70.4652631 L125.629066,70.4652631 Z M148.995808,88.703276 C147.707127,88.9031465 146.384508,88.9577366 145.079856,89 L145,89 C145.602915,88.1159913 146.446396,87.231102 147.658215,87.033873 C148.580555,86.8789073 149.823318,87.2583971 150,88.1159913 C149.761429,88.3836592 149.315233,88.6504467 148.995808,88.703276 L148.995808,88.703276 Z M167.742846,76.2795036 C170.332366,88.0511832 153.438969,93.0193383 153,92.9999434 C153.139761,92.4660735 155.308029,89.2730615 156.201714,88.165511 C158.714464,85.0704943 160.394552,81.4712104 161.932911,77.7912845 C162.592348,76.1968201 163.282296,74.5850024 164.115942,73.1018034 C164.649397,72.1575784 165.388557,71.2276442 166.235983,70.5753633 C167.948551,69.2759055 170.363862,70.3007725 170.914049,72.4158367 C171.08629,73.0528058 171.008535,73.5550315 170.600078,73.8847447 C170.301855,73.2151104 169.65915,72.7598408 168.904242,72.7598408 C167.868828,72.7598408 167.021402,73.637715 167.021402,74.7136212 C167.021402,75.3485487 167.302893,75.9191669 167.742846,76.2795036 L167.742846,76.2795036 Z M171,80.9994736 L171,76.6278913 C172.046771,76.4100515 172.933185,76.2217826 174,76 C173.05902,77.7604613 171.089087,81.0477729 171,80.9994736 L171,80.9994736 Z M51,88.0014508 C51,90.7628397 49.4374306,93 47.5,93 C45.5625694,93 44,90.7628397 44,88.0014508 C44,86.0573556 44.77303,84.3744076 45.9053829,83.5426057 C46.3841565,83.1857046 46.9105161,83 47.4834906,83 C47.7321032,83 47.9651776,83.0338524 48.1972808,83.1092949 C49.8093785,83.5561466 51,85.5795531 51,88.0014508 L51,88.0014508 Z M70.1718719,63.7985493 C70.0638381,63.4000274 70,62.9574381 70,62.499521 C70,60.8326262 70.8298959,59.4435473 71.9446081,59.0919666 C72.1174622,59.0296976 72.304066,59 72.5073659,59 C72.83736,59 73.150658,59.0919666 73.4335101,59.2442863 C74.3567079,59.7663884 75,61.0175174 75,62.499521 C75,62.6221432 75,62.7294375 74.9823217,62.8520597 C74.858574,64.6243328 73.792968,66 72.4926341,66 C71.4427421,66 70.5480259,65.0822499 70.1718719,63.7985493 L70.1718719,63.7985493 Z M63,89.9985492 C63,92.7628397 61.4356024,95 59.4985443,95 C57.5634271,95 56,92.7628397 56,89.9985492 C56,87.7314054 57.0539304,85.8037528 58.5096354,85.20118 C58.8172744,85.0628687 59.1598503,85 59.4985443,85 C59.9032303,85 60.2894773,85.0938195 60.6611673,85.2775897 C62.0217663,85.9565722 63,87.8078151 63,89.9985492 L63,89.9985492 Z M76,104.008212 C76,106.767365 74.4380807,109 72.4995146,109 C70.5648315,109 69,106.767365 69,104.008212 C69,101.835475 69.9755928,99.9844459 71.3229788,99.2917593 C71.6928304,99.107236 72.0830675,99 72.4859243,99 C72.7790875,99 73.0576896,99.0444402 73.32076,99.1536083 C74.8681182,99.6936528 76,101.651918 76,104.008212 L76,104.008212 Z M90,105.999516 C90,108.762407 88.4353855,111 86.5,111 C84.5665557,111 83,108.762407 83,105.999516 C83,103.823837 83.9764282,101.956757 85.3410982,101.278611 C85.6963394,101.089968 86.0971991,101 86.5,101 C86.8261231,101 87.135746,101.061914 87.4453688,101.185741 C88.9158347,101.756506 90,103.700977 90,105.999516 L90,105.999516 Z M104,102.998549 C104,105.763374 102.435922,108 100.499029,108 C98.5650485,108 97,105.763374 97,102.998549 C97,100.592628 98.176699,98.5852762 99.7563107,98.1064139 C99.9873786,98.0299894 100.235922,98 100.483495,98 C100.715534,98 100.934951,98.0299894 101.149515,98.0928703 C102.793204,98.5243301 104,100.560704 104,102.998549 L104,102.998549 Z M82,71.4984763 C82,70.3485706 82.4016359,69.3418952 83.0035654,68.6958351 C83.4219799,68.2590335 83.9379195,68 84.4937081,68 C85.2602768,68 85.9293205,68.4703236 86.3991191,69.2291395 C86.7692953,69.8437092 87,70.6421419 87,71.4984763 C87,73.4275141 85.8810822,75 84.4937081,75 C83.1042366,75 82,73.4275141 82,71.4984763 L82,71.4984763 Z M96,79.4842548 C96,77.9270062 96.7323443,76.6166014 97.7342248,76.1604992 C97.9828667,76.0487593 98.233598,76 98.5,76 C98.7183452,76 98.9178855,76.0487593 99.1184705,76.1127558 C100.199749,76.5007981 101,77.8630097 101,79.4994921 C101,81.4275141 99.8821563,83 98.5,83 C97.1178437,83 96,81.4122769 96,79.4842548 L96,79.4842548 Z M105.50673,85 C104.119226,85 103,83.42853 103,81.5005079 C103,79.8477725 103.836275,78.4530547 104.937686,78.0965027 C105.123175,78.0325062 105.306569,78 105.50673,78 C105.760337,78 105.991937,78.0487593 106.209914,78.1452619 C107.24635,78.5668263 107.999837,79.9127848 107.999837,81.5005079 C108.015556,83.4457989 106.895282,85 105.50673,85 L105.50673,85 Z M94,62.5081443 C94,61.3557301 94.4001254,60.3152996 95.0154618,59.6820826 C95.16799,59.5202152 95.3351442,59.390925 95.5190138,59.2748691 C95.6997493,59.1618674 95.8815295,59.0987493 96.0831592,59.0488656 C96.2158379,59.0173066 96.3495612,59 96.5010447,59 C97.2156289,59 97.8497702,59.422484 98.3178019,60.08726 C98.7315086,60.7214951 99,61.5674811 99,62.4918557 C99,64.4251018 97.8852904,66 96.5010447,66 C95.1188884,66 94,64.4403723 94,62.5081443 L94,62.5081443 Z M191,88.007728 C191,90.7656491 189.437864,93 187.500971,93 C185.565049,93 184,90.7656491 184,88.007728 C184,85.5888717 185.193204,83.5824961 186.78932,83.1052937 C187.021359,83.0463679 187.254369,83 187.500971,83 C188.073786,83 188.615534,83.1980294 189.081553,83.5361283 C190.227184,84.3697836 191,86.0486862 191,88.007728 L191,88.007728 Z M163.056593,59.0919666 C164.169778,59.4435473 165,60.8326262 165,62.499521 C165,62.9574381 164.937119,63.3866156 164.830026,63.7985493 C164.467479,65.0994936 163.558656,66 162.507369,66 C161.207506,66 160.142464,64.6080471 160.016703,62.8520597 C160,62.7447653 160,62.6221432 160,62.499521 C160,61.0318872 160.642562,59.7663884 161.569071,59.2442863 C161.851051,59.0756809 162.16349,59 162.492631,59 C162.696011,59 162.884653,59.0296976 163.056593,59.0919666 L163.056593,59.0919666 Z M152.998747,68.6958351 C153.614742,69.3276738 154,70.3485706 154,71.4984763 C154,73.4275141 152.882857,75 151.500522,75 C150.117143,75 149,73.4275141 149,71.4984763 C149,70.6218256 149.234913,69.8437092 149.601378,69.2291395 C150.052412,68.4845451 150.733138,68 151.500522,68 C152.06849,68 152.586344,68.2590335 152.998747,68.6958351 L152.998747,68.6958351 Z M139.915796,59.0364607 C140.115336,59.0863092 140.300251,59.1493829 140.482031,59.2623052 C140.664856,59.3782794 140.83201,59.5074787 140.983494,59.6692322 C141.600919,60.3020038 142,61.3264427 142,62.493306 C142,64.424175 140.882156,66 139.502089,66 C138.11471,66 137,64.424175 137,62.493306 C137,61.567547 137.266402,60.7079136 137.683243,60.0893844 C138.13247,59.425076 138.782282,59.0049238 139.502089,59.0049238 C139.633723,58.9876294 139.782073,59.0201836 139.915796,59.0364607 L139.915796,59.0364607 Z M131.068324,78.0975044 C132.166318,78.4550203 133,79.8475044 133,81.5 C133,83.4297737 131.884246,85 130.497911,85 C129.117844,85 128,83.4297737 128,81.5 C128,79.9125073 128.750104,78.5850261 129.783326,78.1462565 C130.003761,78.0497678 130.248224,78 130.484329,78 C130.700585,78 130.884455,78.0335171 131.068324,78.0975044 L131.068324,78.0975044 Z M179,89.9985492 C179,92.7628397 177.435168,95 175.500485,95 C173.563861,95 172,92.7628397 172,89.9985492 C172,87.8078151 172.978505,85.9565722 174.339481,85.2775897 C174.695743,85.0938195 175.082097,85 175.500485,85 C175.840244,85 176.180974,85.0773769 176.490639,85.20118 C177.947719,85.8037528 179,87.71593 179,89.9985492 L179,89.9985492 Z M166,104.008212 C166,106.767365 164.436356,109 162.500971,109 C160.564615,109 159,106.767365 159,104.008212 C159,101.666409 160.130754,99.6936528 161.64878,99.1536083 C161.912784,99.0598976 162.206877,99 162.4835,99 C162.888242,99 163.290072,99.107236 163.646284,99.2917593 C165.038131,99.9709207 166,101.820017 166,104.008212 L166,104.008212 Z M152,105.999516 C152,108.762407 150.432691,111 148.498544,111 C146.566339,111 145,108.762407 145,105.999516 C145,103.700977 146.084985,101.770049 147.555247,101.185741 C147.848329,101.061914 148.173437,101 148.498544,101 C148.90226,101 149.289477,101.108349 149.660197,101.278611 C151.024678,101.956757 152,103.810293 152,105.999516 L152,105.999516 Z M138,102.998549 C138,105.763374 136.434198,108 134.499515,108 C132.56289,108 131,105.763374 131,102.998549 C131,100.560704 132.206629,98.5407759 133.817085,98.0928703 C134.034531,98.0299894 134.266537,98 134.483983,98 C134.730551,98 134.981001,98.0464351 135.212037,98.1064139 C136.822493,98.5852762 138,100.592628 138,102.998549 L138,102.998549 Z M139,79.5010157 C139,81.428758 137.881345,83 136.501567,83 C135.11761,83 134,81.428758 134,79.5010157 C134,77.8637551 134.801128,76.5027568 135.883225,76.1147707 C136.082724,76.0477365 136.283267,76 136.501567,76 C136.766869,76 137.033215,76.0660186 137.264048,76.1625073 C138.266764,76.6337783 139,77.943993 139,79.5010157 L139,79.5010157 Z M53.2093023,48 L51,48 L51,20.7671731 L53.4186047,18 L56,20.7671731 L56,48 L53.2093023,48 L53.2093023,48 Z M45.0837435,49 L45.7032895,49 L61.3021729,49 L61.9186569,49 C62.8637963,49 63.5496859,49.0825478 62.3912266,49.9610191 C61.7880113,50.4328662 61.3021729,51.1788535 60.9122773,52.0573248 C60.0957422,53.8968153 59.4292454,55.6833121 58.1748433,56.8715924 C58.1258511,56.9184713 58.0789004,56.9521019 58.0278669,57 L48.9602441,57 C48.90819,56.9521019 48.8602185,56.9184713 48.8112264,56.8715924 C47.5588657,55.6833121 46.8913482,53.8968153 46.0768544,52.0573248 C45.6859382,51.1788535 45.1970377,50.4328662 44.5938224,49.9610191 C43.4557765,49.0682803 44.1406454,49 45.0837435,49 L45.0837435,49 Z M57.1800901,58 L59,58 L59,61 L47,61 L47,58 L57.1800901,58 L57.1800901,58 Z M75.7830986,35 L74,35 L74,11.4017186 L75.9314554,9 L78,11.4017186 L78,35 L75.7830986,35 L75.7830986,35 Z M68.9095599,36 L69.4317203,36 L82.5732532,36 L83.0934243,36 C83.8881027,36 84.4580034,36.0661467 83.4922554,36.8536073 C82.9860085,37.2704365 82.5732532,37.939253 82.2390705,38.7109645 C81.5547918,40.3530823 80.9848911,41.9458527 79.9346028,43 L72.0514734,43 C71.0051635,41.9458527 70.4332736,40.3530823 69.7519786,38.7109645 C69.4187906,37.939253 69.0070298,37.2557372 68.49581,36.8536073 C67.5459754,36.0661467 68.1158762,36 68.9095599,36 L68.9095599,36 Z M80.437648,44 L82,44 L82,47 L71,47 L71,44 L80.437648,44 L80.437648,44 Z M181.774409,48 L179,48 L179,20.7671731 L181.582373,18 L184,20.7671731 L184,48 L181.774409,48 L181.774409,48 Z M174.068607,49 L174.68502,49 L190.300473,49 L190.919947,49 C191.863957,49 192.548747,49.0825478 191.392463,49.9610191 C190.791358,50.4328662 190.300473,51.1788535 189.909602,52.0573248 C189.095202,53.8968153 188.428782,55.6833121 187.174525,56.8715924 C187.126559,56.9184713 187.075531,56.9521019 187.026545,57 L177.957927,57 C177.910982,56.9521019 177.861995,56.9184713 177.813009,56.8715924 C176.558752,55.6833121 175.893352,53.8968153 175.075891,52.0573248 C174.68502,51.1788535 174.197196,50.4328662 173.597112,49.9610191 C172.456136,49.0682803 173.139905,49 174.068607,49 L174.068607,49 Z M185.895944,58 L188,58 L188,61 L176,61 L176,58 L185.895944,58 L185.895944,58 Z M159.232864,35 L157,35 L157,11.4017186 L159.066667,9 L161,11.4017186 L161,35 L159.232864,35 L159.232864,35 Z M151.903721,36 L152.425501,36 L165.57237,36 L166.095144,36 C166.887256,36 167.459723,36.0661467 166.489709,36.8536073 C165.982837,37.2704365 165.57237,37.939253 165.239425,38.7109645 C164.556638,40.3530823 163.987153,41.9458527 162.939617,43 L155.059248,43 C154.012706,41.9458527 153.442226,40.3530823 152.758446,38.7109645 C152.425501,37.939253 152.015034,37.2557372 151.509156,36.8536073 C150.541129,36.0661467 151.112603,36 151.903721,36 L151.903721,36 Z M163.173785,44 L165,44 L165,47 L154,47 L154,44 L163.173785,44 L163.173785,44 Z" id="Imported-Layers" fill="#C92719" sketch:type="MSShapeGroup" mask="url(#mask-2)"></path>
                </g>
                <path d="M66.394194,73.1944458 L66.535806,73.1944458 C67.5270907,73.1944458 68.4239673,73.2416499 69.1320277,73.3124559 L69.1320277,70.6926322 C68.3767632,70.7870403 67.7159068,70.8342443 66.6066121,70.8342443 L62.1222292,70.8578463 C62.0278212,69.1821033 61.9806171,67.8603904 61.9806171,66.6330856 C61.9806171,65.2641688 62.0042191,65.0281486 62.1458312,64.5089043 L59.3371914,64.5089043 C59.4315995,64.9809446 59.4315995,65.1225567 59.4552015,65.641801 C59.4788035,66.0902393 59.5260076,67.223136 59.5968136,69.0404912 C59.6204156,69.7957557 59.6440176,70.1261839 59.6912217,70.8814484 L54.9708186,70.9050504 L54.9708186,67.5771662 C55.7260831,67.3883501 56.1981234,67.246738 57.3074181,66.8927078 C57.9210705,66.7038917 58.2751008,66.5858816 58.5583249,66.5386776 L57.2602141,64.2256801 C56.6701637,64.5797103 56.2925315,64.7449244 55.3720529,65.0517506 C53.1062594,65.7834131 50.7460579,66.2318514 47.9610202,66.4914736 C48.4094584,67.2703401 48.6454786,67.8131864 48.8814987,68.757267 C50.5100378,68.5448489 51.5013224,68.3796348 52.469005,68.1672166 L52.469005,70.9050504 L50.5572418,70.9286524 L50.3448237,70.9286524 C49.235529,70.9286524 48.4802645,70.8814484 47.8194081,70.8106423 L47.8194081,73.430466 C48.5746725,73.3360579 49.353539,73.2888539 50.5572418,73.2652519 L52.469005,73.2652519 L52.469005,76.593136 C50.2976196,76.9943703 48.5982746,77.2303904 47.9138161,77.2303904 L47.725,77.2303904 L48.1970403,79.9210202 C48.6218766,79.7794081 48.8814987,79.732204 49.7075693,79.5905919 C50.3920277,79.4725819 51.1000882,79.3309698 52.469005,79.0713476 L52.469005,82.6352519 C52.469005,83.1072922 52.3273929,83.2017003 51.6665365,83.2017003 C50.911272,83.2017003 50.3448237,83.1544962 49.5423552,83.0364861 C49.4243451,83.0128841 49.235529,82.9892821 48.9759068,82.9420781 C49.4007431,84.0041688 49.4951511,84.4998111 49.5895592,85.5619018 C50.4156297,85.6091058 51.3361083,85.6563098 51.8553526,85.6563098 C52.9882494,85.6563098 53.7199118,85.5382997 54.1919521,85.2786776 C54.7820025,84.9482494 54.9708186,84.429005 54.9708186,83.2253023 L54.9708186,78.5285013 C55.9385013,78.2924811 56.5757557,78.127267 58.7707431,77.5136146 L58.699937,75.1770151 C56.7173678,75.7198615 56.1037154,75.8850756 54.9708186,76.1210957 L54.9708186,73.2416499 L59.8800378,73.2180479 C60.163262,75.7670655 60.6589043,77.9856549 61.3197607,79.5905919 C59.6676196,81.0303149 57.9682746,81.9979975 55.513665,82.9420781 C56.3161335,83.7681486 56.6701637,84.2637909 57.142204,85.1842695 C59.2427834,84.2165869 60.7533123,83.2489043 62.4054534,81.8563854 C63.8451763,84.381801 65.3557053,85.7271159 66.7718262,85.7271159 C67.5506927,85.7271159 68.1171411,85.3730856 68.5183753,84.5706171 C68.8724055,83.8389547 69.1084257,82.9184761 69.4388539,80.9595088 C68.5419773,80.5110705 68.2823552,80.3222544 67.2910705,79.4017758 C67.0786524,81.6675693 66.8190302,82.7060579 66.441398,82.7060579 C65.9929597,82.7060579 65.0724811,81.5731612 64.2936146,80.0862343 C65.3793073,78.9061335 66.0637657,77.9856549 67.0786524,76.3807179 C67.4090806,75.8378715 67.5978967,75.5310453 67.8811209,75.1534131 L65.6153275,73.8080982 C65.2376952,74.9173929 64.3644207,76.3099118 63.2079219,77.6788287 C62.7594836,76.3335139 62.4762594,74.8465869 62.3110453,73.2180479 L66.394194,73.1944458 Z M62.9010957,66.1138413 C64.2936146,67.5299622 64.7184509,68.0728086 66.2289798,70.315 L68.1171411,68.733665 C67.1258564,67.246738 66.2053778,66.1610453 64.7184509,64.7921285 L62.9010957,66.1138413 Z M86.9515491,71.872733 C87.8248237,71.872733 88.5328841,71.919937 89.2881486,71.9907431 L89.2881486,69.6069395 C88.7217003,69.7013476 88.296864,69.7249496 86.9515491,69.7249496 L77.2747229,69.7249496 C76.0710202,69.7249496 75.5753778,69.7013476 74.9617254,69.6069395 L74.9617254,71.9907431 C75.6933879,71.919937 76.4014484,71.872733 77.2747229,71.872733 L79.7529345,71.872733 C79.1864861,72.2267632 78.3840176,72.6043955 77.6287531,72.9112217 C75.835,73.5720781 74.7493073,73.8553023 72.0350756,74.3745466 C72.67233,75.2242191 72.8847481,75.5782494 73.2859824,76.3571159 C76.0710202,75.6254534 77.7703652,75.011801 79.8237406,74.0205164 C80.0833627,74.3509446 80.2957809,74.6577708 80.6262091,75.1770151 C78.4548237,76.616738 75.0089295,77.9384509 71.5394332,78.6465113 C72.1058816,79.3309698 72.4363098,79.8502141 72.8611461,80.6526826 C75.9766121,79.732204 79.5641184,78.150869 81.4522796,76.8527582 C81.6882997,77.4900126 81.7827078,77.7732368 81.9243199,78.3868892 C80.1069647,79.685 80.1069647,79.685 78.6672418,80.4166625 C76.3306423,81.5495592 73.6164106,82.5408438 71.3978212,83.0364861 C72.0114736,83.7445466 72.3419018,84.2401889 72.8847481,85.2078715 C75.2213476,84.429005 76.6138665,83.8861587 77.8411713,83.2725063 C78.2660076,84.2637909 78.3840176,84.6414232 78.5256297,85.7743199 C79.5641184,85.8451259 80.4137909,85.89233 81.1218514,85.89233 C82.5379723,85.89233 83.2932368,85.7271159 83.8124811,85.3258816 C84.5205416,84.7830353 84.8981738,83.7445466 84.8981738,82.2340176 C84.8981738,81.0067128 84.7329597,79.637796 84.4497355,78.3632872 C84.8037657,78.150869 84.9689798,78.056461 85.3466121,77.8204408 C85.8186524,78.7645214 86.2670907,79.5433879 86.9043451,80.4402645 C88.0372418,82.0452015 88.9341184,82.9420781 91.2471159,84.7830353 C91.9315743,83.6501385 92.2620025,83.2489043 93.1352771,82.4936398 C91.506738,81.5023552 90.5154534,80.7234887 89.3825567,79.4725819 C88.4856801,78.5285013 87.8956297,77.6788287 87.2583753,76.4751259 C87.8248237,76.0502897 88.2496599,75.7198615 89.1229345,74.940995 C89.7601889,74.3981486 89.925403,74.2565365 90.4682494,73.8317003 L88.2496599,72.1087531 C87.4707935,73.1000378 86.9279471,73.6428841 85.9602645,74.4689547 C85.252204,75.035403 84.8981738,75.2950252 83.694471,76.0266877 C83.1280227,74.6813728 82.7031864,73.9261083 81.8063098,72.8876196 C82.2547481,72.6043955 82.6795844,72.2975693 83.2224307,71.872733 L86.9515491,71.872733 Z M82.3255542,80.7470907 C82.3491562,81.0303149 82.3727582,81.242733 82.3727582,81.5023552 C82.3727582,83.1780982 82.065932,83.5793325 80.7678212,83.5793325 C80.0125567,83.5793325 79.1628841,83.4849244 77.9119773,83.2489043 C80.0125567,82.2340176 81.2870655,81.5023552 82.3255542,80.7470907 L82.3255542,80.7470907 Z M74.4660831,66.0430353 C73.3095844,66.0430353 72.5779219,66.0194332 71.8698615,65.9486272 C71.9170655,66.4442695 71.9642695,66.9163098 71.9642695,67.6007683 L71.9642695,69.4417254 C71.9642695,70.1733879 71.9170655,70.5982242 71.8462594,71.1174685 L74.4188791,71.1174685 L74.4188791,68.3088287 L89.830995,68.3088287 L89.830995,71.1174685 L92.3800126,71.1174685 C92.3092065,70.5982242 92.2856045,70.1497859 92.2856045,69.4417254 L92.2856045,67.6007683 C92.2856045,66.8455038 92.3092065,66.4442695 92.3800126,65.9486272 C91.6483501,66.0194332 90.8930856,66.0430353 89.7601889,66.0430353 L83.1752267,66.0430353 C82.8447985,65.1697607 82.6795844,64.7921285 82.2075441,63.8244458 L79.7765365,64.4853023 C80.1541688,65.2641688 80.2485768,65.5001889 80.484597,66.0430353 L74.4660831,66.0430353 Z M106.75364,66.8927078 L112.134899,66.8927078 C113.220592,66.8927078 113.857846,66.9163098 114.565907,66.9635139 L114.565907,64.5797103 C113.90505,64.6741184 113.07898,64.7213224 111.898879,64.7213224 L99.4370151,64.7213224 C98.3513224,64.7213224 97.4780479,64.6741184 96.7699874,64.5797103 L96.7699874,66.9635139 C97.5016499,66.9163098 98.2097103,66.8927078 99.224597,66.8927078 L104.251826,66.8927078 L104.251826,67.7423804 L98.2097103,67.7423804 C96.6283753,67.7423804 96.061927,67.7187783 95.3066625,67.6479723 C95.3774685,68.2616247 95.4010705,68.710063 95.4010705,69.5833375 L95.4010705,71.3062846 C95.4010705,72.1795592 95.3774685,72.6043955 95.2594584,73.2416499 L97.714068,73.2416499 L97.714068,69.7485516 L104.251826,69.7485516 L104.251826,72.0379471 C104.251826,73.0292317 104.228224,73.6664861 104.133816,74.3037406 L106.87165,74.3037406 C106.777242,73.6192821 106.75364,73.2180479 106.75364,72.0379471 L106.75364,69.7485516 L113.574622,69.7485516 L113.574622,73.2416499 L116.029232,73.2416499 C115.911222,72.5807935 115.88762,72.1795592 115.88762,71.3062846 L115.88762,69.5833375 C115.88762,68.6628589 115.911222,68.2380227 115.982028,67.6479723 C115.226763,67.7187783 114.660315,67.7423804 113.07898,67.7423804 L106.75364,67.7423804 L106.75364,66.8927078 Z M113.881448,77.1123804 C114.943539,77.1123804 115.627997,77.1359824 116.312456,77.2067884 L116.312456,74.8229849 C115.627997,74.9173929 114.849131,74.964597 113.881448,74.964597 L97.4544458,74.964597 C96.5339673,74.964597 95.6842947,74.9173929 94.9762343,74.8229849 L94.9762343,77.2067884 C95.6606927,77.1359824 96.4395592,77.1123804 97.4544458,77.1123804 L104.039408,77.1123804 C103.874194,77.4664106 103.685378,77.7968388 103.449358,78.174471 L98.8705668,78.174471 C97.690466,78.174471 97.2656297,78.150869 96.5339673,78.080063 C96.6047733,78.6937154 96.6283753,79.3073678 96.6283753,79.9918262 L96.6283753,83.4849244 C96.6283753,84.358199 96.5811713,85.0898615 96.4867632,85.89233 L99.1773929,85.89233 C99.0829849,85.2078715 99.0593829,84.5942191 99.0593829,83.6029345 L99.0593829,80.2986524 L101.820819,80.2986524 L101.820819,83.2725063 C101.820819,84.2873929 101.797217,84.9246474 101.702809,85.5382997 L104.204622,85.5382997 C104.110214,84.8774433 104.086612,84.381801 104.086612,83.2725063 L104.086612,80.2986524 L106.824446,80.2986524 L106.824446,83.2725063 C106.824446,84.2873929 106.800844,84.9010453 106.706436,85.5382997 L109.208249,85.5382997 C109.113841,84.8774433 109.090239,84.381801 109.090239,83.2725063 L109.090239,80.2986524 L112.300113,80.2986524 L112.300113,83.0836902 C112.300113,83.4849244 112.182103,83.5793325 111.710063,83.5793325 C111.214421,83.5793325 110.62437,83.5085264 109.963514,83.3905164 C110.27034,84.1693829 110.364748,84.5942191 110.482758,85.7507179 C111.592053,85.7979219 111.969685,85.8215239 112.394521,85.8215239 C114.211877,85.8215239 114.731121,85.3258816 114.731121,83.6029345 L114.731121,79.8502141 C114.731121,79.1421537 114.754723,78.6229093 114.825529,78.080063 C114.235479,78.150869 113.66903,78.174471 112.677746,78.174471 L106.116385,78.174471 C106.352406,77.7732368 106.541222,77.4428086 106.706436,77.1123804 L113.881448,77.1123804 Z M98.7053526,71.9907431 C99.0829849,71.943539 99.3898111,71.919937 99.9326574,71.919937 L102.056839,71.919937 C102.646889,71.919937 102.859307,71.943539 103.260542,71.9907431 L103.260542,70.385806 C102.930113,70.4330101 102.646889,70.4566121 102.056839,70.4566121 L99.9326574,70.4566121 C99.295403,70.4566121 99.0829849,70.4566121 98.7053526,70.385806 L98.7053526,71.9907431 Z M98.7053526,74.1621285 C99.0829849,74.1149244 99.3898111,74.0913224 99.9326574,74.0913224 L102.056839,74.0913224 C102.646889,74.0913224 102.859307,74.1149244 103.260542,74.1621285 L103.260542,72.5571914 C102.953715,72.6043955 102.599685,72.6279975 102.056839,72.6279975 L99.9326574,72.6279975 C99.295403,72.6279975 99.0829849,72.6279975 98.7053526,72.5571914 L98.7053526,74.1621285 Z M107.768526,71.9907431 C108.146159,71.943539 108.452985,71.919937 108.995831,71.919937 L111.403237,71.919937 C111.993287,71.919937 112.229307,71.943539 112.60694,71.9907431 L112.60694,70.385806 C112.276511,70.4330101 112.016889,70.4566121 111.403237,70.4566121 L108.995831,70.4566121 C108.358577,70.4566121 108.146159,70.4566121 107.768526,70.385806 L107.768526,71.9907431 Z M107.768526,74.1621285 C108.146159,74.1149244 108.452985,74.0913224 108.995831,74.0913224 L111.403237,74.0913224 C111.993287,74.0913224 112.229307,74.1149244 112.60694,74.1621285 L112.60694,72.5571914 C112.276511,72.6043955 112.016889,72.6279975 111.403237,72.6279975 L108.995831,72.6279975 C108.358577,72.6279975 108.146159,72.6279975 107.768526,72.5571914 L107.768526,74.1621285 Z M128.632708,76.4515239 C128.821524,76.1210957 128.939534,75.9322796 129.033942,75.7670655 C129.340768,75.2006171 129.340768,75.2006171 129.48238,74.964597 L135.45369,74.964597 C136.799005,74.964597 137.530668,74.988199 138.120718,75.059005 C138.073514,74.4689547 138.049912,73.9261083 138.049912,72.7460076 L138.049912,71.1410705 C138.049912,69.9845718 138.073514,69.3945214 138.14432,68.733665 C137.459861,68.828073 136.704597,68.8516751 135.500894,68.8516751 L132.76306,68.8516751 L132.76306,67.3647481 L136.987821,67.3647481 C138.120718,67.3647481 138.97039,67.4119521 139.725655,67.4827582 L139.725655,64.9809446 C139.088401,65.0753526 138.167922,65.1225567 136.799005,65.1225567 L121.788123,65.1225567 C120.466411,65.1225567 119.593136,65.0753526 118.885076,64.9809446 L118.885076,67.4827582 C119.616738,67.4119521 120.490013,67.3647481 121.599307,67.3647481 L125.517242,67.3647481 L125.517242,68.8516751 L122.944622,68.8516751 C121.835327,68.8516751 121.080063,68.828073 120.324798,68.733665 C120.395605,69.4417254 120.419207,70.0553778 120.419207,71.1410705 L120.419207,72.7696096 C120.419207,73.8317003 120.395605,74.3745466 120.324798,75.059005 C121.056461,74.988199 121.835327,74.964597 123.062632,74.964597 L126.650139,74.964597 C126.272506,75.6962594 126.08369,76.0030856 125.776864,76.4515239 L121.552103,76.4515239 C120.253992,76.4515239 119.498728,76.4043199 118.837872,76.3099118 L118.837872,78.7645214 C119.616738,78.6937154 120.395605,78.6465113 121.552103,78.6465113 L124.077519,78.6465113 C123.251448,79.5905919 122.850214,80.0154282 121.740919,80.9595088 C124.219131,81.5495592 124.384345,81.5967632 127.263791,82.3520277 C125.045202,83.1544962 122.637796,83.5085264 119.380718,83.5085264 L118.81427,83.5085264 C119.427922,84.5470151 119.593136,84.9482494 119.87636,85.915932 C124.573161,85.6799118 127.735831,84.9246474 130.520869,83.3433123 C134.108375,84.6414232 134.108375,84.6414232 136.138149,85.5619018 C136.444975,85.7035139 136.917015,85.915932 137.507065,86.1755542 L139.159207,84.0041688 C136.397771,82.871272 136.326965,82.84767 132.692254,81.7147733 C133.565529,80.8178967 134.179181,79.9682242 134.840038,78.6465113 L136.964219,78.6465113 C138.120718,78.6465113 138.923186,78.6937154 139.702053,78.7645214 L139.702053,76.3099118 C139.041196,76.4279219 138.333136,76.4515239 136.964219,76.4515239 L128.632708,76.4515239 Z M132.031398,78.6465113 C131.488552,79.5669899 130.874899,80.2514484 129.978023,80.9123048 C129.742003,80.8414987 129.553186,80.7942947 129.435176,80.7706927 C128.963136,80.6290806 128.609106,80.5346725 128.561902,80.5346725 C126.579332,80.0626322 126.579332,80.0626322 125.894874,79.8738161 C126.484924,79.2601637 126.720945,79.0005416 127.027771,78.6465113 L132.031398,78.6465113 Z M130.426461,67.3647481 L130.426461,68.8516751 L127.853841,68.8516751 L127.853841,67.3647481 L130.426461,67.3647481 Z M125.517242,73.0056297 L122.92102,73.0056297 L122.92102,70.7634383 L125.517242,70.7634383 L125.517242,73.0056297 Z M127.853841,73.0056297 L127.853841,70.7634383 L130.426461,70.7634383 L130.426461,73.0056297 L127.853841,73.0056297 Z M132.76306,73.0056297 L132.76306,70.7634383 L135.524496,70.7634383 L135.524496,73.0056297 L132.76306,73.0056297 Z M160.896662,77.9620529 C162.029559,77.9620529 162.690416,77.9856549 163.469282,78.080063 L163.469282,75.5782494 C162.85563,75.6490554 162.029559,75.6962594 160.920264,75.6962594 L154.66573,75.6962594 C154.335302,74.7285768 154.19369,74.4453526 153.768854,73.7136902 L151.172632,74.3745466 C151.526662,74.8937909 151.668275,75.1534131 151.857091,75.6962594 L144.918098,75.6962594 C143.737997,75.6962594 143.006335,75.6726574 142.251071,75.5782494 L142.251071,78.080063 C143.029937,77.9856549 143.690793,77.9620529 144.82369,77.9620529 L149.662103,77.9620529 C147.703136,79.2129597 144.870894,80.3458564 141.826234,81.0775189 C142.487091,81.9743955 142.793917,82.4700378 143.147947,83.3197103 C144.682078,82.800466 145.578955,82.4228338 147.018678,81.7619773 L147.018678,82.776864 C147.018678,83.4377204 146.853463,83.6973426 146.310617,83.9805668 L146.971474,86.1519521 C147.51432,86.0103401 147.75034,85.963136 148.458401,85.8451259 C150.039736,85.5382997 153.344018,84.8538413 154.19369,84.6414232 L154.264496,82.3284257 C151.857091,82.8948741 151.172632,83.0364861 149.473287,83.3197103 L149.473287,80.4638665 C150.417368,79.9210202 151.715479,78.9533375 152.730365,78.080063 C153.674446,79.9210202 154.476914,81.0303149 155.657015,82.1160076 C157.47437,83.7681486 159.57495,84.9246474 162.808426,86.0103401 C163.304068,84.8066373 163.634496,84.1929849 164.177343,83.5085264 C162.147569,83.0364861 160.424622,82.3756297 158.914093,81.4787531 C159.905378,80.8178967 160.542632,80.2986524 161.793539,79.2129597 L159.645756,78.0328589 C158.843287,78.9061335 158.560063,79.1421537 157.143942,80.1570403 C156.29427,79.4253778 155.845831,78.9061335 155.208577,77.9620529 L160.896662,77.9620529 Z M147.2783,69.8193577 C144.965302,70.7634383 143.619987,71.1882746 141.991448,71.4951008 L142.793917,73.9261083 C143.313161,73.7136902 143.431171,73.6900882 144.11563,73.430466 C145.484547,72.8876196 146.405025,72.5099874 147.2783,72.0851511 L147.2783,72.4863854 C147.2783,73.406864 147.231096,74.0205164 147.136688,74.6341688 L149.827317,74.6341688 C149.756511,74.0913224 149.732909,73.8080982 149.732909,72.4863854 L149.732909,66.2554534 C149.732909,65.2405668 149.756511,64.7921285 149.850919,64.2728841 L147.136688,64.2728841 C147.231096,64.8629345 147.2783,65.4293829 147.2783,66.2554534 L147.2783,69.8193577 Z M155.255781,66.6802897 L152.871977,66.6802897 C151.809887,66.6802897 151.196234,66.6566877 150.535378,66.5622796 L150.535378,68.9932872 C151.196234,68.8988791 151.857091,68.8752771 152.871977,68.8752771 L155.255781,68.8752771 L155.255781,71.2118766 L153.202406,71.2118766 C152.211121,71.2118766 151.597469,71.1882746 151.03102,71.1174685 L151.03102,73.5248741 C151.597469,73.454068 152.447141,73.406864 153.344018,73.406864 L160.448224,73.406864 C161.510315,73.406864 162.053161,73.430466 162.596008,73.5248741 L162.596008,71.0938665 C161.982355,71.1882746 161.463111,71.2118766 160.377418,71.2118766 L157.804798,71.2118766 L157.804798,68.8752771 L161.109081,68.8752771 C162.218375,68.8752771 162.832028,68.8988791 163.469282,68.9932872 L163.469282,66.5622796 C162.808426,66.6566877 162.171171,66.6802897 161.109081,66.6802897 L157.804798,66.6802897 L157.804798,66.0902393 C157.804798,65.2169647 157.828401,64.7921285 157.922809,64.2728841 L155.114169,64.2728841 C155.232179,64.8157305 155.255781,65.2641688 155.255781,66.1374433 L155.255781,66.6802897 Z M142.298275,66.3498615 C143.690793,67.6243703 144.186436,68.1908186 145.130516,69.5597355 L146.92427,67.9311965 C145.767771,66.4678715 145.366537,66.0430353 144.092028,64.8629345 L142.298275,66.3498615 Z M184.852708,65.9722292 C184.451474,66.1138413 184.427872,66.1138413 183.790617,66.1138413 L179.282632,66.1138413 C179.683866,65.3113728 179.683866,65.3113728 180.037897,64.4853023 L177.512481,64.013262 C176.922431,66.1846474 175.718728,68.0256045 173.736159,69.7721537 C173.759761,68.828073 173.759761,68.686461 173.830567,68.1908186 L171.352355,68.1908186 C171.423161,68.8752771 171.446763,69.2057053 171.446763,70.4094081 L171.446763,80.0154282 C171.446763,81.219131 171.423161,81.7855793 171.305151,82.4464358 L173.854169,82.4464358 C173.759761,81.9035894 173.736159,81.3371411 173.736159,80.0626322 L173.736159,70.244194 C174.160995,70.5274181 174.585831,70.9050504 175.246688,71.5895088 C176.072758,70.8578463 176.33238,70.5746222 176.898829,69.8901637 C177.606889,70.9050504 177.937317,71.3062846 178.692582,72.0143451 C177.559685,72.6515995 176.09636,73.1472418 173.901373,73.6664861 C174.349811,74.3037406 174.609433,74.8229849 174.939861,75.6962594 C177.536083,74.9173929 178.857796,74.3745466 180.439131,73.430466 C182.114874,74.5633627 183.885025,75.2714232 186.953287,76.0266877 C187.212909,75.059005 187.448929,74.4453526 187.92097,73.6192821 C185.34835,73.2416499 183.932229,72.8168136 182.4217,72.0379471 C183.554597,71.0938665 184.781902,69.7957557 185.725982,68.5212469 C186.339635,67.6715743 186.339635,67.6715743 186.552053,67.4827582 L184.852708,65.9722292 Z M183.224169,68.2144207 C182.350894,69.3237154 181.572028,70.0789798 180.557141,70.8342443 C179.565856,70.0553778 178.928602,69.3237154 178.220542,68.2144207 L183.224169,68.2144207 Z M167.835655,83.1780982 C167.835655,84.358199 167.788451,85.0898615 167.694043,86.0103401 L170.290264,86.0103401 C170.195856,85.1134635 170.172254,84.381801 170.172254,83.1780982 L170.172254,70.1969899 C170.951121,68.5920529 171.446763,67.3647481 171.942406,65.8306171 C172.154824,65.1461587 172.154824,65.1461587 172.296436,64.7685264 L169.629408,64.084068 C169.18097,67.128728 167.292809,71.0466625 165.145025,73.406864 C165.593463,74.1621285 165.923892,74.988199 166.277922,76.1682997 C167.009584,75.2714232 167.316411,74.7757809 167.906461,73.6428841 C167.859257,74.7049748 167.835655,75.2950252 167.835655,76.4515239 L167.835655,83.1780982 Z M182.799332,76.2391058 C181.59563,77.8204408 178.008123,79.5197859 174.420617,80.2042443 C174.963463,80.8887028 175.293892,81.4315491 175.553514,82.1868136 C179.589458,81.1247229 181.59563,80.1334383 184.781902,77.5844207 L182.799332,76.2391058 Z M180.415529,74.4453526 C179.211826,75.5546474 177.158451,76.4043199 174.208199,76.9943703 C174.939861,77.9148489 175.057872,78.103665 175.3883,78.8353275 C178.173338,78.056461 179.896285,77.3247985 181.312406,76.3099118 C181.94966,75.8614736 181.94966,75.8614736 182.162078,75.7198615 L180.415529,74.4453526 Z M185.513564,78.3160831 C184.852708,79.2365617 183.932229,80.0154282 182.516108,80.8887028 C180.037897,82.3992317 177.300063,83.3197103 173.570945,83.9097607 C174.160995,84.7122292 174.420617,85.1606675 174.798249,86.0339421 C180.203111,84.8774433 183.176965,83.4849244 186.575655,80.5110705 C186.929685,80.1806423 187.212909,79.9682242 187.496134,79.732204 L185.513564,78.3160831 Z" id="我家需要装修" fill="#FFFFFF" sketch:type="MSShapeGroup"></path>
            </g>
        </g>
    </g>
</svg>