<?xml version="1.0" encoding="UTF-8" standalone="no"?>
<svg width="54px" height="14px" viewBox="0 0 54 14" version="1.1" xmlns="http://www.w3.org/2000/svg" xmlns:xlink="http://www.w3.org/1999/xlink">
    <!-- Generator: Sketch 3.8.3 (29802) - http://www.bohemiancoding.com/sketch -->
    <title>em-googlead-info</title>
    <desc>Created with Sketch.</desc>
    <defs></defs>
    <g id="Page-1" stroke="none" stroke-width="1" fill="none" fill-rule="evenodd">
        <g id="Group">
            <rect id="Rectangle-3" fill="#9B9B9B" x="0" y="0" width="22" height="14" rx="2"></rect>
            <path d="M35.312,1.016 L34.364,1.184 C34.604,1.568 34.832,2 35.024,2.468 L30.56,2.468 L30.56,5.984 C30.536,8.408 30.176,10.292 29.504,11.66 L30.212,12.296 C30.992,10.712 31.4,8.612 31.448,5.984 L31.448,3.296 L40.34,3.296 L40.34,2.468 L35.972,2.468 C35.756,1.928 35.54,1.448 35.312,1.016 L35.312,1.016 Z M50.924,7.796 L43.148,7.796 L43.148,12.188 L44.024,12.188 L44.024,11.552 L50.048,11.552 L50.048,12.188 L50.924,12.188 L50.924,7.796 Z M44.024,10.724 L44.024,8.612 L50.048,8.612 L50.048,10.724 L44.024,10.724 Z M43.784,3.716 L46.652,3.716 L46.652,5.672 L41.576,5.672 L41.576,6.512 L52.424,6.512 L52.424,5.672 L47.54,5.672 L47.54,3.716 L51.56,3.716 L51.56,2.876 L47.54,2.876 L47.54,1.22 L46.652,1.22 L46.652,2.876 L44.312,2.876 C44.564,2.384 44.768,1.856 44.936,1.304 L44.048,1.196 C43.664,2.504 42.92,3.608 41.828,4.52 L42.38,5.24 C42.92,4.784 43.388,4.268 43.784,3.716 L43.784,3.716 Z" id="Shape" fill="#999999"></path>
            <path d="M7.529,3.574 L5,10 L5.792,10 L6.476,8.2 L9.428,8.2 L10.112,10 L10.913,10 L8.384,3.574 L7.529,3.574 Z M6.71,7.579 L7.943,4.366 L7.979,4.366 L9.194,7.579 L6.71,7.579 Z M14.909,3.448 L14.909,6.202 C14.549,5.545 14.036,5.221 13.37,5.221 C12.704,5.221 12.191,5.464 11.813,5.968 C11.462,6.418 11.291,6.976 11.291,7.66 C11.291,8.362 11.462,8.938 11.813,9.388 C12.191,9.874 12.722,10.126 13.406,10.126 C14.108,10.126 14.63,9.829 14.954,9.235 L14.954,10 L15.629,10 L15.629,3.448 L14.909,3.448 Z M13.523,5.815 C13.937,5.815 14.279,5.977 14.54,6.319 C14.792,6.652 14.927,7.093 14.927,7.633 L14.927,7.723 C14.927,8.245 14.81,8.668 14.585,8.992 C14.324,9.352 13.964,9.532 13.496,9.532 C12.992,9.532 12.614,9.343 12.362,8.983 C12.137,8.659 12.029,8.218 12.029,7.66 C12.029,7.102 12.137,6.67 12.371,6.355 C12.623,5.995 13.01,5.815 13.523,5.815 L13.523,5.815 Z" id="Ad" fill="#FFFFFF"></path>
        </g>
    </g>
</svg>