<?xml version="1.0" encoding="UTF-8" standalone="no"?>
<svg width="16px" height="46px" viewBox="0 0 16 46" version="1.1" xmlns="http://www.w3.org/2000/svg" xmlns:xlink="http://www.w3.org/1999/xlink" xmlns:sketch="http://www.bohemiancoding.com/sketch/ns">
    <!-- Generator: Sketch 3.4.4 (17249) - http://www.bohemiancoding.com/sketch -->
    <title>icon_ads_help</title>
    <desc>Created with Sketch.</desc>
    <defs></defs>
    <g id="Page-1" stroke="none" stroke-width="1" fill="none" fill-rule="evenodd" sketch:type="MSPage">
        <g id="Artboard-Copy" sketch:type="MSArtboardGroup" transform="translate(-759.000000, -593.000000)">
            <g id="Oval-1-+-？-Copy-+-Oval-1-+-？-Copy-2" sketch:type="MSLayerGroup" transform="translate(759.000000, 593.000000)">
                <g id="Oval-1-+-？-Copy" sketch:type="MSShapeGroup">
                    <circle id="Oval-1" fill="#CCCCCC" cx="8" cy="8" r="8"></circle>
                    <path d="M8.132,4.264 C7.244,4.264 6.548,4.516 6.044,5.032 C5.54,5.536 5.288,6.22 5.288,7.096 L6.548,7.096 C6.548,6.568 6.656,6.16 6.872,5.872 C7.112,5.524 7.508,5.356 8.048,5.356 C8.48,5.356 8.828,5.476 9.068,5.716 C9.296,5.956 9.416,6.28 9.416,6.7 C9.416,7.012 9.296,7.3 9.08,7.576 L8.876,7.804 C8.132,8.464 7.676,8.956 7.52,9.292 C7.352,9.604 7.28,9.988 7.28,10.432 L7.28,10.636 L8.564,10.636 L8.564,10.432 C8.564,10.144 8.624,9.88 8.756,9.64 C8.864,9.424 9.032,9.208 9.26,9.016 C9.824,8.524 10.16,8.212 10.268,8.08 C10.568,7.696 10.724,7.204 10.724,6.616 C10.724,5.896 10.484,5.32 10.004,4.9 C9.524,4.468 8.9,4.264 8.132,4.264 L8.132,4.264 Z M7.916,11.284 C7.676,11.284 7.46,11.356 7.292,11.524 C7.124,11.68 7.04,11.884 7.04,12.136 C7.04,12.376 7.124,12.58 7.292,12.748 C7.46,12.916 7.676,13 7.916,13 C8.156,13 8.372,12.916 8.54,12.76 C8.708,12.592 8.804,12.388 8.804,12.136 C8.804,11.884 8.72,11.68 8.552,11.524 C8.384,11.356 8.168,11.284 7.916,11.284 L7.916,11.284 Z" id="？" fill="#FFFFFF"></path>
                </g>
                <g id="Oval-1-+-？-Copy-2" transform="translate(0.000000, 30.000000)" sketch:type="MSShapeGroup">
                    <circle id="Oval-1" fill="#999999" cx="8" cy="8" r="8"></circle>
                    <path d="M8.132,4.264 C7.244,4.264 6.548,4.516 6.044,5.032 C5.54,5.536 5.288,6.22 5.288,7.096 L6.548,7.096 C6.548,6.568 6.656,6.16 6.872,5.872 C7.112,5.524 7.508,5.356 8.048,5.356 C8.48,5.356 8.828,5.476 9.068,5.716 C9.296,5.956 9.416,6.28 9.416,6.7 C9.416,7.012 9.296,7.3 9.08,7.576 L8.876,7.804 C8.132,8.464 7.676,8.956 7.52,9.292 C7.352,9.604 7.28,9.988 7.28,10.432 L7.28,10.636 L8.564,10.636 L8.564,10.432 C8.564,10.144 8.624,9.88 8.756,9.64 C8.864,9.424 9.032,9.208 9.26,9.016 C9.824,8.524 10.16,8.212 10.268,8.08 C10.568,7.696 10.724,7.204 10.724,6.616 C10.724,5.896 10.484,5.32 10.004,4.9 C9.524,4.468 8.9,4.264 8.132,4.264 L8.132,4.264 Z M7.916,11.284 C7.676,11.284 7.46,11.356 7.292,11.524 C7.124,11.68 7.04,11.884 7.04,12.136 C7.04,12.376 7.124,12.58 7.292,12.748 C7.46,12.916 7.676,13 7.916,13 C8.156,13 8.372,12.916 8.54,12.76 C8.708,12.592 8.804,12.388 8.804,12.136 C8.804,11.884 8.72,11.68 8.552,11.524 C8.384,11.356 8.168,11.284 7.916,11.284 L7.916,11.284 Z" id="？" fill="#FFFFFF"></path>
                </g>
            </g>
        </g>
    </g>
</svg>