<svg width="86" height="86" viewBox="0 0 86 86" xmlns="http://www.w3.org/2000/svg" xmlns:xlink="http://www.w3.org/1999/xlink"><title>A4BEB93A-8EED-4253-B526-E138BAFAA47F</title><defs><path d="M36.432 21.397c1.068-.284 2.56.112 3.348.9l25.877 25.876c.78.78.78 2.048-.004 2.831L51.518 65.14a1.996 1.996 0 0 1-2.831.005L22.81 39.267c-.781-.781-1.186-2.273-.9-3.349l2.536-9.536c.284-1.069 1.374-2.163 2.45-2.45l9.536-2.535zm-4.103 15.41a2.82 2.82 0 0 0 3.987-.006 2.82 2.82 0 0 0 .006-3.987 2.82 2.82 0 0 0-3.987.006 2.82 2.82 0 0 0-.006 3.987z" id="a"/><mask id="b" x="0" y="0" width="44.423" height="44.425" fill="#fff"><use xlink:href="#a"/></mask></defs><g fill="none" fill-rule="evenodd"><use stroke="#BBB" mask="url(#b)" stroke-width="4" xlink:href="#a"/><path d="M43 84c22.644 0 41-18.356 41-41S65.644 2 43 2 2 20.356 2 43s18.356 41 41 41zm0 2C19.252 86 0 66.748 0 43S19.252 0 43 0s43 19.252 43 43-19.252 43-43 43z" fill="#DDD" fill-rule="nonzero"/></g></svg>